<?xml version="1.0" encoding="UTF-8"?>
<!DOCTYPE svg PUBLIC "-//W3C//DTD SVG 1.1//EN"
  "http://www.w3.org/Graphics/SVG/1.1/DTD/svg11.dtd">
<svg xmlns="http://www.w3.org/2000/svg" xmlns:xlink="http://www.w3.org/1999/xlink"   viewBox="0.00 0.00 300.00 300.00">
<!-- Created by OpenEye Scientific Software -->
<!-- Creation Date Fri Aug 17 12:10:55 2018 -->
<rect width="300.00" height="300.00" fill="white" />
<path d="M 131.56 136.32 L 140.48 164.02 C 141.56 167.39 144.55 169.56 148.09 169.56 L 177.24 169.56 C 180.76 169.56 183.74 167.41 184.84 164.05 L 193.91 136.36 C 195.01 132.99 193.88 129.48 191.01 127.40 L 167.37 110.20 C 164.50 108.12 160.80 108.12 157.94 110.22 L 134.45 127.41 C 131.61 129.49 130.48 132.97 131.56 136.32 Z" fill="none" stroke="#5e005e" stroke-width="3" stroke-linejoin="round" stroke-linecap="round" />
<line x1="279.08" y1="183.32" x2="251.27" y2="192.41" stroke="black" stroke-width="2" stroke-linejoin="round" stroke-linecap="round" />
<line x1="272.87" y1="179.40" x2="253.96" y2="185.58" stroke="black" stroke-width="2" stroke-linejoin="round" stroke-linecap="round" />
<line x1="279.08" y1="183.32" x2="285.00" y2="154.83" stroke="black" stroke-width="2" stroke-linejoin="round" stroke-linecap="round" />
<line x1="285.00" y1="154.83" x2="263.40" y2="135.33" stroke="black" stroke-width="2" stroke-linejoin="round" stroke-linecap="round" />
<line x1="277.75" y1="155.91" x2="263.07" y2="142.65" stroke="black" stroke-width="2" stroke-linejoin="round" stroke-linecap="round" />
<line x1="263.40" y1="135.33" x2="235.60" y2="144.41" stroke="black" stroke-width="2" stroke-linejoin="round" stroke-linecap="round" />
<line x1="235.60" y1="144.41" x2="229.39" y2="173.00" stroke="black" stroke-width="2" stroke-linejoin="round" stroke-linecap="round" />
<line x1="240.13" y1="150.19" x2="235.91" y2="169.62" stroke="black" stroke-width="2" stroke-linejoin="round" stroke-linecap="round" />
<line x1="229.39" y1="173.00" x2="251.27" y2="192.41" stroke="black" stroke-width="2" stroke-linejoin="round" stroke-linecap="round" />
<line x1="235.60" y1="144.41" x2="214.00" y2="124.91" stroke="black" stroke-width="2" stroke-linejoin="round" stroke-linecap="round" />
<line x1="214.00" y1="124.91" x2="186.31" y2="133.87" stroke="black" stroke-width="2" stroke-linejoin="round" stroke-linecap="round" />
<line x1="174.49" y1="125.27" x2="186.31" y2="133.87" stroke="black" stroke-width="2" stroke-linejoin="round" stroke-linecap="round" />
<line x1="174.49" y1="125.27" x2="168.70" y2="121.06" stroke="#ebc80a" stroke-width="2" stroke-linejoin="round" stroke-linecap="round" />
<line x1="181.77" y1="147.71" x2="186.31" y2="133.87" stroke="black" stroke-width="2" stroke-linejoin="round" stroke-linecap="round" />
<line x1="181.77" y1="147.71" x2="179.56" y2="154.47" stroke="blue" stroke-width="2" stroke-linejoin="round" stroke-linecap="round" />
<line x1="176.40" y1="145.95" x2="179.48" y2="136.54" stroke="black" stroke-width="2" stroke-linejoin="round" stroke-linecap="round" />
<line x1="176.40" y1="145.95" x2="173.31" y2="155.37" stroke="blue" stroke-width="2" stroke-linejoin="round" stroke-linecap="round" />
<line x1="169.78" y1="161.56" x2="155.55" y2="161.56" stroke="blue" stroke-width="2" stroke-linejoin="round" stroke-linecap="round" />
<line x1="143.63" y1="147.71" x2="145.81" y2="154.46" stroke="blue" stroke-width="2" stroke-linejoin="round" stroke-linecap="round" />
<line x1="143.63" y1="147.71" x2="139.17" y2="133.87" stroke="black" stroke-width="2" stroke-linejoin="round" stroke-linecap="round" />
<line x1="149.02" y1="145.98" x2="152.05" y2="155.40" stroke="blue" stroke-width="2" stroke-linejoin="round" stroke-linecap="round" />
<line x1="149.02" y1="145.98" x2="145.99" y2="136.56" stroke="black" stroke-width="2" stroke-linejoin="round" stroke-linecap="round" />
<line x1="150.92" y1="125.27" x2="139.17" y2="133.87" stroke="black" stroke-width="2" stroke-linejoin="round" stroke-linecap="round" />
<line x1="150.92" y1="125.27" x2="156.65" y2="121.08" stroke="#ebc80a" stroke-width="2" stroke-linejoin="round" stroke-linecap="round" />
<line x1="125.33" y1="129.38" x2="139.17" y2="133.87" stroke="black" stroke-width="2" stroke-linejoin="round" stroke-linecap="round" />
<line x1="125.33" y1="129.38" x2="118.59" y2="127.19" stroke="blue" stroke-width="2" stroke-linejoin="round" stroke-linecap="round" />
<line x1="100.69" y1="134.63" x2="105.95" y2="129.88" stroke="blue" stroke-width="2" stroke-linejoin="round" stroke-linecap="round" />
<line x1="100.69" y1="134.63" x2="89.88" y2="144.37" stroke="black" stroke-width="2" stroke-linejoin="round" stroke-linecap="round" />
<line x1="90.14" y1="159.19" x2="87.11" y2="144.95" stroke="black" stroke-width="2" stroke-linejoin="round" stroke-linecap="round" />
<line x1="90.14" y1="159.19" x2="91.41" y2="165.13" stroke="red" stroke-width="2" stroke-linejoin="round" stroke-linecap="round" />
<line x1="95.68" y1="158.01" x2="92.64" y2="143.78" stroke="black" stroke-width="2" stroke-linejoin="round" stroke-linecap="round" />
<line x1="95.68" y1="158.01" x2="96.94" y2="163.95" stroke="red" stroke-width="2" stroke-linejoin="round" stroke-linecap="round" />
<line x1="89.88" y1="144.37" x2="62.20" y2="135.38" stroke="black" stroke-width="2" stroke-linejoin="round" stroke-linecap="round" />
<line x1="57.66" y1="121.49" x2="62.20" y2="135.38" stroke="black" stroke-width="2" stroke-linejoin="round" stroke-linecap="round" />
<line x1="57.66" y1="121.49" x2="55.44" y2="114.68" stroke="#ebc80a" stroke-width="2" stroke-linejoin="round" stroke-linecap="round" />
<line x1="62.20" y1="135.38" x2="38.61" y2="152.50" stroke="black" stroke-width="2" stroke-linejoin="round" stroke-linecap="round" />
<line x1="55.10" y1="133.55" x2="39.06" y2="145.19" stroke="black" stroke-width="2" stroke-linejoin="round" stroke-linecap="round" />
<line x1="38.61" y1="152.50" x2="15.00" y2="135.42" stroke="black" stroke-width="2" stroke-linejoin="round" stroke-linecap="round" />
<line x1="15.00" y1="135.42" x2="24.02" y2="107.75" stroke="black" stroke-width="2" stroke-linejoin="round" stroke-linecap="round" />
<line x1="21.82" y1="132.74" x2="27.95" y2="113.93" stroke="black" stroke-width="2" stroke-linejoin="round" stroke-linecap="round" />
<line x1="38.57" y1="107.67" x2="24.02" y2="107.75" stroke="black" stroke-width="2" stroke-linejoin="round" stroke-linecap="round" />
<line x1="38.57" y1="107.67" x2="45.67" y2="107.63" stroke="#ebc80a" stroke-width="2" stroke-linejoin="round" stroke-linecap="round" />
<text x="177.24" y="165.52" fill="blue" font-family="Arial" font-size="12" font-style="normal" font-weight="normal" text-anchor="middle">  N </text>
<text x="148.09" y="165.52" fill="blue" font-family="Arial" font-size="12" font-style="normal" font-weight="normal" text-anchor="middle">  N </text>
<text x="162.67" y="120.63" fill="#ebc80a" font-family="Arial" font-size="12" font-style="normal" font-weight="normal" text-anchor="middle">  S </text>
<text x="111.50" y="128.85" fill="blue" font-family="Arial" font-size="12" font-style="normal" font-weight="normal" text-anchor="middle">  N </text>
<text x="111.50" y="119.25" fill="blue" font-family="Arial" font-size="12" font-style="normal" font-weight="normal" text-anchor="middle">  H </text>
<text x="95.94" y="176.79" fill="red" font-family="Arial" font-size="12" font-style="normal" font-weight="normal" text-anchor="middle">  O </text>
<text x="53.13" y="111.55" fill="#ebc80a" font-family="Arial" font-size="12" font-style="normal" font-weight="normal" text-anchor="middle">  S </text>
</svg>
