<?xml version="1.0" encoding="UTF-8"?>
<!DOCTYPE svg PUBLIC "-//W3C//DTD SVG 1.1//EN"
  "http://www.w3.org/Graphics/SVG/1.1/DTD/svg11.dtd">
<svg xmlns="http://www.w3.org/2000/svg" xmlns:xlink="http://www.w3.org/1999/xlink"   viewBox="0.00 0.00 300.00 300.00">
<!-- Created by OpenEye Scientific Software -->
<!-- Creation Date Fri Aug 17 12:10:55 2018 -->
<rect width="300.00" height="300.00" fill="white" />
<line x1="79.33" y1="76.93" x2="107.57" y2="93.12" stroke="black" stroke-width="2" stroke-linejoin="round" stroke-linecap="round" />
<line x1="86.94" y1="74.13" x2="106.14" y2="85.14" stroke="black" stroke-width="2" stroke-linejoin="round" stroke-linecap="round" />
<line x1="79.33" y1="76.93" x2="79.33" y2="44.21" stroke="black" stroke-width="2" stroke-linejoin="round" stroke-linecap="round" />
<line x1="79.33" y1="44.21" x2="107.57" y2="27.68" stroke="black" stroke-width="2" stroke-linejoin="round" stroke-linecap="round" />
<line x1="86.99" y1="46.92" x2="106.19" y2="35.68" stroke="black" stroke-width="2" stroke-linejoin="round" stroke-linecap="round" />
<line x1="107.57" y1="27.68" x2="135.81" y2="44.21" stroke="black" stroke-width="2" stroke-linejoin="round" stroke-linecap="round" />
<line x1="149.89" y1="35.96" x2="135.81" y2="44.21" stroke="black" stroke-width="2" stroke-linejoin="round" stroke-linecap="round" />
<line x1="149.89" y1="35.96" x2="156.75" y2="31.95" stroke="blue" stroke-width="2" stroke-linejoin="round" stroke-linecap="round" />
<line x1="153.03" y1="41.32" x2="143.45" y2="46.92" stroke="black" stroke-width="2" stroke-linejoin="round" stroke-linecap="round" />
<line x1="153.03" y1="41.32" x2="162.60" y2="35.71" stroke="blue" stroke-width="2" stroke-linejoin="round" stroke-linecap="round" />
<line x1="135.81" y1="44.21" x2="135.85" y2="76.93" stroke="black" stroke-width="2" stroke-linejoin="round" stroke-linecap="round" />
<line x1="135.85" y1="76.93" x2="107.57" y2="93.12" stroke="black" stroke-width="2" stroke-linejoin="round" stroke-linecap="round" />
<line x1="135.85" y1="76.93" x2="164.05" y2="93.16" stroke="black" stroke-width="2" stroke-linejoin="round" stroke-linecap="round" />
<line x1="143.46" y1="74.14" x2="162.64" y2="85.18" stroke="black" stroke-width="2" stroke-linejoin="round" stroke-linecap="round" />
<line x1="178.22" y1="85.00" x2="164.05" y2="93.16" stroke="black" stroke-width="2" stroke-linejoin="round" stroke-linecap="round" />
<line x1="178.22" y1="85.00" x2="185.14" y2="81.02" stroke="blue" stroke-width="2" stroke-linejoin="round" stroke-linecap="round" />
<line x1="192.37" y1="60.49" x2="192.38" y2="68.48" stroke="blue" stroke-width="2" stroke-linejoin="round" stroke-linecap="round" />
<line x1="192.37" y1="60.49" x2="192.35" y2="44.13" stroke="black" stroke-width="2" stroke-linejoin="round" stroke-linecap="round" />
<line x1="186.17" y1="60.50" x2="186.18" y2="71.62" stroke="blue" stroke-width="2" stroke-linejoin="round" stroke-linecap="round" />
<line x1="186.17" y1="60.50" x2="186.15" y2="49.37" stroke="black" stroke-width="2" stroke-linejoin="round" stroke-linecap="round" />
<line x1="178.16" y1="35.93" x2="192.35" y2="44.13" stroke="black" stroke-width="2" stroke-linejoin="round" stroke-linecap="round" />
<line x1="178.16" y1="35.93" x2="171.21" y2="31.91" stroke="blue" stroke-width="2" stroke-linejoin="round" stroke-linecap="round" />
<line x1="164.05" y1="109.43" x2="164.05" y2="93.16" stroke="black" stroke-width="2" stroke-linejoin="round" stroke-linecap="round" />
<line x1="164.05" y1="109.43" x2="164.05" y2="117.32" stroke="blue" stroke-width="2" stroke-linejoin="round" stroke-linecap="round" />
<line x1="178.14" y1="133.83" x2="171.30" y2="129.88" stroke="blue" stroke-width="2" stroke-linejoin="round" stroke-linecap="round" />
<line x1="178.14" y1="133.83" x2="192.23" y2="141.97" stroke="black" stroke-width="2" stroke-linejoin="round" stroke-linecap="round" />
<line x1="192.23" y1="141.97" x2="192.22" y2="174.50" stroke="black" stroke-width="2" stroke-linejoin="round" stroke-linecap="round" />
<line x1="192.22" y1="174.50" x2="220.52" y2="190.90" stroke="black" stroke-width="2" stroke-linejoin="round" stroke-linecap="round" />
<line x1="193.64" y1="182.50" x2="212.88" y2="193.64" stroke="black" stroke-width="2" stroke-linejoin="round" stroke-linecap="round" />
<line x1="192.22" y1="174.50" x2="164.07" y2="190.81" stroke="black" stroke-width="2" stroke-linejoin="round" stroke-linecap="round" />
<line x1="164.07" y1="190.81" x2="163.92" y2="223.35" stroke="black" stroke-width="2" stroke-linejoin="round" stroke-linecap="round" />
<line x1="170.25" y1="196.04" x2="170.15" y2="218.17" stroke="black" stroke-width="2" stroke-linejoin="round" stroke-linecap="round" />
<line x1="163.92" y1="223.35" x2="192.22" y2="239.74" stroke="black" stroke-width="2" stroke-linejoin="round" stroke-linecap="round" />
<line x1="192.22" y1="239.74" x2="220.67" y2="223.60" stroke="black" stroke-width="2" stroke-linejoin="round" stroke-linecap="round" />
<line x1="193.71" y1="231.76" x2="213.05" y2="220.79" stroke="black" stroke-width="2" stroke-linejoin="round" stroke-linecap="round" />
<line x1="220.67" y1="223.60" x2="220.52" y2="190.90" stroke="black" stroke-width="2" stroke-linejoin="round" stroke-linecap="round" />
<line x1="192.15" y1="256.01" x2="192.22" y2="239.74" stroke="black" stroke-width="2" stroke-linejoin="round" stroke-linecap="round" />
<line x1="192.15" y1="256.01" x2="192.13" y2="261.54" stroke="#82d700" stroke-width="2" stroke-linejoin="round" stroke-linecap="round" />
<text x="192.39" y="81.47" fill="blue" font-family="Arial" font-size="14" font-style="normal" font-weight="normal" text-anchor="middle">  N </text>
<text x="163.97" y="32.34" fill="blue" font-family="Arial" font-size="14" font-style="normal" font-weight="normal" text-anchor="middle">  N </text>
<text x="164.05" y="130.31" fill="blue" font-family="Arial" font-size="14" font-style="normal" font-weight="normal" text-anchor="middle">  N </text>
<text x="154.25" y="130.31" fill="blue" font-family="Arial" font-size="14" font-style="normal" font-weight="normal" text-anchor="middle">  H </text>
<text x="192.08" y="276.90" fill="#82d700" font-family="Arial" font-size="14" font-style="normal" font-weight="normal" text-anchor="middle">  Cl </text>
</svg>
