<?xml version="1.0" encoding="UTF-8"?>
<!DOCTYPE svg PUBLIC "-//W3C//DTD SVG 1.1//EN"
  "http://www.w3.org/Graphics/SVG/1.1/DTD/svg11.dtd">
<svg xmlns="http://www.w3.org/2000/svg" xmlns:xlink="http://www.w3.org/1999/xlink"   viewBox="0.00 0.00 300.00 300.00">
<!-- Created by OpenEye Scientific Software -->
<!-- Creation Date Fri Aug 17 12:10:55 2018 -->
<rect width="300.00" height="300.00" fill="white" />
<line x1="103.44" y1="259.27" x2="103.44" y2="220.63" stroke="black" stroke-width="2" stroke-linejoin="round" stroke-linecap="round" />
<line x1="110.57" y1="253.09" x2="110.57" y2="226.81" stroke="black" stroke-width="2" stroke-linejoin="round" stroke-linecap="round" />
<line x1="103.44" y1="259.27" x2="136.80" y2="278.40" stroke="black" stroke-width="2" stroke-linejoin="round" stroke-linecap="round" />
<line x1="136.80" y1="278.40" x2="169.98" y2="259.27" stroke="black" stroke-width="2" stroke-linejoin="round" stroke-linecap="round" />
<line x1="138.55" y1="269.16" x2="161.11" y2="256.16" stroke="black" stroke-width="2" stroke-linejoin="round" stroke-linecap="round" />
<line x1="169.98" y1="259.27" x2="170.15" y2="220.63" stroke="black" stroke-width="2" stroke-linejoin="round" stroke-linecap="round" />
<line x1="169.98" y1="259.27" x2="203.19" y2="278.63" stroke="black" stroke-width="2" stroke-linejoin="round" stroke-linecap="round" />
<line x1="203.19" y1="278.63" x2="236.77" y2="259.55" stroke="black" stroke-width="2" stroke-linejoin="round" stroke-linecap="round" />
<line x1="205.04" y1="269.38" x2="227.87" y2="256.41" stroke="black" stroke-width="2" stroke-linejoin="round" stroke-linecap="round" />
<line x1="236.77" y1="259.55" x2="236.93" y2="220.91" stroke="black" stroke-width="2" stroke-linejoin="round" stroke-linecap="round" />
<line x1="220.22" y1="211.13" x2="236.93" y2="220.91" stroke="black" stroke-width="2" stroke-linejoin="round" stroke-linecap="round" />
<line x1="220.22" y1="211.13" x2="211.52" y2="206.03" stroke="blue" stroke-width="2" stroke-linejoin="round" stroke-linecap="round" />
<line x1="216.62" y1="217.28" x2="227.98" y2="223.93" stroke="black" stroke-width="2" stroke-linejoin="round" stroke-linecap="round" />
<line x1="216.62" y1="217.28" x2="205.26" y2="210.62" stroke="blue" stroke-width="2" stroke-linejoin="round" stroke-linecap="round" />
<line x1="186.83" y1="210.98" x2="195.48" y2="205.98" stroke="blue" stroke-width="2" stroke-linejoin="round" stroke-linecap="round" />
<line x1="186.83" y1="210.98" x2="170.15" y2="220.63" stroke="black" stroke-width="2" stroke-linejoin="round" stroke-linecap="round" />
<line x1="170.15" y1="220.63" x2="136.80" y2="201.11" stroke="black" stroke-width="2" stroke-linejoin="round" stroke-linecap="round" />
<line x1="161.21" y1="223.66" x2="138.53" y2="210.38" stroke="black" stroke-width="2" stroke-linejoin="round" stroke-linecap="round" />
<line x1="136.80" y1="201.11" x2="103.44" y2="220.63" stroke="black" stroke-width="2" stroke-linejoin="round" stroke-linecap="round" />
<line x1="136.80" y1="181.95" x2="136.80" y2="201.11" stroke="black" stroke-width="2" stroke-linejoin="round" stroke-linecap="round" />
<line x1="136.80" y1="181.95" x2="136.80" y2="172.08" stroke="blue" stroke-width="2" stroke-linejoin="round" stroke-linecap="round" />
<line x1="120.21" y1="153.22" x2="128.76" y2="158.16" stroke="blue" stroke-width="2" stroke-linejoin="round" stroke-linecap="round" />
<line x1="120.21" y1="153.22" x2="103.62" y2="143.65" stroke="black" stroke-width="2" stroke-linejoin="round" stroke-linecap="round" />
<line x1="85.25" y1="150.14" x2="101.84" y2="140.56" stroke="black" stroke-width="2" stroke-linejoin="round" stroke-linecap="round" />
<line x1="85.25" y1="150.14" x2="77.87" y2="154.40" stroke="red" stroke-width="2" stroke-linejoin="round" stroke-linecap="round" />
<line x1="88.82" y1="156.31" x2="105.40" y2="146.73" stroke="black" stroke-width="2" stroke-linejoin="round" stroke-linecap="round" />
<line x1="88.82" y1="156.31" x2="81.44" y2="160.57" stroke="red" stroke-width="2" stroke-linejoin="round" stroke-linecap="round" />
<line x1="103.62" y1="143.65" x2="103.62" y2="105.34" stroke="black" stroke-width="2" stroke-linejoin="round" stroke-linecap="round" />
<line x1="103.62" y1="105.34" x2="70.30" y2="86.04" stroke="black" stroke-width="2" stroke-linejoin="round" stroke-linecap="round" />
<line x1="101.86" y1="96.09" x2="79.21" y2="82.96" stroke="black" stroke-width="2" stroke-linejoin="round" stroke-linecap="round" />
<line x1="103.62" y1="105.34" x2="136.77" y2="86.14" stroke="black" stroke-width="2" stroke-linejoin="round" stroke-linecap="round" />
<line x1="136.77" y1="86.14" x2="136.94" y2="47.83" stroke="black" stroke-width="2" stroke-linejoin="round" stroke-linecap="round" />
<line x1="129.67" y1="79.98" x2="129.78" y2="53.93" stroke="black" stroke-width="2" stroke-linejoin="round" stroke-linecap="round" />
<line x1="136.94" y1="47.83" x2="103.62" y2="28.53" stroke="black" stroke-width="2" stroke-linejoin="round" stroke-linecap="round" />
<line x1="86.87" y1="38.04" x2="103.62" y2="28.53" stroke="black" stroke-width="2" stroke-linejoin="round" stroke-linecap="round" />
<line x1="86.87" y1="38.04" x2="78.20" y2="42.96" stroke="blue" stroke-width="2" stroke-linejoin="round" stroke-linecap="round" />
<line x1="90.39" y1="44.24" x2="101.78" y2="37.77" stroke="black" stroke-width="2" stroke-linejoin="round" stroke-linecap="round" />
<line x1="90.39" y1="44.24" x2="79.01" y2="50.70" stroke="blue" stroke-width="2" stroke-linejoin="round" stroke-linecap="round" />
<line x1="70.22" y1="66.79" x2="70.17" y2="56.82" stroke="blue" stroke-width="2" stroke-linejoin="round" stroke-linecap="round" />
<line x1="70.22" y1="66.79" x2="70.30" y2="86.04" stroke="black" stroke-width="2" stroke-linejoin="round" stroke-linecap="round" />
<line x1="153.55" y1="38.31" x2="136.94" y2="47.83" stroke="black" stroke-width="2" stroke-linejoin="round" stroke-linecap="round" />
<line x1="153.55" y1="38.31" x2="158.87" y2="35.26" stroke="#a00" stroke-width="2" stroke-linejoin="round" stroke-linecap="round" />
<text x="203.52" y="206.62" fill="blue" font-family="Arial" font-size="16" font-style="normal" font-weight="normal" text-anchor="middle">  N </text>
<text x="136.80" y="168.08" fill="blue" font-family="Arial" font-size="16" font-style="normal" font-weight="normal" text-anchor="middle">  N </text>
<text x="148.00" y="168.08" fill="blue" font-family="Arial" font-size="16" font-style="normal" font-weight="normal" text-anchor="middle">  H </text>
<text x="70.45" y="168.08" fill="red" font-family="Arial" font-size="16" font-style="normal" font-weight="normal" text-anchor="middle">  O </text>
<text x="70.13" y="52.82" fill="blue" font-family="Arial" font-size="16" font-style="normal" font-weight="normal" text-anchor="middle">  N </text>
<text x="170.16" y="34.06" fill="#a00" font-family="Arial" font-size="16" font-style="normal" font-weight="normal" text-anchor="middle">  Br </text>
</svg>
