<?xml version="1.0" encoding="UTF-8"?>
<!DOCTYPE svg PUBLIC "-//W3C//DTD SVG 1.1//EN"
  "http://www.w3.org/Graphics/SVG/1.1/DTD/svg11.dtd">
<svg xmlns="http://www.w3.org/2000/svg" xmlns:xlink="http://www.w3.org/1999/xlink"   viewBox="0.00 0.00 300.00 300.00">
<!-- Created by OpenEye Scientific Software -->
<!-- Creation Date Fri Aug 17 12:10:55 2018 -->
<rect width="300.00" height="300.00" fill="white" />
<line x1="200.14" y1="278.63" x2="166.70" y2="259.46" stroke="black" stroke-width="2" stroke-linejoin="round" stroke-linecap="round" />
<line x1="198.34" y1="269.38" x2="175.60" y2="256.34" stroke="black" stroke-width="2" stroke-linejoin="round" stroke-linecap="round" />
<line x1="200.14" y1="278.63" x2="233.23" y2="259.27" stroke="black" stroke-width="2" stroke-linejoin="round" stroke-linecap="round" />
<line x1="233.23" y1="259.27" x2="233.24" y2="220.93" stroke="black" stroke-width="2" stroke-linejoin="round" stroke-linecap="round" />
<line x1="226.10" y1="253.13" x2="226.10" y2="227.06" stroke="black" stroke-width="2" stroke-linejoin="round" stroke-linecap="round" />
<line x1="233.24" y1="220.93" x2="199.80" y2="201.75" stroke="black" stroke-width="2" stroke-linejoin="round" stroke-linecap="round" />
<line x1="199.80" y1="201.75" x2="166.37" y2="220.92" stroke="black" stroke-width="2" stroke-linejoin="round" stroke-linecap="round" />
<line x1="198.00" y1="211.01" x2="175.26" y2="224.04" stroke="black" stroke-width="2" stroke-linejoin="round" stroke-linecap="round" />
<line x1="166.37" y1="220.92" x2="166.70" y2="259.46" stroke="black" stroke-width="2" stroke-linejoin="round" stroke-linecap="round" />
<line x1="199.80" y1="201.75" x2="199.80" y2="163.41" stroke="black" stroke-width="2" stroke-linejoin="round" stroke-linecap="round" />
<line x1="183.20" y1="153.82" x2="199.80" y2="163.41" stroke="black" stroke-width="2" stroke-linejoin="round" stroke-linecap="round" />
<line x1="183.20" y1="153.82" x2="174.64" y2="148.87" stroke="blue" stroke-width="2" stroke-linejoin="round" stroke-linecap="round" />
<line x1="166.60" y1="125.06" x2="166.60" y2="134.95" stroke="blue" stroke-width="2" stroke-linejoin="round" stroke-linecap="round" />
<line x1="166.60" y1="125.06" x2="166.60" y2="105.89" stroke="black" stroke-width="2" stroke-linejoin="round" stroke-linecap="round" />
<line x1="183.30" y1="96.28" x2="166.60" y2="105.89" stroke="black" stroke-width="2" stroke-linejoin="round" stroke-linecap="round" />
<line x1="183.30" y1="96.28" x2="191.96" y2="91.30" stroke="blue" stroke-width="2" stroke-linejoin="round" stroke-linecap="round" />
<line x1="179.74" y1="90.10" x2="168.39" y2="96.63" stroke="black" stroke-width="2" stroke-linejoin="round" stroke-linecap="round" />
<line x1="179.74" y1="90.10" x2="191.10" y2="83.56" stroke="blue" stroke-width="2" stroke-linejoin="round" stroke-linecap="round" />
<line x1="166.60" y1="105.89" x2="133.37" y2="86.76" stroke="black" stroke-width="2" stroke-linejoin="round" stroke-linecap="round" />
<line x1="133.37" y1="86.76" x2="133.32" y2="48.20" stroke="black" stroke-width="2" stroke-linejoin="round" stroke-linecap="round" />
<line x1="140.50" y1="80.58" x2="140.46" y2="54.36" stroke="black" stroke-width="2" stroke-linejoin="round" stroke-linecap="round" />
<line x1="133.37" y1="86.76" x2="100.04" y2="105.84" stroke="black" stroke-width="2" stroke-linejoin="round" stroke-linecap="round" />
<line x1="100.04" y1="105.84" x2="66.76" y2="86.76" stroke="black" stroke-width="2" stroke-linejoin="round" stroke-linecap="round" />
<line x1="98.27" y1="96.60" x2="75.64" y2="83.62" stroke="black" stroke-width="2" stroke-linejoin="round" stroke-linecap="round" />
<line x1="66.76" y1="86.76" x2="66.76" y2="48.20" stroke="black" stroke-width="2" stroke-linejoin="round" stroke-linecap="round" />
<line x1="66.76" y1="48.20" x2="100.04" y2="28.73" stroke="black" stroke-width="2" stroke-linejoin="round" stroke-linecap="round" />
<line x1="75.69" y1="51.24" x2="98.32" y2="38.00" stroke="black" stroke-width="2" stroke-linejoin="round" stroke-linecap="round" />
<line x1="100.04" y1="28.73" x2="133.32" y2="48.20" stroke="black" stroke-width="2" stroke-linejoin="round" stroke-linecap="round" />
<line x1="149.91" y1="38.49" x2="133.32" y2="48.20" stroke="black" stroke-width="2" stroke-linejoin="round" stroke-linecap="round" />
<line x1="149.91" y1="38.49" x2="158.49" y2="33.46" stroke="blue" stroke-width="2" stroke-linejoin="round" stroke-linecap="round" />
<line x1="183.23" y1="38.44" x2="174.54" y2="33.42" stroke="blue" stroke-width="2" stroke-linejoin="round" stroke-linecap="round" />
<line x1="183.23" y1="38.44" x2="199.95" y2="48.11" stroke="black" stroke-width="2" stroke-linejoin="round" stroke-linecap="round" />
<line x1="179.65" y1="44.62" x2="168.28" y2="38.05" stroke="blue" stroke-width="2" stroke-linejoin="round" stroke-linecap="round" />
<line x1="179.65" y1="44.62" x2="191.03" y2="51.20" stroke="black" stroke-width="2" stroke-linejoin="round" stroke-linecap="round" />
<line x1="199.97" y1="67.39" x2="199.95" y2="48.11" stroke="black" stroke-width="2" stroke-linejoin="round" stroke-linecap="round" />
<line x1="199.97" y1="67.39" x2="199.99" y2="77.39" stroke="blue" stroke-width="2" stroke-linejoin="round" stroke-linecap="round" />
<text x="166.60" y="149.51" fill="blue" font-family="Arial" font-size="16" font-style="normal" font-weight="normal" text-anchor="middle">  N </text>
<text x="155.40" y="149.51" fill="blue" font-family="Arial" font-size="16" font-style="normal" font-weight="normal" text-anchor="middle">  H </text>
<text x="166.50" y="34.05" fill="blue" font-family="Arial" font-size="16" font-style="normal" font-weight="normal" text-anchor="middle">  N </text>
<text x="200.00" y="91.95" fill="blue" font-family="Arial" font-size="16" font-style="normal" font-weight="normal" text-anchor="middle">  N </text>
</svg>
