<?xml version="1.0" encoding="UTF-8"?>
<!DOCTYPE svg PUBLIC "-//W3C//DTD SVG 1.1//EN"
  "http://www.w3.org/Graphics/SVG/1.1/DTD/svg11.dtd">
<svg xmlns="http://www.w3.org/2000/svg" xmlns:xlink="http://www.w3.org/1999/xlink"   viewBox="0.00 0.00 300.00 300.00">
<!-- Created by OpenEye Scientific Software -->
<!-- Creation Date Fri Aug 17 12:10:55 2018 -->
<rect width="300.00" height="300.00" fill="white" />
<line x1="57.11" y1="269.13" x2="40.42" y2="278.63" stroke="black" stroke-width="2" stroke-linejoin="round" stroke-linecap="round" />
<line x1="57.11" y1="269.13" x2="64.56" y2="264.89" stroke="red" stroke-width="2" stroke-linejoin="round" stroke-linecap="round" />
<line x1="73.91" y1="240.43" x2="73.86" y2="249.00" stroke="red" stroke-width="2" stroke-linejoin="round" stroke-linecap="round" />
<line x1="73.91" y1="240.43" x2="74.03" y2="221.22" stroke="black" stroke-width="2" stroke-linejoin="round" stroke-linecap="round" />
<line x1="74.03" y1="221.22" x2="107.63" y2="202.22" stroke="black" stroke-width="2" stroke-linejoin="round" stroke-linecap="round" />
<line x1="75.89" y1="211.97" x2="98.74" y2="199.04" stroke="black" stroke-width="2" stroke-linejoin="round" stroke-linecap="round" />
<line x1="74.03" y1="221.22" x2="40.65" y2="201.82" stroke="black" stroke-width="2" stroke-linejoin="round" stroke-linecap="round" />
<line x1="40.65" y1="201.82" x2="40.88" y2="163.42" stroke="black" stroke-width="2" stroke-linejoin="round" stroke-linecap="round" />
<line x1="47.83" y1="195.72" x2="47.99" y2="169.60" stroke="black" stroke-width="2" stroke-linejoin="round" stroke-linecap="round" />
<line x1="40.88" y1="163.42" x2="74.14" y2="144.22" stroke="black" stroke-width="2" stroke-linejoin="round" stroke-linecap="round" />
<line x1="74.14" y1="144.22" x2="107.52" y2="163.62" stroke="black" stroke-width="2" stroke-linejoin="round" stroke-linecap="round" />
<line x1="75.89" y1="153.50" x2="98.59" y2="166.69" stroke="black" stroke-width="2" stroke-linejoin="round" stroke-linecap="round" />
<line x1="107.52" y1="163.62" x2="107.63" y2="202.22" stroke="black" stroke-width="2" stroke-linejoin="round" stroke-linecap="round" />
<line x1="124.15" y1="154.02" x2="107.52" y2="163.62" stroke="black" stroke-width="2" stroke-linejoin="round" stroke-linecap="round" />
<line x1="124.15" y1="154.02" x2="132.74" y2="149.06" stroke="blue" stroke-width="2" stroke-linejoin="round" stroke-linecap="round" />
<line x1="140.78" y1="125.22" x2="140.78" y2="135.14" stroke="blue" stroke-width="2" stroke-linejoin="round" stroke-linecap="round" />
<line x1="140.78" y1="125.22" x2="140.78" y2="106.02" stroke="black" stroke-width="2" stroke-linejoin="round" stroke-linecap="round" />
<line x1="157.51" y1="96.39" x2="140.78" y2="106.02" stroke="black" stroke-width="2" stroke-linejoin="round" stroke-linecap="round" />
<line x1="157.51" y1="96.39" x2="166.19" y2="91.39" stroke="blue" stroke-width="2" stroke-linejoin="round" stroke-linecap="round" />
<line x1="153.94" y1="90.20" x2="142.57" y2="96.74" stroke="black" stroke-width="2" stroke-linejoin="round" stroke-linecap="round" />
<line x1="153.94" y1="90.20" x2="165.32" y2="83.65" stroke="blue" stroke-width="2" stroke-linejoin="round" stroke-linecap="round" />
<line x1="140.78" y1="106.02" x2="107.50" y2="86.85" stroke="black" stroke-width="2" stroke-linejoin="round" stroke-linecap="round" />
<line x1="107.50" y1="86.85" x2="107.45" y2="48.23" stroke="black" stroke-width="2" stroke-linejoin="round" stroke-linecap="round" />
<line x1="114.63" y1="80.67" x2="114.60" y2="54.40" stroke="black" stroke-width="2" stroke-linejoin="round" stroke-linecap="round" />
<line x1="107.50" y1="86.85" x2="74.11" y2="105.97" stroke="black" stroke-width="2" stroke-linejoin="round" stroke-linecap="round" />
<line x1="74.11" y1="105.97" x2="40.78" y2="86.85" stroke="black" stroke-width="2" stroke-linejoin="round" stroke-linecap="round" />
<line x1="72.34" y1="96.71" x2="49.67" y2="83.71" stroke="black" stroke-width="2" stroke-linejoin="round" stroke-linecap="round" />
<line x1="40.78" y1="86.85" x2="40.78" y2="48.23" stroke="black" stroke-width="2" stroke-linejoin="round" stroke-linecap="round" />
<line x1="40.78" y1="48.23" x2="74.11" y2="28.73" stroke="black" stroke-width="2" stroke-linejoin="round" stroke-linecap="round" />
<line x1="49.72" y1="51.28" x2="72.39" y2="38.02" stroke="black" stroke-width="2" stroke-linejoin="round" stroke-linecap="round" />
<line x1="74.11" y1="28.73" x2="107.45" y2="48.23" stroke="black" stroke-width="2" stroke-linejoin="round" stroke-linecap="round" />
<line x1="124.06" y1="38.50" x2="107.45" y2="48.23" stroke="black" stroke-width="2" stroke-linejoin="round" stroke-linecap="round" />
<line x1="124.06" y1="38.50" x2="132.67" y2="33.46" stroke="blue" stroke-width="2" stroke-linejoin="round" stroke-linecap="round" />
<line x1="157.43" y1="38.46" x2="148.72" y2="33.42" stroke="blue" stroke-width="2" stroke-linejoin="round" stroke-linecap="round" />
<line x1="157.43" y1="38.46" x2="174.18" y2="48.15" stroke="black" stroke-width="2" stroke-linejoin="round" stroke-linecap="round" />
<line x1="153.86" y1="44.65" x2="142.47" y2="38.06" stroke="blue" stroke-width="2" stroke-linejoin="round" stroke-linecap="round" />
<line x1="153.86" y1="44.65" x2="165.25" y2="51.23" stroke="black" stroke-width="2" stroke-linejoin="round" stroke-linecap="round" />
<line x1="174.21" y1="67.46" x2="174.18" y2="48.15" stroke="black" stroke-width="2" stroke-linejoin="round" stroke-linecap="round" />
<line x1="174.21" y1="67.46" x2="174.22" y2="77.49" stroke="blue" stroke-width="2" stroke-linejoin="round" stroke-linecap="round" />
<text x="73.80" y="264.91" fill="red" font-family="Arial" font-size="16" font-style="normal" font-weight="normal" text-anchor="middle">  O </text>
<text x="140.78" y="149.70" fill="blue" font-family="Arial" font-size="16" font-style="normal" font-weight="normal" text-anchor="middle">  N </text>
<text x="151.98" y="149.70" fill="blue" font-family="Arial" font-size="16" font-style="normal" font-weight="normal" text-anchor="middle">  H </text>
<text x="140.68" y="34.05" fill="blue" font-family="Arial" font-size="16" font-style="normal" font-weight="normal" text-anchor="middle">  N </text>
<text x="174.23" y="92.05" fill="blue" font-family="Arial" font-size="16" font-style="normal" font-weight="normal" text-anchor="middle">  N </text>
<text x="251.04" y="158.96" fill="#82d700" font-family="Arial" font-size="16" font-style="normal" font-weight="normal" text-anchor="middle">  Cl </text>
<text x="237.76" y="158.96" fill="#82d700" font-family="Arial" font-size="16" font-style="normal" font-weight="normal" text-anchor="middle">  H </text>
</svg>
