<?xml version="1.0" encoding="UTF-8"?>
<!DOCTYPE svg PUBLIC "-//W3C//DTD SVG 1.1//EN"
  "http://www.w3.org/Graphics/SVG/1.1/DTD/svg11.dtd">
<svg xmlns="http://www.w3.org/2000/svg" xmlns:xlink="http://www.w3.org/1999/xlink"   viewBox="0.00 0.00 300.00 300.00">
<!-- Created by OpenEye Scientific Software -->
<!-- Creation Date Fri Aug 17 12:10:55 2018 -->
<rect width="300.00" height="300.00" fill="white" />
<line x1="71.90" y1="195.32" x2="110.95" y2="217.57" stroke="black" stroke-width="2" stroke-linejoin="round" stroke-linecap="round" />
<line x1="110.95" y1="217.57" x2="149.88" y2="194.64" stroke="black" stroke-width="2" stroke-linejoin="round" stroke-linecap="round" />
<line x1="121.34" y1="220.96" x2="147.81" y2="205.37" stroke="black" stroke-width="2" stroke-linejoin="round" stroke-linecap="round" />
<line x1="110.95" y1="217.57" x2="111.08" y2="262.75" stroke="black" stroke-width="2" stroke-linejoin="round" stroke-linecap="round" />
<line x1="111.08" y1="262.75" x2="150.14" y2="285.00" stroke="black" stroke-width="2" stroke-linejoin="round" stroke-linecap="round" />
<line x1="121.39" y1="259.19" x2="147.95" y2="274.32" stroke="black" stroke-width="2" stroke-linejoin="round" stroke-linecap="round" />
<line x1="150.14" y1="285.00" x2="189.07" y2="262.53" stroke="black" stroke-width="2" stroke-linejoin="round" stroke-linecap="round" />
<line x1="189.07" y1="262.53" x2="188.94" y2="217.35" stroke="black" stroke-width="2" stroke-linejoin="round" stroke-linecap="round" />
<line x1="180.85" y1="255.32" x2="180.77" y2="224.60" stroke="black" stroke-width="2" stroke-linejoin="round" stroke-linecap="round" />
<line x1="188.94" y1="217.35" x2="149.88" y2="194.64" stroke="black" stroke-width="2" stroke-linejoin="round" stroke-linecap="round" />
<line x1="208.40" y1="206.11" x2="188.94" y2="217.35" stroke="black" stroke-width="2" stroke-linejoin="round" stroke-linecap="round" />
<line x1="208.40" y1="206.11" x2="218.64" y2="200.20" stroke="blue" stroke-width="2" stroke-linejoin="round" stroke-linecap="round" />
<line x1="227.87" y1="172.40" x2="227.86" y2="184.23" stroke="blue" stroke-width="2" stroke-linejoin="round" stroke-linecap="round" />
<line x1="227.87" y1="172.40" x2="227.87" y2="149.93" stroke="black" stroke-width="2" stroke-linejoin="round" stroke-linecap="round" />
<line x1="247.44" y1="138.67" x2="227.87" y2="149.93" stroke="black" stroke-width="2" stroke-linejoin="round" stroke-linecap="round" />
<line x1="247.44" y1="138.67" x2="257.79" y2="132.71" stroke="blue" stroke-width="2" stroke-linejoin="round" stroke-linecap="round" />
<line x1="243.36" y1="131.57" x2="230.05" y2="139.22" stroke="black" stroke-width="2" stroke-linejoin="round" stroke-linecap="round" />
<line x1="243.36" y1="131.57" x2="256.67" y2="123.91" stroke="blue" stroke-width="2" stroke-linejoin="round" stroke-linecap="round" />
<line x1="227.87" y1="149.93" x2="188.91" y2="127.50" stroke="black" stroke-width="2" stroke-linejoin="round" stroke-linecap="round" />
<line x1="188.91" y1="127.50" x2="188.85" y2="82.31" stroke="black" stroke-width="2" stroke-linejoin="round" stroke-linecap="round" />
<line x1="197.09" y1="120.26" x2="197.05" y2="89.53" stroke="black" stroke-width="2" stroke-linejoin="round" stroke-linecap="round" />
<line x1="188.91" y1="127.50" x2="149.84" y2="149.87" stroke="black" stroke-width="2" stroke-linejoin="round" stroke-linecap="round" />
<line x1="149.84" y1="149.87" x2="110.83" y2="127.50" stroke="black" stroke-width="2" stroke-linejoin="round" stroke-linecap="round" />
<line x1="147.68" y1="139.19" x2="121.15" y2="123.98" stroke="black" stroke-width="2" stroke-linejoin="round" stroke-linecap="round" />
<line x1="110.83" y1="127.50" x2="110.83" y2="82.31" stroke="black" stroke-width="2" stroke-linejoin="round" stroke-linecap="round" />
<line x1="110.83" y1="82.31" x2="149.84" y2="59.48" stroke="black" stroke-width="2" stroke-linejoin="round" stroke-linecap="round" />
<line x1="121.21" y1="85.72" x2="147.74" y2="70.20" stroke="black" stroke-width="2" stroke-linejoin="round" stroke-linecap="round" />
<line x1="149.84" y1="59.48" x2="188.85" y2="82.31" stroke="black" stroke-width="2" stroke-linejoin="round" stroke-linecap="round" />
<line x1="208.30" y1="70.92" x2="188.85" y2="82.31" stroke="black" stroke-width="2" stroke-linejoin="round" stroke-linecap="round" />
<line x1="208.30" y1="70.92" x2="218.56" y2="64.91" stroke="blue" stroke-width="2" stroke-linejoin="round" stroke-linecap="round" />
<line x1="247.35" y1="70.87" x2="236.97" y2="64.86" stroke="blue" stroke-width="2" stroke-linejoin="round" stroke-linecap="round" />
<line x1="247.35" y1="70.87" x2="266.96" y2="82.20" stroke="black" stroke-width="2" stroke-linejoin="round" stroke-linecap="round" />
<line x1="243.25" y1="77.96" x2="229.92" y2="70.25" stroke="blue" stroke-width="2" stroke-linejoin="round" stroke-linecap="round" />
<line x1="243.25" y1="77.96" x2="256.58" y2="85.67" stroke="black" stroke-width="2" stroke-linejoin="round" stroke-linecap="round" />
<line x1="266.99" y1="104.80" x2="266.96" y2="82.20" stroke="black" stroke-width="2" stroke-linejoin="round" stroke-linecap="round" />
<line x1="266.99" y1="104.80" x2="267.00" y2="116.76" stroke="blue" stroke-width="2" stroke-linejoin="round" stroke-linecap="round" />
<line x1="91.34" y1="71.13" x2="110.83" y2="82.31" stroke="black" stroke-width="2" stroke-linejoin="round" stroke-linecap="round" />
<line x1="91.34" y1="71.13" x2="82.47" y2="66.04" stroke="red" stroke-width="2" stroke-linejoin="round" stroke-linecap="round" />
<line x1="71.78" y1="37.47" x2="71.81" y2="47.70" stroke="red" stroke-width="2" stroke-linejoin="round" stroke-linecap="round" />
<line x1="71.78" y1="37.47" x2="71.71" y2="15.00" stroke="black" stroke-width="2" stroke-linejoin="round" stroke-linecap="round" />
<line x1="91.39" y1="138.77" x2="110.83" y2="127.50" stroke="black" stroke-width="2" stroke-linejoin="round" stroke-linecap="round" />
<line x1="91.39" y1="138.77" x2="82.54" y2="143.89" stroke="red" stroke-width="2" stroke-linejoin="round" stroke-linecap="round" />
<line x1="52.46" y1="138.83" x2="61.32" y2="143.93" stroke="red" stroke-width="2" stroke-linejoin="round" stroke-linecap="round" />
<line x1="52.46" y1="138.83" x2="32.98" y2="127.62" stroke="black" stroke-width="2" stroke-linejoin="round" stroke-linecap="round" />
<text x="227.86" y="201.15" fill="blue" font-family="Arial" font-size="19" font-style="normal" font-weight="normal" text-anchor="middle">  N </text>
<text x="241.16" y="201.15" fill="blue" font-family="Arial" font-size="19" font-style="normal" font-weight="normal" text-anchor="middle">  H </text>
<text x="227.75" y="65.80" fill="blue" font-family="Arial" font-size="19" font-style="normal" font-weight="normal" text-anchor="middle">  N </text>
<text x="267.02" y="133.67" fill="blue" font-family="Arial" font-size="19" font-style="normal" font-weight="normal" text-anchor="middle">  N </text>
<text x="71.84" y="66.22" fill="red" font-family="Arial" font-size="19" font-style="normal" font-weight="normal" text-anchor="middle">  O </text>
<text x="71.94" y="156.31" fill="red" font-family="Arial" font-size="19" font-style="normal" font-weight="normal" text-anchor="middle">  O </text>
</svg>
