<?xml version="1.0" encoding="UTF-8"?>
<!DOCTYPE svg PUBLIC "-//W3C//DTD SVG 1.1//EN"
  "http://www.w3.org/Graphics/SVG/1.1/DTD/svg11.dtd">
<svg xmlns="http://www.w3.org/2000/svg" xmlns:xlink="http://www.w3.org/1999/xlink"   viewBox="0.00 0.00 300.00 300.00">
<!-- Created by OpenEye Scientific Software -->
<!-- Creation Date Fri Aug 17 12:10:55 2018 -->
<rect width="300.00" height="300.00" fill="white" />
<line x1="107.31" y1="275.78" x2="95.51" y2="249.62" stroke="black" stroke-width="2" stroke-linejoin="round" stroke-linecap="round" />
<line x1="110.50" y1="269.31" x2="102.47" y2="251.52" stroke="black" stroke-width="2" stroke-linejoin="round" stroke-linecap="round" />
<line x1="107.31" y1="275.78" x2="135.72" y2="278.55" stroke="black" stroke-width="2" stroke-linejoin="round" stroke-linecap="round" />
<line x1="135.72" y1="278.55" x2="152.46" y2="255.42" stroke="black" stroke-width="2" stroke-linejoin="round" stroke-linecap="round" />
<line x1="133.89" y1="271.58" x2="145.27" y2="255.85" stroke="black" stroke-width="2" stroke-linejoin="round" stroke-linecap="round" />
<line x1="152.46" y1="255.42" x2="140.66" y2="229.26" stroke="black" stroke-width="2" stroke-linejoin="round" stroke-linecap="round" />
<line x1="140.66" y1="229.26" x2="112.13" y2="226.23" stroke="black" stroke-width="2" stroke-linejoin="round" stroke-linecap="round" />
<line x1="135.51" y1="234.31" x2="116.11" y2="232.25" stroke="black" stroke-width="2" stroke-linejoin="round" stroke-linecap="round" />
<line x1="112.13" y1="226.23" x2="95.51" y2="249.62" stroke="black" stroke-width="2" stroke-linejoin="round" stroke-linecap="round" />
<line x1="140.66" y1="229.26" x2="157.40" y2="206.13" stroke="black" stroke-width="2" stroke-linejoin="round" stroke-linecap="round" />
<line x1="151.57" y1="193.10" x2="157.40" y2="206.13" stroke="black" stroke-width="2" stroke-linejoin="round" stroke-linecap="round" />
<line x1="151.57" y1="193.10" x2="148.79" y2="186.88" stroke="#ebc80a" stroke-width="2" stroke-linejoin="round" stroke-linecap="round" />
<line x1="154.11" y1="168.51" x2="150.12" y2="174.03" stroke="#ebc80a" stroke-width="2" stroke-linejoin="round" stroke-linecap="round" />
<line x1="154.11" y1="168.51" x2="162.48" y2="156.95" stroke="black" stroke-width="2" stroke-linejoin="round" stroke-linecap="round" />
<line x1="158.00" y1="143.39" x2="162.48" y2="156.95" stroke="black" stroke-width="2" stroke-linejoin="round" stroke-linecap="round" />
<line x1="158.00" y1="143.39" x2="156.18" y2="137.88" stroke="red" stroke-width="2" stroke-linejoin="round" stroke-linecap="round" />
<line x1="176.75" y1="156.97" x2="162.48" y2="156.95" stroke="black" stroke-width="2" stroke-linejoin="round" stroke-linecap="round" />
<line x1="176.75" y1="156.97" x2="183.57" y2="156.97" stroke="blue" stroke-width="2" stroke-linejoin="round" stroke-linecap="round" />
<line x1="176.76" y1="151.40" x2="167.05" y2="151.39" stroke="black" stroke-width="2" stroke-linejoin="round" stroke-linecap="round" />
<line x1="176.76" y1="151.40" x2="186.47" y2="151.41" stroke="blue" stroke-width="2" stroke-linejoin="round" stroke-linecap="round" />
<line x1="193.32" y1="149.89" x2="197.53" y2="136.88" stroke="blue" stroke-width="2" stroke-linejoin="round" stroke-linecap="round" />
<line x1="188.27" y1="121.36" x2="193.79" y2="125.39" stroke="blue" stroke-width="2" stroke-linejoin="round" stroke-linecap="round" />
<line x1="188.27" y1="121.36" x2="176.71" y2="112.95" stroke="black" stroke-width="2" stroke-linejoin="round" stroke-linecap="round" />
<line x1="184.99" y1="125.87" x2="192.85" y2="131.59" stroke="blue" stroke-width="2" stroke-linejoin="round" stroke-linecap="round" />
<line x1="184.99" y1="125.87" x2="177.13" y2="120.14" stroke="black" stroke-width="2" stroke-linejoin="round" stroke-linecap="round" />
<line x1="165.12" y1="121.39" x2="176.71" y2="112.95" stroke="black" stroke-width="2" stroke-linejoin="round" stroke-linecap="round" />
<line x1="165.12" y1="121.39" x2="160.37" y2="124.84" stroke="red" stroke-width="2" stroke-linejoin="round" stroke-linecap="round" />
<line x1="176.71" y1="112.95" x2="176.71" y2="84.40" stroke="black" stroke-width="2" stroke-linejoin="round" stroke-linecap="round" />
<line x1="176.71" y1="84.40" x2="201.47" y2="70.20" stroke="black" stroke-width="2" stroke-linejoin="round" stroke-linecap="round" />
<line x1="177.90" y1="77.30" x2="194.74" y2="67.64" stroke="black" stroke-width="2" stroke-linejoin="round" stroke-linecap="round" />
<line x1="176.71" y1="84.40" x2="151.94" y2="70.20" stroke="black" stroke-width="2" stroke-linejoin="round" stroke-linecap="round" />
<line x1="151.94" y1="70.20" x2="151.94" y2="41.50" stroke="black" stroke-width="2" stroke-linejoin="round" stroke-linecap="round" />
<line x1="157.51" y1="65.61" x2="157.51" y2="46.09" stroke="black" stroke-width="2" stroke-linejoin="round" stroke-linecap="round" />
<line x1="164.33" y1="34.26" x2="151.94" y2="41.50" stroke="black" stroke-width="2" stroke-linejoin="round" stroke-linecap="round" />
<line x1="164.33" y1="34.26" x2="170.27" y2="30.78" stroke="blue" stroke-width="2" stroke-linejoin="round" stroke-linecap="round" />
<line x1="189.09" y1="34.26" x2="183.15" y2="30.78" stroke="blue" stroke-width="2" stroke-linejoin="round" stroke-linecap="round" />
<line x1="189.09" y1="34.26" x2="201.47" y2="41.50" stroke="black" stroke-width="2" stroke-linejoin="round" stroke-linecap="round" />
<line x1="186.28" y1="39.06" x2="177.86" y2="34.13" stroke="blue" stroke-width="2" stroke-linejoin="round" stroke-linecap="round" />
<line x1="186.28" y1="39.06" x2="194.70" y2="43.99" stroke="black" stroke-width="2" stroke-linejoin="round" stroke-linecap="round" />
<line x1="201.47" y1="41.50" x2="201.47" y2="70.20" stroke="black" stroke-width="2" stroke-linejoin="round" stroke-linecap="round" />
<text x="145.74" y="184.03" fill="#ebc80a" font-family="Arial" font-size="12" font-style="normal" font-weight="normal" text-anchor="middle">  S </text>
<text x="191.03" y="160.94" fill="blue" font-family="Arial" font-size="12" font-style="normal" font-weight="normal" text-anchor="middle">  N </text>
<text x="199.82" y="133.74" fill="blue" font-family="Arial" font-size="12" font-style="normal" font-weight="normal" text-anchor="middle">  N </text>
<text x="153.52" y="133.79" fill="red" font-family="Arial" font-size="12" font-style="normal" font-weight="normal" text-anchor="middle">  O </text>
<text x="176.71" y="30.97" fill="blue" font-family="Arial" font-size="12" font-style="normal" font-weight="normal" text-anchor="middle">  N </text>
</svg>
