<?xml version="1.0" encoding="UTF-8"?>
<!DOCTYPE svg PUBLIC "-//W3C//DTD SVG 1.1//EN"
  "http://www.w3.org/Graphics/SVG/1.1/DTD/svg11.dtd">
<svg xmlns="http://www.w3.org/2000/svg" xmlns:xlink="http://www.w3.org/1999/xlink"   viewBox="0.00 0.00 300.00 300.00">
<!-- Created by OpenEye Scientific Software -->
<!-- Creation Date Fri Aug 17 12:10:55 2018 -->
<rect width="300.00" height="300.00" fill="white" />
<path d="M 169.51 132.23 L 187.23 140.10 C 189.66 141.18 192.38 140.59 194.15 138.60 L 206.99 124.19 C 208.74 122.22 209.02 119.49 207.71 117.20 L 198.07 100.48 C 196.75 98.18 194.21 97.05 191.62 97.61 L 172.72 101.66 C 170.13 102.21 168.29 104.26 168.01 106.90 L 165.98 126.12 C 165.70 128.76 167.08 131.16 169.51 132.23 Z" fill="none" stroke="#5e005e" stroke-width="2" stroke-linejoin="round" stroke-linecap="round" />
<line x1="21.35" y1="155.88" x2="38.10" y2="165.48" stroke="black" stroke-width="2" stroke-linejoin="round" stroke-linecap="round" />
<line x1="26.06" y1="153.87" x2="37.45" y2="160.40" stroke="black" stroke-width="2" stroke-linejoin="round" stroke-linecap="round" />
<line x1="21.35" y1="155.88" x2="21.35" y2="136.47" stroke="black" stroke-width="2" stroke-linejoin="round" stroke-linecap="round" />
<line x1="21.35" y1="136.47" x2="38.10" y2="126.67" stroke="black" stroke-width="2" stroke-linejoin="round" stroke-linecap="round" />
<line x1="26.09" y1="138.43" x2="37.48" y2="131.76" stroke="black" stroke-width="2" stroke-linejoin="round" stroke-linecap="round" />
<line x1="38.10" y1="126.67" x2="54.85" y2="136.47" stroke="black" stroke-width="2" stroke-linejoin="round" stroke-linecap="round" />
<line x1="63.20" y1="131.58" x2="54.85" y2="136.47" stroke="black" stroke-width="2" stroke-linejoin="round" stroke-linecap="round" />
<line x1="63.20" y1="131.58" x2="66.68" y2="129.54" stroke="blue" stroke-width="2" stroke-linejoin="round" stroke-linecap="round" />
<line x1="54.85" y1="136.47" x2="54.87" y2="155.88" stroke="black" stroke-width="2" stroke-linejoin="round" stroke-linecap="round" />
<line x1="58.94" y1="139.57" x2="58.96" y2="152.77" stroke="black" stroke-width="2" stroke-linejoin="round" stroke-linecap="round" />
<line x1="54.87" y1="155.88" x2="38.10" y2="165.48" stroke="black" stroke-width="2" stroke-linejoin="round" stroke-linecap="round" />
<line x1="54.87" y1="155.88" x2="71.60" y2="165.50" stroke="black" stroke-width="2" stroke-linejoin="round" stroke-linecap="round" />
<line x1="69.55" y1="175.15" x2="69.55" y2="165.50" stroke="black" stroke-width="2" stroke-linejoin="round" stroke-linecap="round" />
<line x1="69.55" y1="175.15" x2="69.55" y2="178.49" stroke="red" stroke-width="2" stroke-linejoin="round" stroke-linecap="round" />
<line x1="73.64" y1="175.15" x2="73.64" y2="165.50" stroke="black" stroke-width="2" stroke-linejoin="round" stroke-linecap="round" />
<line x1="73.64" y1="175.15" x2="73.64" y2="178.49" stroke="red" stroke-width="2" stroke-linejoin="round" stroke-linecap="round" />
<line x1="80.00" y1="160.67" x2="71.60" y2="165.50" stroke="black" stroke-width="2" stroke-linejoin="round" stroke-linecap="round" />
<line x1="80.00" y1="160.67" x2="83.52" y2="158.65" stroke="blue" stroke-width="2" stroke-linejoin="round" stroke-linecap="round" />
<line x1="88.39" y1="146.13" x2="88.40" y2="150.19" stroke="blue" stroke-width="2" stroke-linejoin="round" stroke-linecap="round" />
<line x1="88.39" y1="146.13" x2="88.38" y2="136.43" stroke="black" stroke-width="2" stroke-linejoin="round" stroke-linecap="round" />
<line x1="79.96" y1="131.56" x2="88.38" y2="136.43" stroke="black" stroke-width="2" stroke-linejoin="round" stroke-linecap="round" />
<line x1="79.96" y1="131.56" x2="76.43" y2="129.51" stroke="blue" stroke-width="2" stroke-linejoin="round" stroke-linecap="round" />
<line x1="77.92" y1="135.10" x2="83.64" y2="138.41" stroke="black" stroke-width="2" stroke-linejoin="round" stroke-linecap="round" />
<line x1="77.92" y1="135.10" x2="72.19" y2="131.79" stroke="blue" stroke-width="2" stroke-linejoin="round" stroke-linecap="round" />
<line x1="88.38" y1="136.43" x2="105.09" y2="126.77" stroke="black" stroke-width="2" stroke-linejoin="round" stroke-linecap="round" />
<line x1="105.09" y1="126.77" x2="121.81" y2="136.42" stroke="black" stroke-width="2" stroke-linejoin="round" stroke-linecap="round" />
<line x1="121.81" y1="136.42" x2="138.52" y2="126.76" stroke="black" stroke-width="2" stroke-linejoin="round" stroke-linecap="round" />
<line x1="140.56" y1="117.11" x2="140.56" y2="126.76" stroke="black" stroke-width="2" stroke-linejoin="round" stroke-linecap="round" />
<line x1="140.56" y1="117.11" x2="140.56" y2="113.78" stroke="red" stroke-width="2" stroke-linejoin="round" stroke-linecap="round" />
<line x1="136.47" y1="117.11" x2="136.47" y2="126.76" stroke="black" stroke-width="2" stroke-linejoin="round" stroke-linecap="round" />
<line x1="136.47" y1="117.11" x2="136.47" y2="113.78" stroke="red" stroke-width="2" stroke-linejoin="round" stroke-linecap="round" />
<line x1="146.88" y1="131.58" x2="138.52" y2="126.76" stroke="black" stroke-width="2" stroke-linejoin="round" stroke-linecap="round" />
<line x1="146.88" y1="131.58" x2="150.35" y2="133.59" stroke="blue" stroke-width="2" stroke-linejoin="round" stroke-linecap="round" />
<line x1="163.59" y1="131.58" x2="160.12" y2="133.58" stroke="blue" stroke-width="2" stroke-linejoin="round" stroke-linecap="round" />
<line x1="163.59" y1="131.58" x2="171.94" y2="126.75" stroke="black" stroke-width="2" stroke-linejoin="round" stroke-linecap="round" />
<line x1="180.80" y1="130.68" x2="171.94" y2="126.75" stroke="black" stroke-width="2" stroke-linejoin="round" stroke-linecap="round" />
<line x1="180.80" y1="130.68" x2="184.51" y2="132.33" stroke="#ebc80a" stroke-width="2" stroke-linejoin="round" stroke-linecap="round" />
<line x1="172.96" y1="117.14" x2="171.94" y2="126.75" stroke="black" stroke-width="2" stroke-linejoin="round" stroke-linecap="round" />
<line x1="172.96" y1="117.14" x2="173.38" y2="113.14" stroke="blue" stroke-width="2" stroke-linejoin="round" stroke-linecap="round" />
<line x1="177.03" y1="117.57" x2="176.33" y2="124.10" stroke="black" stroke-width="2" stroke-linejoin="round" stroke-linecap="round" />
<line x1="177.03" y1="117.57" x2="177.72" y2="111.03" stroke="blue" stroke-width="2" stroke-linejoin="round" stroke-linecap="round" />
<line x1="183.43" y1="105.50" x2="179.49" y2="106.34" stroke="blue" stroke-width="2" stroke-linejoin="round" stroke-linecap="round" />
<line x1="183.43" y1="105.50" x2="192.87" y2="103.48" stroke="black" stroke-width="2" stroke-linejoin="round" stroke-linecap="round" />
<line x1="192.87" y1="103.48" x2="202.51" y2="120.20" stroke="black" stroke-width="2" stroke-linejoin="round" stroke-linecap="round" />
<line x1="190.87" y1="108.19" x2="197.43" y2="119.56" stroke="black" stroke-width="2" stroke-linejoin="round" stroke-linecap="round" />
<line x1="196.09" y1="127.41" x2="202.51" y2="120.20" stroke="black" stroke-width="2" stroke-linejoin="round" stroke-linecap="round" />
<line x1="196.09" y1="127.41" x2="193.42" y2="130.40" stroke="#ebc80a" stroke-width="2" stroke-linejoin="round" stroke-linecap="round" />
<line x1="202.51" y1="120.20" x2="221.71" y2="122.17" stroke="black" stroke-width="2" stroke-linejoin="round" stroke-linecap="round" />
<line x1="221.71" y1="122.17" x2="229.59" y2="139.79" stroke="black" stroke-width="2" stroke-linejoin="round" stroke-linecap="round" />
<line x1="229.59" y1="139.79" x2="248.90" y2="141.72" stroke="black" stroke-width="2" stroke-linejoin="round" stroke-linecap="round" />
<line x1="232.28" y1="144.16" x2="245.40" y2="145.47" stroke="black" stroke-width="2" stroke-linejoin="round" stroke-linecap="round" />
<line x1="229.59" y1="139.79" x2="218.18" y2="155.47" stroke="black" stroke-width="2" stroke-linejoin="round" stroke-linecap="round" />
<line x1="218.18" y1="155.47" x2="226.07" y2="173.09" stroke="black" stroke-width="2" stroke-linejoin="round" stroke-linecap="round" />
<line x1="223.17" y1="156.62" x2="228.54" y2="168.60" stroke="black" stroke-width="2" stroke-linejoin="round" stroke-linecap="round" />
<line x1="226.07" y1="173.09" x2="245.25" y2="175.17" stroke="black" stroke-width="2" stroke-linejoin="round" stroke-linecap="round" />
<line x1="245.25" y1="175.17" x2="256.67" y2="159.49" stroke="black" stroke-width="2" stroke-linejoin="round" stroke-linecap="round" />
<line x1="243.77" y1="170.26" x2="251.54" y2="159.59" stroke="black" stroke-width="2" stroke-linejoin="round" stroke-linecap="round" />
<line x1="256.67" y1="159.49" x2="248.90" y2="141.72" stroke="black" stroke-width="2" stroke-linejoin="round" stroke-linecap="round" />
<line x1="266.26" y1="160.53" x2="256.67" y2="159.49" stroke="black" stroke-width="2" stroke-linejoin="round" stroke-linecap="round" />
<line x1="266.26" y1="160.53" x2="270.61" y2="161.01" stroke="#00cd00" stroke-width="2" stroke-linejoin="round" stroke-linecap="round" />
<line x1="249.16" y1="184.00" x2="245.25" y2="175.17" stroke="black" stroke-width="2" stroke-linejoin="round" stroke-linecap="round" />
<line x1="249.16" y1="184.00" x2="250.93" y2="188.00" stroke="#00cd00" stroke-width="2" stroke-linejoin="round" stroke-linecap="round" />
<text x="71.60" y="187.44" fill="red" font-family="Arial" font-size="8" font-style="normal" font-weight="normal" text-anchor="middle">  O </text>
<text x="88.41" y="158.47" fill="blue" font-family="Arial" font-size="8" font-style="normal" font-weight="normal" text-anchor="middle">  N </text>
<text x="94.01" y="158.47" fill="blue" font-family="Arial" font-size="8" font-style="normal" font-weight="normal" text-anchor="middle">  H </text>
<text x="71.55" y="129.33" fill="blue" font-family="Arial" font-size="8" font-style="normal" font-weight="normal" text-anchor="middle">  N </text>
<text x="138.51" y="110.10" fill="red" font-family="Arial" font-size="8" font-style="normal" font-weight="normal" text-anchor="middle">  O </text>
<text x="155.23" y="139.04" fill="blue" font-family="Arial" font-size="8" font-style="normal" font-weight="normal" text-anchor="middle">  N </text>
<text x="155.23" y="145.44" fill="blue" font-family="Arial" font-size="8" font-style="normal" font-weight="normal" text-anchor="middle">  H </text>
<text x="173.98" y="110.17" fill="blue" font-family="Arial" font-size="8" font-style="normal" font-weight="normal" text-anchor="middle">  N </text>
<text x="189.67" y="137.25" fill="#ebc80a" font-family="Arial" font-size="8" font-style="normal" font-weight="normal" text-anchor="middle">  S </text>
<text x="275.85" y="164.22" fill="#00cd00" font-family="Arial" font-size="8" font-style="normal" font-weight="normal" text-anchor="middle">  F </text>
<text x="253.06" y="195.46" fill="#00cd00" font-family="Arial" font-size="8" font-style="normal" font-weight="normal" text-anchor="middle">  F </text>
</svg>
