<?xml version="1.0" encoding="UTF-8"?>
<!DOCTYPE svg PUBLIC "-//W3C//DTD SVG 1.1//EN"
  "http://www.w3.org/Graphics/SVG/1.1/DTD/svg11.dtd">
<svg xmlns="http://www.w3.org/2000/svg" xmlns:xlink="http://www.w3.org/1999/xlink"   viewBox="0.00 0.00 300.00 300.00">
<!-- Created by OpenEye Scientific Software -->
<!-- Creation Date Fri Aug 17 12:10:55 2018 -->
<rect width="300.00" height="300.00" fill="white" />
<line x1="21.60" y1="171.22" x2="21.41" y2="203.17" stroke="black" stroke-width="2" stroke-linejoin="round" stroke-linecap="round" />
<line x1="27.68" y1="176.37" x2="27.55" y2="198.09" stroke="black" stroke-width="2" stroke-linejoin="round" stroke-linecap="round" />
<line x1="21.60" y1="171.22" x2="49.26" y2="155.25" stroke="black" stroke-width="2" stroke-linejoin="round" stroke-linecap="round" />
<line x1="49.26" y1="155.25" x2="77.02" y2="171.39" stroke="black" stroke-width="2" stroke-linejoin="round" stroke-linecap="round" />
<line x1="50.63" y1="163.12" x2="69.51" y2="174.09" stroke="black" stroke-width="2" stroke-linejoin="round" stroke-linecap="round" />
<line x1="77.02" y1="171.39" x2="77.11" y2="203.50" stroke="black" stroke-width="2" stroke-linejoin="round" stroke-linecap="round" />
<line x1="77.11" y1="203.50" x2="49.17" y2="219.30" stroke="black" stroke-width="2" stroke-linejoin="round" stroke-linecap="round" />
<line x1="69.63" y1="200.71" x2="50.63" y2="211.45" stroke="black" stroke-width="2" stroke-linejoin="round" stroke-linecap="round" />
<line x1="49.17" y1="219.30" x2="21.41" y2="203.17" stroke="black" stroke-width="2" stroke-linejoin="round" stroke-linecap="round" />
<line x1="49.07" y1="235.27" x2="49.17" y2="219.30" stroke="black" stroke-width="2" stroke-linejoin="round" stroke-linecap="round" />
<line x1="49.07" y1="235.27" x2="49.04" y2="240.29" stroke="#a00" stroke-width="2" stroke-linejoin="round" stroke-linecap="round" />
<line x1="90.85" y1="163.40" x2="77.02" y2="171.39" stroke="black" stroke-width="2" stroke-linejoin="round" stroke-linecap="round" />
<line x1="90.85" y1="163.40" x2="97.83" y2="159.38" stroke="blue" stroke-width="2" stroke-linejoin="round" stroke-linecap="round" />
<line x1="104.68" y1="139.45" x2="104.68" y2="147.50" stroke="blue" stroke-width="2" stroke-linejoin="round" stroke-linecap="round" />
<line x1="104.68" y1="139.45" x2="104.68" y2="123.48" stroke="black" stroke-width="2" stroke-linejoin="round" stroke-linecap="round" />
<line x1="118.54" y1="115.53" x2="104.68" y2="123.48" stroke="black" stroke-width="2" stroke-linejoin="round" stroke-linecap="round" />
<line x1="118.54" y1="115.53" x2="125.52" y2="111.52" stroke="blue" stroke-width="2" stroke-linejoin="round" stroke-linecap="round" />
<line x1="115.50" y1="110.23" x2="106.07" y2="115.63" stroke="black" stroke-width="2" stroke-linejoin="round" stroke-linecap="round" />
<line x1="115.50" y1="110.23" x2="124.92" y2="104.83" stroke="blue" stroke-width="2" stroke-linejoin="round" stroke-linecap="round" />
<line x1="104.68" y1="123.48" x2="76.97" y2="107.59" stroke="black" stroke-width="2" stroke-linejoin="round" stroke-linecap="round" />
<line x1="76.97" y1="107.59" x2="76.97" y2="75.48" stroke="black" stroke-width="2" stroke-linejoin="round" stroke-linecap="round" />
<line x1="83.08" y1="102.45" x2="83.08" y2="80.62" stroke="black" stroke-width="2" stroke-linejoin="round" stroke-linecap="round" />
<line x1="90.83" y1="67.37" x2="76.97" y2="75.48" stroke="black" stroke-width="2" stroke-linejoin="round" stroke-linecap="round" />
<line x1="90.83" y1="67.37" x2="97.85" y2="63.26" stroke="blue" stroke-width="2" stroke-linejoin="round" stroke-linecap="round" />
<line x1="118.54" y1="67.37" x2="111.51" y2="63.26" stroke="blue" stroke-width="2" stroke-linejoin="round" stroke-linecap="round" />
<line x1="118.54" y1="67.37" x2="132.39" y2="75.48" stroke="black" stroke-width="2" stroke-linejoin="round" stroke-linecap="round" />
<line x1="115.45" y1="72.65" x2="106.03" y2="67.13" stroke="blue" stroke-width="2" stroke-linejoin="round" stroke-linecap="round" />
<line x1="115.45" y1="72.65" x2="124.87" y2="78.16" stroke="black" stroke-width="2" stroke-linejoin="round" stroke-linecap="round" />
<line x1="132.39" y1="91.53" x2="132.39" y2="75.48" stroke="black" stroke-width="2" stroke-linejoin="round" stroke-linecap="round" />
<line x1="132.39" y1="91.53" x2="132.39" y2="99.67" stroke="blue" stroke-width="2" stroke-linejoin="round" stroke-linecap="round" />
<line x1="146.25" y1="67.54" x2="132.39" y2="75.48" stroke="black" stroke-width="2" stroke-linejoin="round" stroke-linecap="round" />
<line x1="146.25" y1="67.54" x2="153.23" y2="63.53" stroke="blue" stroke-width="2" stroke-linejoin="round" stroke-linecap="round" />
<line x1="173.91" y1="67.62" x2="166.94" y2="63.57" stroke="blue" stroke-width="2" stroke-linejoin="round" stroke-linecap="round" />
<line x1="173.91" y1="67.62" x2="187.71" y2="75.64" stroke="black" stroke-width="2" stroke-linejoin="round" stroke-linecap="round" />
<line x1="187.71" y1="75.64" x2="215.52" y2="59.59" stroke="black" stroke-width="2" stroke-linejoin="round" stroke-linecap="round" />
<line x1="195.22" y1="78.37" x2="214.13" y2="67.45" stroke="black" stroke-width="2" stroke-linejoin="round" stroke-linecap="round" />
<line x1="187.71" y1="75.64" x2="187.52" y2="107.75" stroke="black" stroke-width="2" stroke-linejoin="round" stroke-linecap="round" />
<line x1="187.52" y1="107.75" x2="215.14" y2="123.80" stroke="black" stroke-width="2" stroke-linejoin="round" stroke-linecap="round" />
<line x1="195.01" y1="105.04" x2="213.79" y2="115.95" stroke="black" stroke-width="2" stroke-linejoin="round" stroke-linecap="round" />
<line x1="215.14" y1="123.80" x2="242.94" y2="108.08" stroke="black" stroke-width="2" stroke-linejoin="round" stroke-linecap="round" />
<line x1="242.94" y1="108.08" x2="243.13" y2="75.97" stroke="black" stroke-width="2" stroke-linejoin="round" stroke-linecap="round" />
<line x1="236.86" y1="102.90" x2="236.99" y2="81.07" stroke="black" stroke-width="2" stroke-linejoin="round" stroke-linecap="round" />
<line x1="243.13" y1="75.97" x2="215.52" y2="59.59" stroke="black" stroke-width="2" stroke-linejoin="round" stroke-linecap="round" />
<line x1="257.03" y1="68.11" x2="243.13" y2="75.97" stroke="black" stroke-width="2" stroke-linejoin="round" stroke-linecap="round" />
<line x1="257.03" y1="68.11" x2="261.40" y2="65.64" stroke="#a00" stroke-width="2" stroke-linejoin="round" stroke-linecap="round" />
<line x1="63.15" y1="115.59" x2="76.97" y2="107.59" stroke="black" stroke-width="2" stroke-linejoin="round" stroke-linecap="round" />
<line x1="63.15" y1="115.59" x2="55.67" y2="119.93" stroke="#00cd00" stroke-width="2" stroke-linejoin="round" stroke-linecap="round" />
<text x="48.98" y="255.53" fill="#a00" font-family="Arial" font-size="13" font-style="normal" font-weight="normal" text-anchor="middle">  Br </text>
<text x="104.68" y="159.71" fill="blue" font-family="Arial" font-size="13" font-style="normal" font-weight="normal" text-anchor="middle">  N </text>
<text x="113.78" y="159.71" fill="blue" font-family="Arial" font-size="13" font-style="normal" font-weight="normal" text-anchor="middle">  H </text>
<text x="104.68" y="63.55" fill="blue" font-family="Arial" font-size="13" font-style="normal" font-weight="normal" text-anchor="middle">  N </text>
<text x="132.39" y="111.88" fill="blue" font-family="Arial" font-size="13" font-style="normal" font-weight="normal" text-anchor="middle">  N </text>
<text x="160.10" y="63.88" fill="blue" font-family="Arial" font-size="13" font-style="normal" font-weight="normal" text-anchor="middle">  N </text>
<text x="160.10" y="53.48" fill="blue" font-family="Arial" font-size="13" font-style="normal" font-weight="normal" text-anchor="middle">  H </text>
<text x="270.93" y="64.53" fill="#a00" font-family="Arial" font-size="13" font-style="normal" font-weight="normal" text-anchor="middle">  Br </text>
<text x="49.33" y="127.89" fill="#00cd00" font-family="Arial" font-size="13" font-style="normal" font-weight="normal" text-anchor="middle">  F </text>
</svg>
