<?xml version="1.0" encoding="UTF-8"?>
<!DOCTYPE svg PUBLIC "-//W3C//DTD SVG 1.1//EN"
  "http://www.w3.org/Graphics/SVG/1.1/DTD/svg11.dtd">
<svg xmlns="http://www.w3.org/2000/svg" xmlns:xlink="http://www.w3.org/1999/xlink"   viewBox="0.00 0.00 300.00 300.00">
<!-- Created by OpenEye Scientific Software -->
<!-- Creation Date Fri Aug 17 12:10:55 2018 -->
<rect width="300.00" height="300.00" fill="white" />
<line x1="21.30" y1="185.45" x2="39.42" y2="195.81" stroke="black" stroke-width="2" stroke-linejoin="round" stroke-linecap="round" />
<line x1="48.44" y1="190.55" x2="39.42" y2="195.81" stroke="black" stroke-width="2" stroke-linejoin="round" stroke-linecap="round" />
<line x1="48.44" y1="190.55" x2="51.53" y2="188.74" stroke="red" stroke-width="2" stroke-linejoin="round" stroke-linecap="round" />
<line x1="66.52" y1="190.47" x2="63.41" y2="188.69" stroke="red" stroke-width="2" stroke-linejoin="round" stroke-linecap="round" />
<line x1="66.52" y1="190.47" x2="75.58" y2="195.65" stroke="black" stroke-width="2" stroke-linejoin="round" stroke-linecap="round" />
<line x1="73.46" y1="206.10" x2="73.41" y2="195.66" stroke="black" stroke-width="2" stroke-linejoin="round" stroke-linecap="round" />
<line x1="73.46" y1="206.10" x2="73.47" y2="209.68" stroke="red" stroke-width="2" stroke-linejoin="round" stroke-linecap="round" />
<line x1="77.80" y1="206.08" x2="77.75" y2="195.64" stroke="black" stroke-width="2" stroke-linejoin="round" stroke-linecap="round" />
<line x1="77.80" y1="206.08" x2="77.81" y2="209.66" stroke="red" stroke-width="2" stroke-linejoin="round" stroke-linecap="round" />
<line x1="75.58" y1="195.65" x2="93.61" y2="185.13" stroke="black" stroke-width="2" stroke-linejoin="round" stroke-linecap="round" />
<line x1="93.61" y1="185.13" x2="93.55" y2="164.15" stroke="black" stroke-width="2" stroke-linejoin="round" stroke-linecap="round" />
<line x1="97.94" y1="181.76" x2="97.90" y2="167.49" stroke="black" stroke-width="2" stroke-linejoin="round" stroke-linecap="round" />
<line x1="93.61" y1="185.13" x2="111.75" y2="195.46" stroke="black" stroke-width="2" stroke-linejoin="round" stroke-linecap="round" />
<line x1="111.75" y1="195.46" x2="129.83" y2="185.02" stroke="black" stroke-width="2" stroke-linejoin="round" stroke-linecap="round" />
<line x1="112.47" y1="190.04" x2="124.77" y2="182.94" stroke="black" stroke-width="2" stroke-linejoin="round" stroke-linecap="round" />
<line x1="129.83" y1="185.02" x2="129.77" y2="164.04" stroke="black" stroke-width="2" stroke-linejoin="round" stroke-linecap="round" />
<line x1="129.77" y1="164.04" x2="111.63" y2="153.50" stroke="black" stroke-width="2" stroke-linejoin="round" stroke-linecap="round" />
<line x1="124.68" y1="166.11" x2="112.35" y2="158.94" stroke="black" stroke-width="2" stroke-linejoin="round" stroke-linecap="round" />
<line x1="111.63" y1="153.50" x2="93.55" y2="164.15" stroke="black" stroke-width="2" stroke-linejoin="round" stroke-linecap="round" />
<line x1="138.81" y1="158.82" x2="129.77" y2="164.04" stroke="black" stroke-width="2" stroke-linejoin="round" stroke-linecap="round" />
<line x1="138.81" y1="158.82" x2="142.57" y2="156.65" stroke="blue" stroke-width="2" stroke-linejoin="round" stroke-linecap="round" />
<line x1="147.85" y1="143.17" x2="147.85" y2="147.51" stroke="blue" stroke-width="2" stroke-linejoin="round" stroke-linecap="round" />
<line x1="147.85" y1="143.17" x2="147.85" y2="132.73" stroke="black" stroke-width="2" stroke-linejoin="round" stroke-linecap="round" />
<line x1="156.90" y1="127.54" x2="147.85" y2="132.73" stroke="black" stroke-width="2" stroke-linejoin="round" stroke-linecap="round" />
<line x1="156.90" y1="127.54" x2="160.67" y2="125.38" stroke="blue" stroke-width="2" stroke-linejoin="round" stroke-linecap="round" />
<line x1="154.74" y1="123.77" x2="148.59" y2="127.30" stroke="black" stroke-width="2" stroke-linejoin="round" stroke-linecap="round" />
<line x1="154.74" y1="123.77" x2="160.90" y2="120.24" stroke="blue" stroke-width="2" stroke-linejoin="round" stroke-linecap="round" />
<line x1="147.85" y1="132.73" x2="129.74" y2="122.34" stroke="black" stroke-width="2" stroke-linejoin="round" stroke-linecap="round" />
<line x1="129.74" y1="122.34" x2="129.74" y2="101.36" stroke="black" stroke-width="2" stroke-linejoin="round" stroke-linecap="round" />
<line x1="134.08" y1="118.99" x2="134.08" y2="104.72" stroke="black" stroke-width="2" stroke-linejoin="round" stroke-linecap="round" />
<line x1="138.79" y1="96.06" x2="129.74" y2="101.36" stroke="black" stroke-width="2" stroke-linejoin="round" stroke-linecap="round" />
<line x1="138.79" y1="96.06" x2="142.59" y2="93.84" stroke="blue" stroke-width="2" stroke-linejoin="round" stroke-linecap="round" />
<line x1="156.90" y1="96.06" x2="153.11" y2="93.84" stroke="blue" stroke-width="2" stroke-linejoin="round" stroke-linecap="round" />
<line x1="156.90" y1="96.06" x2="165.96" y2="101.36" stroke="black" stroke-width="2" stroke-linejoin="round" stroke-linecap="round" />
<line x1="154.71" y1="99.81" x2="148.55" y2="96.20" stroke="blue" stroke-width="2" stroke-linejoin="round" stroke-linecap="round" />
<line x1="154.71" y1="99.81" x2="160.87" y2="103.41" stroke="black" stroke-width="2" stroke-linejoin="round" stroke-linecap="round" />
<line x1="165.96" y1="111.85" x2="165.96" y2="101.36" stroke="black" stroke-width="2" stroke-linejoin="round" stroke-linecap="round" />
<line x1="165.96" y1="111.85" x2="165.96" y2="116.25" stroke="blue" stroke-width="2" stroke-linejoin="round" stroke-linecap="round" />
<line x1="175.01" y1="96.17" x2="165.96" y2="101.36" stroke="black" stroke-width="2" stroke-linejoin="round" stroke-linecap="round" />
<line x1="175.01" y1="96.17" x2="178.78" y2="94.01" stroke="blue" stroke-width="2" stroke-linejoin="round" stroke-linecap="round" />
<line x1="193.09" y1="96.22" x2="189.33" y2="94.04" stroke="blue" stroke-width="2" stroke-linejoin="round" stroke-linecap="round" />
<line x1="193.09" y1="96.22" x2="202.11" y2="101.47" stroke="black" stroke-width="2" stroke-linejoin="round" stroke-linecap="round" />
<line x1="202.11" y1="101.47" x2="201.99" y2="122.45" stroke="black" stroke-width="2" stroke-linejoin="round" stroke-linecap="round" />
<line x1="206.43" y1="104.85" x2="206.35" y2="119.12" stroke="black" stroke-width="2" stroke-linejoin="round" stroke-linecap="round" />
<line x1="202.11" y1="101.47" x2="220.28" y2="90.98" stroke="black" stroke-width="2" stroke-linejoin="round" stroke-linecap="round" />
<line x1="220.28" y1="90.98" x2="238.33" y2="101.47" stroke="black" stroke-width="2" stroke-linejoin="round" stroke-linecap="round" />
<line x1="220.99" y1="96.41" x2="233.26" y2="103.54" stroke="black" stroke-width="2" stroke-linejoin="round" stroke-linecap="round" />
<line x1="238.33" y1="101.47" x2="238.39" y2="122.34" stroke="black" stroke-width="2" stroke-linejoin="round" stroke-linecap="round" />
<line x1="238.39" y1="122.34" x2="220.22" y2="132.83" stroke="black" stroke-width="2" stroke-linejoin="round" stroke-linecap="round" />
<line x1="233.32" y1="120.26" x2="220.96" y2="127.40" stroke="black" stroke-width="2" stroke-linejoin="round" stroke-linecap="round" />
<line x1="220.22" y1="132.83" x2="201.99" y2="122.45" stroke="black" stroke-width="2" stroke-linejoin="round" stroke-linecap="round" />
<line x1="238.39" y1="122.34" x2="256.49" y2="132.75" stroke="black" stroke-width="2" stroke-linejoin="round" stroke-linecap="round" />
<line x1="266.61" y1="129.40" x2="257.57" y2="134.63" stroke="black" stroke-width="2" stroke-linejoin="round" stroke-linecap="round" />
<line x1="266.61" y1="129.40" x2="269.71" y2="127.60" stroke="red" stroke-width="2" stroke-linejoin="round" stroke-linecap="round" />
<line x1="264.43" y1="125.64" x2="255.40" y2="130.87" stroke="black" stroke-width="2" stroke-linejoin="round" stroke-linecap="round" />
<line x1="264.43" y1="125.64" x2="267.53" y2="123.85" stroke="red" stroke-width="2" stroke-linejoin="round" stroke-linecap="round" />
<line x1="256.50" y1="143.19" x2="256.49" y2="132.75" stroke="black" stroke-width="2" stroke-linejoin="round" stroke-linecap="round" />
<line x1="256.50" y1="143.19" x2="256.51" y2="146.77" stroke="red" stroke-width="2" stroke-linejoin="round" stroke-linecap="round" />
<line x1="265.56" y1="158.83" x2="262.46" y2="157.05" stroke="red" stroke-width="2" stroke-linejoin="round" stroke-linecap="round" />
<line x1="265.56" y1="158.83" x2="274.61" y2="164.04" stroke="black" stroke-width="2" stroke-linejoin="round" stroke-linecap="round" />
<line x1="274.61" y1="164.04" x2="274.64" y2="184.91" stroke="black" stroke-width="2" stroke-linejoin="round" stroke-linecap="round" />
<line x1="129.74" y1="101.36" x2="111.63" y2="90.98" stroke="black" stroke-width="2" stroke-linejoin="round" stroke-linecap="round" />
<text x="57.46" y="188.26" fill="red" font-family="Arial" font-size="9" font-style="normal" font-weight="normal" text-anchor="middle">  O </text>
<text x="75.67" y="219.49" fill="red" font-family="Arial" font-size="9" font-style="normal" font-weight="normal" text-anchor="middle">  O </text>
<text x="147.85" y="156.57" fill="blue" font-family="Arial" font-size="9" font-style="normal" font-weight="normal" text-anchor="middle">  N </text>
<text x="154.15" y="156.57" fill="blue" font-family="Arial" font-size="9" font-style="normal" font-weight="normal" text-anchor="middle">  H </text>
<text x="147.85" y="93.73" fill="blue" font-family="Arial" font-size="9" font-style="normal" font-weight="normal" text-anchor="middle">  N </text>
<text x="165.96" y="125.31" fill="blue" font-family="Arial" font-size="9" font-style="normal" font-weight="normal" text-anchor="middle">  N </text>
<text x="184.06" y="93.95" fill="blue" font-family="Arial" font-size="9" font-style="normal" font-weight="normal" text-anchor="middle">  N </text>
<text x="184.06" y="86.75" fill="blue" font-family="Arial" font-size="9" font-style="normal" font-weight="normal" text-anchor="middle">  H </text>
<text x="274.55" y="125.26" fill="red" font-family="Arial" font-size="9" font-style="normal" font-weight="normal" text-anchor="middle">  O </text>
<text x="256.52" y="156.60" fill="red" font-family="Arial" font-size="9" font-style="normal" font-weight="normal" text-anchor="middle">  O </text>
</svg>
