<?xml version="1.0" encoding="utf-8" standalone="no"?>
<!DOCTYPE svg PUBLIC "-//W3C//DTD SVG 1.1//EN"
  "http://www.w3.org/Graphics/SVG/1.1/DTD/svg11.dtd">
<!-- Created with matplotlib (https://matplotlib.org/) -->
<svg height="174.24pt" version="1.1" viewBox="0 0 230.4 174.24" width="230.4pt" xmlns="http://www.w3.org/2000/svg" xmlns:xlink="http://www.w3.org/1999/xlink">
 <defs>
  <style type="text/css">
*{stroke-linecap:butt;stroke-linejoin:round;}
  </style>
 </defs>
 <g id="figure_1">
  <g id="patch_1">
   <path d="M 0 174.24 
L 230.4 174.24 
L 230.4 0 
L 0 0 
z
" style="fill:#ffffff;"/>
  </g>
  <g id="axes_1">
   <g id="patch_2">
    <path d="M 44.701786 134.44 
L 214.015179 134.44 
L 214.015179 10.8 
L 44.701786 10.8 
z
" style="fill:#ffffff;"/>
   </g>
   <g id="matplotlib.axis_1">
    <g id="xtick_1">
     <g id="line2d_1">
      <defs>
       <path d="M 0 0 
L 0 3.5 
" id="m08b20436f4" style="stroke:#262626;stroke-width:0.8;"/>
      </defs>
      <g>
       <use style="fill:#262626;stroke:#262626;stroke-width:0.8;" x="44.701786" xlink:href="#m08b20436f4" y="134.44"/>
      </g>
     </g>
     <g id="text_1">
      <!-- 2 -->
      <defs>
       <path d="M 50.34375 8.453125 
L 50.34375 0 
L 3.03125 0 
Q 2.9375 3.171875 4.046875 6.109375 
Q 5.859375 10.9375 9.828125 15.625 
Q 13.8125 20.3125 21.34375 26.46875 
Q 33.015625 36.03125 37.109375 41.625 
Q 41.21875 47.21875 41.21875 52.203125 
Q 41.21875 57.421875 37.46875 61 
Q 33.734375 64.59375 27.734375 64.59375 
Q 21.390625 64.59375 17.578125 60.78125 
Q 13.765625 56.984375 13.71875 50.25 
L 4.6875 51.171875 
Q 5.609375 61.28125 11.65625 66.578125 
Q 17.71875 71.875 27.9375 71.875 
Q 38.234375 71.875 44.234375 66.15625 
Q 50.25 60.453125 50.25 52 
Q 50.25 47.703125 48.484375 43.546875 
Q 46.734375 39.40625 42.65625 34.8125 
Q 38.578125 30.21875 29.109375 22.21875 
Q 21.1875 15.578125 18.9375 13.203125 
Q 16.703125 10.84375 15.234375 8.453125 
z
" id="ArialMT-50"/>
      </defs>
      <g style="fill:#262626;" transform="translate(41.921317 148.597813)scale(0.1 -0.1)">
       <use xlink:href="#ArialMT-50"/>
      </g>
     </g>
    </g>
    <g id="xtick_2">
     <g id="line2d_2">
      <g>
       <use style="fill:#262626;stroke:#262626;stroke-width:0.8;" x="78.564464" xlink:href="#m08b20436f4" y="134.44"/>
      </g>
     </g>
     <g id="text_2">
      <!-- 4 -->
      <defs>
       <path d="M 32.328125 0 
L 32.328125 17.140625 
L 1.265625 17.140625 
L 1.265625 25.203125 
L 33.9375 71.578125 
L 41.109375 71.578125 
L 41.109375 25.203125 
L 50.78125 25.203125 
L 50.78125 17.140625 
L 41.109375 17.140625 
L 41.109375 0 
z
M 32.328125 25.203125 
L 32.328125 57.46875 
L 9.90625 25.203125 
z
" id="ArialMT-52"/>
      </defs>
      <g style="fill:#262626;" transform="translate(75.783996 148.597813)scale(0.1 -0.1)">
       <use xlink:href="#ArialMT-52"/>
      </g>
     </g>
    </g>
    <g id="xtick_3">
     <g id="line2d_3">
      <g>
       <use style="fill:#262626;stroke:#262626;stroke-width:0.8;" x="112.427143" xlink:href="#m08b20436f4" y="134.44"/>
      </g>
     </g>
     <g id="text_3">
      <!-- 6 -->
      <defs>
       <path d="M 49.75 54.046875 
L 41.015625 53.375 
Q 39.84375 58.546875 37.703125 60.890625 
Q 34.125 64.65625 28.90625 64.65625 
Q 24.703125 64.65625 21.53125 62.3125 
Q 17.390625 59.28125 14.984375 53.46875 
Q 12.59375 47.65625 12.5 36.921875 
Q 15.671875 41.75 20.265625 44.09375 
Q 24.859375 46.4375 29.890625 46.4375 
Q 38.671875 46.4375 44.84375 39.96875 
Q 51.03125 33.5 51.03125 23.25 
Q 51.03125 16.5 48.125 10.71875 
Q 45.21875 4.9375 40.140625 1.859375 
Q 35.0625 -1.21875 28.609375 -1.21875 
Q 17.625 -1.21875 10.6875 6.859375 
Q 3.765625 14.9375 3.765625 33.5 
Q 3.765625 54.25 11.421875 63.671875 
Q 18.109375 71.875 29.4375 71.875 
Q 37.890625 71.875 43.28125 67.140625 
Q 48.6875 62.40625 49.75 54.046875 
z
M 13.875 23.1875 
Q 13.875 18.65625 15.796875 14.5 
Q 17.71875 10.359375 21.1875 8.171875 
Q 24.65625 6 28.46875 6 
Q 34.03125 6 38.03125 10.484375 
Q 42.046875 14.984375 42.046875 22.703125 
Q 42.046875 30.125 38.078125 34.390625 
Q 34.125 38.671875 28.125 38.671875 
Q 22.171875 38.671875 18.015625 34.390625 
Q 13.875 30.125 13.875 23.1875 
z
" id="ArialMT-54"/>
      </defs>
      <g style="fill:#262626;" transform="translate(109.646674 148.597813)scale(0.1 -0.1)">
       <use xlink:href="#ArialMT-54"/>
      </g>
     </g>
    </g>
    <g id="xtick_4">
     <g id="line2d_4">
      <g>
       <use style="fill:#262626;stroke:#262626;stroke-width:0.8;" x="146.289821" xlink:href="#m08b20436f4" y="134.44"/>
      </g>
     </g>
     <g id="text_4">
      <!-- 8 -->
      <defs>
       <path d="M 17.671875 38.8125 
Q 12.203125 40.828125 9.5625 44.53125 
Q 6.9375 48.25 6.9375 53.421875 
Q 6.9375 61.234375 12.546875 66.546875 
Q 18.171875 71.875 27.484375 71.875 
Q 36.859375 71.875 42.578125 66.421875 
Q 48.296875 60.984375 48.296875 53.171875 
Q 48.296875 48.1875 45.671875 44.5 
Q 43.0625 40.828125 37.75 38.8125 
Q 44.34375 36.671875 47.78125 31.875 
Q 51.21875 27.09375 51.21875 20.453125 
Q 51.21875 11.28125 44.71875 5.03125 
Q 38.234375 -1.21875 27.640625 -1.21875 
Q 17.046875 -1.21875 10.546875 5.046875 
Q 4.046875 11.328125 4.046875 20.703125 
Q 4.046875 27.6875 7.59375 32.390625 
Q 11.140625 37.109375 17.671875 38.8125 
z
M 15.921875 53.71875 
Q 15.921875 48.640625 19.1875 45.40625 
Q 22.46875 42.1875 27.6875 42.1875 
Q 32.765625 42.1875 36.015625 45.375 
Q 39.265625 48.578125 39.265625 53.21875 
Q 39.265625 58.0625 35.90625 61.359375 
Q 32.5625 64.65625 27.59375 64.65625 
Q 22.5625 64.65625 19.234375 61.421875 
Q 15.921875 58.203125 15.921875 53.71875 
z
M 13.09375 20.65625 
Q 13.09375 16.890625 14.875 13.375 
Q 16.65625 9.859375 20.171875 7.921875 
Q 23.6875 6 27.734375 6 
Q 34.03125 6 38.125 10.046875 
Q 42.234375 14.109375 42.234375 20.359375 
Q 42.234375 26.703125 38.015625 30.859375 
Q 33.796875 35.015625 27.4375 35.015625 
Q 21.234375 35.015625 17.15625 30.90625 
Q 13.09375 26.8125 13.09375 20.65625 
z
" id="ArialMT-56"/>
      </defs>
      <g style="fill:#262626;" transform="translate(143.509353 148.597813)scale(0.1 -0.1)">
       <use xlink:href="#ArialMT-56"/>
      </g>
     </g>
    </g>
    <g id="xtick_5">
     <g id="line2d_5">
      <g>
       <use style="fill:#262626;stroke:#262626;stroke-width:0.8;" x="180.1525" xlink:href="#m08b20436f4" y="134.44"/>
      </g>
     </g>
     <g id="text_5">
      <!-- 10 -->
      <defs>
       <path d="M 37.25 0 
L 28.46875 0 
L 28.46875 56 
Q 25.296875 52.984375 20.140625 49.953125 
Q 14.984375 46.921875 10.890625 45.40625 
L 10.890625 53.90625 
Q 18.265625 57.375 23.78125 62.296875 
Q 29.296875 67.234375 31.59375 71.875 
L 37.25 71.875 
z
" id="ArialMT-49"/>
       <path d="M 4.15625 35.296875 
Q 4.15625 48 6.765625 55.734375 
Q 9.375 63.484375 14.515625 67.671875 
Q 19.671875 71.875 27.484375 71.875 
Q 33.25 71.875 37.59375 69.546875 
Q 41.9375 67.234375 44.765625 62.859375 
Q 47.609375 58.5 49.21875 52.21875 
Q 50.828125 45.953125 50.828125 35.296875 
Q 50.828125 22.703125 48.234375 14.96875 
Q 45.65625 7.234375 40.5 3 
Q 35.359375 -1.21875 27.484375 -1.21875 
Q 17.140625 -1.21875 11.234375 6.203125 
Q 4.15625 15.140625 4.15625 35.296875 
z
M 13.1875 35.296875 
Q 13.1875 17.671875 17.3125 11.828125 
Q 21.4375 6 27.484375 6 
Q 33.546875 6 37.671875 11.859375 
Q 41.796875 17.71875 41.796875 35.296875 
Q 41.796875 52.984375 37.671875 58.78125 
Q 33.546875 64.59375 27.390625 64.59375 
Q 21.34375 64.59375 17.71875 59.46875 
Q 13.1875 52.9375 13.1875 35.296875 
z
" id="ArialMT-48"/>
      </defs>
      <g style="fill:#262626;" transform="translate(174.591563 148.597813)scale(0.1 -0.1)">
       <use xlink:href="#ArialMT-49"/>
       <use x="55.615234" xlink:href="#ArialMT-48"/>
      </g>
     </g>
    </g>
    <g id="xtick_6">
     <g id="line2d_6">
      <g>
       <use style="fill:#262626;stroke:#262626;stroke-width:0.8;" x="214.015179" xlink:href="#m08b20436f4" y="134.44"/>
      </g>
     </g>
     <g id="text_6">
      <!-- 12 -->
      <g style="fill:#262626;" transform="translate(208.454241 148.597813)scale(0.1 -0.1)">
       <use xlink:href="#ArialMT-49"/>
       <use x="55.615234" xlink:href="#ArialMT-50"/>
      </g>
     </g>
    </g>
    <g id="text_7">
     <!-- pH -->
     <defs>
      <path d="M 6.59375 -19.875 
L 6.59375 51.859375 
L 14.59375 51.859375 
L 14.59375 45.125 
Q 17.4375 49.078125 21 51.046875 
Q 24.5625 53.03125 29.640625 53.03125 
Q 36.28125 53.03125 41.359375 49.609375 
Q 46.4375 46.1875 49.015625 39.953125 
Q 51.609375 33.734375 51.609375 26.3125 
Q 51.609375 18.359375 48.75 11.984375 
Q 45.90625 5.609375 40.453125 2.21875 
Q 35.015625 -1.171875 29 -1.171875 
Q 24.609375 -1.171875 21.109375 0.6875 
Q 17.625 2.546875 15.375 5.375 
L 15.375 -19.875 
z
M 14.546875 25.640625 
Q 14.546875 15.625 18.59375 10.84375 
Q 22.65625 6.0625 28.421875 6.0625 
Q 34.28125 6.0625 38.453125 11.015625 
Q 42.625 15.96875 42.625 26.375 
Q 42.625 36.28125 38.546875 41.203125 
Q 34.46875 46.140625 28.8125 46.140625 
Q 23.1875 46.140625 18.859375 40.890625 
Q 14.546875 35.640625 14.546875 25.640625 
z
" id="ArialMT-112"/>
      <path d="M 8.015625 0 
L 8.015625 71.578125 
L 17.484375 71.578125 
L 17.484375 42.1875 
L 54.6875 42.1875 
L 54.6875 71.578125 
L 64.15625 71.578125 
L 64.15625 0 
L 54.6875 0 
L 54.6875 33.734375 
L 17.484375 33.734375 
L 17.484375 0 
z
" id="ArialMT-72"/>
     </defs>
     <g style="fill:#262626;" transform="translate(122.967076 161.743125)scale(0.1 -0.1)">
      <use xlink:href="#ArialMT-112"/>
      <use x="55.615234" xlink:href="#ArialMT-72"/>
     </g>
    </g>
   </g>
   <g id="matplotlib.axis_2">
    <g id="ytick_1">
     <g id="line2d_7">
      <defs>
       <path d="M 0 0 
L -3.5 0 
" id="mc0774901b2" style="stroke:#262626;stroke-width:0.8;"/>
      </defs>
      <g>
       <use style="fill:#262626;stroke:#262626;stroke-width:0.8;" x="44.701786" xlink:href="#mc0774901b2" y="128.82"/>
      </g>
     </g>
     <g id="text_8">
      <!-- 0.0 -->
      <defs>
       <path d="M 9.078125 0 
L 9.078125 10.015625 
L 19.09375 10.015625 
L 19.09375 0 
z
" id="ArialMT-46"/>
      </defs>
      <g style="fill:#262626;" transform="translate(23.801786 132.398906)scale(0.1 -0.1)">
       <use xlink:href="#ArialMT-48"/>
       <use x="55.615234" xlink:href="#ArialMT-46"/>
       <use x="83.398438" xlink:href="#ArialMT-48"/>
      </g>
     </g>
    </g>
    <g id="ytick_2">
     <g id="line2d_8">
      <g>
       <use style="fill:#262626;stroke:#262626;stroke-width:0.8;" x="44.701786" xlink:href="#mc0774901b2" y="106.339996"/>
      </g>
     </g>
     <g id="text_9">
      <!-- 0.2 -->
      <g style="fill:#262626;" transform="translate(23.801786 109.918902)scale(0.1 -0.1)">
       <use xlink:href="#ArialMT-48"/>
       <use x="55.615234" xlink:href="#ArialMT-46"/>
       <use x="83.398438" xlink:href="#ArialMT-50"/>
      </g>
     </g>
    </g>
    <g id="ytick_3">
     <g id="line2d_9">
      <g>
       <use style="fill:#262626;stroke:#262626;stroke-width:0.8;" x="44.701786" xlink:href="#mc0774901b2" y="83.859991"/>
      </g>
     </g>
     <g id="text_10">
      <!-- 0.4 -->
      <g style="fill:#262626;" transform="translate(23.801786 87.438897)scale(0.1 -0.1)">
       <use xlink:href="#ArialMT-48"/>
       <use x="55.615234" xlink:href="#ArialMT-46"/>
       <use x="83.398438" xlink:href="#ArialMT-52"/>
      </g>
     </g>
    </g>
    <g id="ytick_4">
     <g id="line2d_10">
      <g>
       <use style="fill:#262626;stroke:#262626;stroke-width:0.8;" x="44.701786" xlink:href="#mc0774901b2" y="61.379987"/>
      </g>
     </g>
     <g id="text_11">
      <!-- 0.6 -->
      <g style="fill:#262626;" transform="translate(23.801786 64.958893)scale(0.1 -0.1)">
       <use xlink:href="#ArialMT-48"/>
       <use x="55.615234" xlink:href="#ArialMT-46"/>
       <use x="83.398438" xlink:href="#ArialMT-54"/>
      </g>
     </g>
    </g>
    <g id="ytick_5">
     <g id="line2d_11">
      <g>
       <use style="fill:#262626;stroke:#262626;stroke-width:0.8;" x="44.701786" xlink:href="#mc0774901b2" y="38.899982"/>
      </g>
     </g>
     <g id="text_12">
      <!-- 0.8 -->
      <g style="fill:#262626;" transform="translate(23.801786 42.478888)scale(0.1 -0.1)">
       <use xlink:href="#ArialMT-48"/>
       <use x="55.615234" xlink:href="#ArialMT-46"/>
       <use x="83.398438" xlink:href="#ArialMT-56"/>
      </g>
     </g>
    </g>
    <g id="ytick_6">
     <g id="line2d_12">
      <g>
       <use style="fill:#262626;stroke:#262626;stroke-width:0.8;" x="44.701786" xlink:href="#mc0774901b2" y="16.419978"/>
      </g>
     </g>
     <g id="text_13">
      <!-- 1.0 -->
      <g style="fill:#262626;" transform="translate(23.801786 19.998884)scale(0.1 -0.1)">
       <use xlink:href="#ArialMT-49"/>
       <use x="55.615234" xlink:href="#ArialMT-46"/>
       <use x="83.398438" xlink:href="#ArialMT-48"/>
      </g>
     </g>
    </g>
    <g id="text_14">
     <!-- Population -->
     <defs>
      <path d="M 7.71875 0 
L 7.71875 71.578125 
L 34.71875 71.578125 
Q 41.84375 71.578125 45.609375 70.90625 
Q 50.875 70.015625 54.4375 67.546875 
Q 58.015625 65.09375 60.1875 60.640625 
Q 62.359375 56.203125 62.359375 50.875 
Q 62.359375 41.75 56.546875 35.421875 
Q 50.734375 29.109375 35.546875 29.109375 
L 17.1875 29.109375 
L 17.1875 0 
z
M 17.1875 37.546875 
L 35.6875 37.546875 
Q 44.875 37.546875 48.734375 40.96875 
Q 52.59375 44.390625 52.59375 50.59375 
Q 52.59375 55.078125 50.3125 58.265625 
Q 48.046875 61.46875 44.34375 62.5 
Q 41.9375 63.140625 35.5 63.140625 
L 17.1875 63.140625 
z
" id="ArialMT-80"/>
      <path d="M 3.328125 25.921875 
Q 3.328125 40.328125 11.328125 47.265625 
Q 18.015625 53.03125 27.640625 53.03125 
Q 38.328125 53.03125 45.109375 46.015625 
Q 51.90625 39.015625 51.90625 26.65625 
Q 51.90625 16.65625 48.90625 10.90625 
Q 45.90625 5.171875 40.15625 2 
Q 34.421875 -1.171875 27.640625 -1.171875 
Q 16.75 -1.171875 10.03125 5.8125 
Q 3.328125 12.796875 3.328125 25.921875 
z
M 12.359375 25.921875 
Q 12.359375 15.96875 16.703125 11.015625 
Q 21.046875 6.0625 27.640625 6.0625 
Q 34.1875 6.0625 38.53125 11.03125 
Q 42.875 16.015625 42.875 26.21875 
Q 42.875 35.84375 38.5 40.796875 
Q 34.125 45.75 27.640625 45.75 
Q 21.046875 45.75 16.703125 40.8125 
Q 12.359375 35.890625 12.359375 25.921875 
z
" id="ArialMT-111"/>
      <path d="M 40.578125 0 
L 40.578125 7.625 
Q 34.515625 -1.171875 24.125 -1.171875 
Q 19.53125 -1.171875 15.546875 0.578125 
Q 11.578125 2.34375 9.640625 5 
Q 7.71875 7.671875 6.9375 11.53125 
Q 6.390625 14.109375 6.390625 19.734375 
L 6.390625 51.859375 
L 15.1875 51.859375 
L 15.1875 23.09375 
Q 15.1875 16.21875 15.71875 13.8125 
Q 16.546875 10.359375 19.234375 8.375 
Q 21.921875 6.390625 25.875 6.390625 
Q 29.828125 6.390625 33.296875 8.421875 
Q 36.765625 10.453125 38.203125 13.9375 
Q 39.65625 17.4375 39.65625 24.078125 
L 39.65625 51.859375 
L 48.4375 51.859375 
L 48.4375 0 
z
" id="ArialMT-117"/>
      <path d="M 6.390625 0 
L 6.390625 71.578125 
L 15.1875 71.578125 
L 15.1875 0 
z
" id="ArialMT-108"/>
      <path d="M 40.4375 6.390625 
Q 35.546875 2.25 31.03125 0.53125 
Q 26.515625 -1.171875 21.34375 -1.171875 
Q 12.796875 -1.171875 8.203125 3 
Q 3.609375 7.171875 3.609375 13.671875 
Q 3.609375 17.484375 5.34375 20.625 
Q 7.078125 23.78125 9.890625 25.6875 
Q 12.703125 27.59375 16.21875 28.5625 
Q 18.796875 29.25 24.03125 29.890625 
Q 34.671875 31.15625 39.703125 32.90625 
Q 39.75 34.71875 39.75 35.203125 
Q 39.75 40.578125 37.25 42.78125 
Q 33.890625 45.75 27.25 45.75 
Q 21.046875 45.75 18.09375 43.578125 
Q 15.140625 41.40625 13.71875 35.890625 
L 5.125 37.0625 
Q 6.296875 42.578125 8.984375 45.96875 
Q 11.671875 49.359375 16.75 51.1875 
Q 21.828125 53.03125 28.515625 53.03125 
Q 35.15625 53.03125 39.296875 51.46875 
Q 43.453125 49.90625 45.40625 47.53125 
Q 47.359375 45.171875 48.140625 41.546875 
Q 48.578125 39.3125 48.578125 33.453125 
L 48.578125 21.734375 
Q 48.578125 9.46875 49.140625 6.21875 
Q 49.703125 2.984375 51.375 0 
L 42.1875 0 
Q 40.828125 2.734375 40.4375 6.390625 
z
M 39.703125 26.03125 
Q 34.90625 24.078125 25.34375 22.703125 
Q 19.921875 21.921875 17.671875 20.9375 
Q 15.4375 19.96875 14.203125 18.09375 
Q 12.984375 16.21875 12.984375 13.921875 
Q 12.984375 10.40625 15.640625 8.0625 
Q 18.3125 5.71875 23.4375 5.71875 
Q 28.515625 5.71875 32.46875 7.9375 
Q 36.421875 10.15625 38.28125 14.015625 
Q 39.703125 17 39.703125 22.796875 
z
" id="ArialMT-97"/>
      <path d="M 25.78125 7.859375 
L 27.046875 0.09375 
Q 23.34375 -0.6875 20.40625 -0.6875 
Q 15.625 -0.6875 12.984375 0.828125 
Q 10.359375 2.34375 9.28125 4.8125 
Q 8.203125 7.28125 8.203125 15.1875 
L 8.203125 45.015625 
L 1.765625 45.015625 
L 1.765625 51.859375 
L 8.203125 51.859375 
L 8.203125 64.703125 
L 16.9375 69.96875 
L 16.9375 51.859375 
L 25.78125 51.859375 
L 25.78125 45.015625 
L 16.9375 45.015625 
L 16.9375 14.703125 
Q 16.9375 10.9375 17.40625 9.859375 
Q 17.875 8.796875 18.921875 8.15625 
Q 19.96875 7.515625 21.921875 7.515625 
Q 23.390625 7.515625 25.78125 7.859375 
z
" id="ArialMT-116"/>
      <path d="M 6.640625 61.46875 
L 6.640625 71.578125 
L 15.4375 71.578125 
L 15.4375 61.46875 
z
M 6.640625 0 
L 6.640625 51.859375 
L 15.4375 51.859375 
L 15.4375 0 
z
" id="ArialMT-105"/>
      <path d="M 6.59375 0 
L 6.59375 51.859375 
L 14.5 51.859375 
L 14.5 44.484375 
Q 20.21875 53.03125 31 53.03125 
Q 35.6875 53.03125 39.625 51.34375 
Q 43.5625 49.65625 45.515625 46.921875 
Q 47.46875 44.1875 48.25 40.4375 
Q 48.734375 37.984375 48.734375 31.890625 
L 48.734375 0 
L 39.9375 0 
L 39.9375 31.546875 
Q 39.9375 36.921875 38.90625 39.578125 
Q 37.890625 42.234375 35.28125 43.8125 
Q 32.671875 45.40625 29.15625 45.40625 
Q 23.53125 45.40625 19.453125 41.84375 
Q 15.375 38.28125 15.375 28.328125 
L 15.375 0 
z
" id="ArialMT-110"/>
     </defs>
     <g style="fill:#262626;" transform="translate(17.814286 96.248906)rotate(-90)scale(0.1 -0.1)">
      <use xlink:href="#ArialMT-80"/>
      <use x="66.699219" xlink:href="#ArialMT-111"/>
      <use x="122.314453" xlink:href="#ArialMT-112"/>
      <use x="177.929688" xlink:href="#ArialMT-117"/>
      <use x="233.544922" xlink:href="#ArialMT-108"/>
      <use x="255.761719" xlink:href="#ArialMT-97"/>
      <use x="311.376953" xlink:href="#ArialMT-116"/>
      <use x="339.160156" xlink:href="#ArialMT-105"/>
      <use x="361.376953" xlink:href="#ArialMT-111"/>
      <use x="416.992188" xlink:href="#ArialMT-110"/>
     </g>
    </g>
   </g>
   <g id="line2d_13">
    <path clip-path="url(#pd5342f13e1)" d="M 44.701786 128.80827 
L 46.39492 128.802361 
L 48.088054 128.793738 
L 49.781187 128.781328 
L 51.474321 128.763732 
L 53.167455 128.739168 
L 54.860589 128.705402 
L 56.553723 128.659681 
L 58.246857 128.598642 
L 59.939991 128.518186 
L 61.633125 128.413319 
L 63.326259 128.277927 
L 65.019393 128.104496 
L 66.712527 127.883759 
L 68.405661 127.604279 
L 70.098795 127.251952 
L 71.791929 126.809447 
L 73.485062 126.255585 
L 75.178196 125.564693 
L 76.87133 124.705967 
L 78.564464 123.642948 
L 80.257598 122.333223 
L 81.950732 120.728574 
L 83.643866 118.775805 
L 85.337 116.418619 
L 87.030134 113.600845 
L 88.723268 110.271331 
L 90.416402 106.390557 
L 92.109536 101.93861 
L 93.80267 96.923597 
L 95.495804 91.388862 
L 97.188937 85.416937 
L 98.882071 79.12825 
L 100.575205 72.673481 
L 102.268339 66.220104 
L 103.961473 59.935447 
L 105.654607 53.969779 
L 107.347741 48.442936 
L 109.040875 43.436789 
L 110.734009 38.994038 
L 112.427143 35.122245 
L 114.120277 31.801083 
L 115.813411 28.99075 
L 117.506545 26.639931 
L 119.199679 24.69238 
L 120.892812 23.091779 
L 122.585946 21.78495 
L 124.27908 20.723695 
L 125.972214 19.865625 
L 127.665348 19.174285 
L 129.358482 18.618863 
L 131.051616 18.173657 
L 132.74475 17.81745 
L 134.437884 17.53287 
L 136.131018 17.30578 
L 137.824152 17.124736 
L 139.517286 16.980508 
L 141.21042 16.865679 
L 142.903554 16.774299 
L 144.596688 16.701608 
L 146.289821 16.643799 
L 147.982955 16.597838 
L 149.676089 16.561303 
L 151.369223 16.532266 
L 153.062357 16.509189 
L 154.755491 16.490853 
L 156.448625 16.476283 
L 158.141759 16.464707 
L 159.834893 16.45551 
L 161.528027 16.448204 
L 163.221161 16.4424 
L 164.914295 16.437789 
L 166.607429 16.434126 
L 168.300563 16.431216 
L 169.993696 16.428905 
L 171.68683 16.427069 
L 173.379964 16.425611 
L 175.073098 16.424452 
L 176.766232 16.423532 
L 178.459366 16.422801 
L 180.1525 16.42222 
L 181.845634 16.421759 
L 183.538768 16.421393 
L 185.231902 16.421102 
L 186.925036 16.42087 
L 188.61817 16.420687 
L 190.311304 16.420541 
L 192.004438 16.420425 
L 193.697571 16.420333 
L 195.390705 16.42026 
L 197.083839 16.420202 
L 198.776973 16.420156 
L 200.470107 16.420119 
L 202.163241 16.42009 
L 203.856375 16.420067 
L 205.549509 16.420048 
L 207.242643 16.420034 
L 208.935777 16.420022 
L 210.628911 16.420013 
L 212.322045 16.420006 
L 214.015179 16.42 
" style="fill:none;stroke:#333333;stroke-linecap:round;"/>
   </g>
   <g id="line2d_14">
    <path clip-path="url(#pd5342f13e1)" d="M 44.701786 105.415008 
L 46.39492 100.863848 
L 48.088054 95.757545 
L 49.781187 90.147527 
L 51.474321 84.124946 
L 53.167455 77.818318 
L 54.860589 71.384783 
L 56.553723 64.995859 
L 58.246857 58.820316 
L 59.939991 53.007794 
L 61.633125 47.676541 
L 63.326259 42.907278 
L 65.019393 38.743362 
L 66.712527 35.195919 
L 68.405661 32.251875 
L 70.098795 29.882883 
L 71.791929 28.053643 
L 73.485062 26.728802 
L 75.178196 25.878145 
L 76.87133 25.480166 
L 78.564464 25.524226 
L 80.257598 26.011521 
L 81.950732 26.954976 
L 83.643866 28.378054 
L 85.337 30.312332 
L 87.030134 32.793624 
L 88.723268 35.856441 
L 90.416402 39.526779 
L 92.109536 43.813582 
L 93.80267 48.699859 
L 95.495804 54.13506 
L 97.188937 60.030781 
L 98.882071 66.261794 
L 100.575205 72.673481 
L 102.268339 79.095135 
L 103.961473 85.356785 
L 105.654607 91.306025 
L 107.347741 96.821315 
L 109.040875 101.819458 
L 110.734009 106.256739 
L 112.427143 110.12484 
L 114.120277 113.443538 
L 115.813411 116.252242 
L 117.506545 118.601993 
L 119.199679 120.548849 
L 120.892812 122.149 
L 122.585946 123.45554 
L 124.27908 124.516609 
L 125.972214 125.37456 
L 127.665348 126.065824 
L 129.358482 126.621198 
L 131.051616 127.066374 
L 132.74475 127.422561 
L 134.437884 127.707129 
L 136.131018 127.934211 
L 137.824152 128.115251 
L 139.517286 128.259475 
L 141.21042 128.374302 
L 142.903554 128.46568 
L 144.596688 128.538371 
L 146.289821 128.596179 
L 147.982955 128.64214 
L 149.676089 128.678675 
L 151.369223 128.707712 
L 153.062357 128.730788 
L 154.755491 128.749125 
L 156.448625 128.763695 
L 158.141759 128.775271 
L 159.834893 128.784467 
L 161.528027 128.791773 
L 163.221161 128.797578 
L 164.914295 128.802189 
L 166.607429 128.805851 
L 168.300563 128.808761 
L 169.993696 128.811072 
L 171.68683 128.812908 
L 173.379964 128.814367 
L 175.073098 128.815525 
L 176.766232 128.816446 
L 178.459366 128.817177 
L 180.1525 128.817757 
L 181.845634 128.818219 
L 183.538768 128.818585 
L 185.231902 128.818876 
L 186.925036 128.819107 
L 188.61817 128.819291 
L 190.311304 128.819437 
L 192.004438 128.819553 
L 193.697571 128.819645 
L 195.390705 128.819718 
L 197.083839 128.819776 
L 198.776973 128.819822 
L 200.470107 128.819858 
L 202.163241 128.819888 
L 203.856375 128.819911 
L 205.549509 128.819929 
L 207.242643 128.819944 
L 208.935777 128.819955 
L 210.628911 128.819964 
L 212.322045 128.819972 
L 214.015179 128.819978 
" style="fill:none;stroke:#92c5de;stroke-linecap:round;"/>
   </g>
   <g id="line2d_15">
    <path clip-path="url(#pd5342f13e1)" d="M 44.701786 39.8367 
L 46.39492 44.393769 
L 48.088054 49.508695 
L 49.781187 55.131123 
L 51.474321 61.171299 
L 53.167455 67.502492 
L 54.860589 73.969793 
L 56.553723 80.404438 
L 58.246857 86.64102 
L 59.939991 92.533997 
L 61.633125 97.970117 
L 63.326259 102.874773 
L 65.019393 107.21212 
L 66.712527 110.980299 
L 68.405661 114.203823 
L 70.098795 116.925142 
L 71.791929 119.196888 
L 73.485062 121.075591 
L 75.178196 122.61714 
L 76.87133 123.873845 
L 78.564464 124.892804 
L 80.257598 125.715234 
L 81.950732 126.376428 
L 83.643866 126.906118 
L 85.337 127.329026 
L 87.030134 127.665509 
L 88.723268 127.932205 
L 90.416402 128.142642 
L 92.109536 128.307786 
L 93.80267 128.436521 
L 95.495804 128.536056 
L 97.188937 128.61226 
L 98.882071 128.669933 
L 100.575205 128.713015 
L 102.268339 128.744738 
L 103.961473 128.767746 
L 105.654607 128.784174 
L 107.347741 128.795727 
L 109.040875 128.803731 
L 110.734009 128.809201 
L 112.427143 128.812892 
L 114.120277 128.815356 
L 115.813411 128.816985 
L 117.506545 128.818053 
L 119.199679 128.818748 
L 120.892812 128.819198 
L 122.585946 128.819488 
L 124.27908 128.819674 
L 125.972214 128.819792 
L 127.665348 128.819868 
L 129.358482 128.819916 
L 131.051616 128.819947 
L 132.74475 128.819966 
L 134.437884 128.819979 
L 136.131018 128.819987 
L 137.824152 128.819992 
L 139.517286 128.819995 
L 141.21042 128.819997 
L 142.903554 128.819998 
L 144.596688 128.819999 
L 146.289821 128.819999 
L 147.982955 128.819999 
L 149.676089 128.82 
L 151.369223 128.82 
L 153.062357 128.82 
L 154.755491 128.82 
L 156.448625 128.82 
L 158.141759 128.82 
L 159.834893 128.82 
L 161.528027 128.82 
L 163.221161 128.82 
L 164.914295 128.82 
L 166.607429 128.82 
L 168.300563 128.82 
L 169.993696 128.82 
L 171.68683 128.82 
L 173.379964 128.82 
L 175.073098 128.82 
L 176.766232 128.82 
L 178.459366 128.82 
L 180.1525 128.82 
L 181.845634 128.82 
L 183.538768 128.82 
L 185.231902 128.82 
L 186.925036 128.82 
L 188.61817 128.82 
L 190.311304 128.82 
L 192.004438 128.82 
L 193.697571 128.82 
L 195.390705 128.82 
L 197.083839 128.82 
L 198.776973 128.82 
L 200.470107 128.82 
L 202.163241 128.82 
L 203.856375 128.82 
L 205.549509 128.82 
L 207.242643 128.82 
L 208.935777 128.82 
L 210.628911 128.82 
L 212.322045 128.82 
L 214.015179 128.82 
" style="fill:none;stroke:#4393c3;stroke-linecap:round;"/>
   </g>
   <g id="line2d_16">
    <path clip-path="url(#pd5342f13e1)" d="M 44.701786 128.82 
L 46.39492 128.82 
L 48.088054 128.82 
L 49.781187 128.82 
L 51.474321 128.82 
L 53.167455 128.82 
L 54.860589 128.82 
L 56.553723 128.82 
L 58.246857 128.82 
L 59.939991 128.82 
L 61.633125 128.82 
L 63.326259 128.82 
L 65.019393 128.82 
L 66.712527 128.82 
L 68.405661 128.82 
L 70.098795 128.82 
L 71.791929 128.82 
L 73.485062 128.82 
L 75.178196 128.82 
L 76.87133 128.82 
L 78.564464 128.82 
L 80.257598 128.82 
L 81.950732 128.82 
L 83.643866 128.82 
L 85.337 128.82 
L 87.030134 128.82 
L 88.723268 128.82 
L 90.416402 128.82 
L 92.109536 128.82 
L 93.80267 128.82 
L 95.495804 128.82 
L 97.188937 128.82 
L 98.882071 128.82 
L 100.575205 128.82 
L 102.268339 128.82 
L 103.961473 128.82 
L 105.654607 128.82 
L 107.347741 128.82 
L 109.040875 128.82 
L 110.734009 128.82 
L 112.427143 128.82 
L 114.120277 128.82 
L 115.813411 128.82 
L 117.506545 128.82 
L 119.199679 128.82 
L 120.892812 128.82 
L 122.585946 128.82 
L 124.27908 128.82 
L 125.972214 128.82 
L 127.665348 128.82 
L 129.358482 128.82 
L 131.051616 128.82 
L 132.74475 128.82 
L 134.437884 128.82 
L 136.131018 128.82 
L 137.824152 128.82 
L 139.517286 128.82 
L 141.21042 128.82 
L 142.903554 128.82 
L 144.596688 128.82 
L 146.289821 128.82 
L 147.982955 128.82 
L 149.676089 128.82 
L 151.369223 128.82 
L 153.062357 128.82 
L 154.755491 128.82 
L 156.448625 128.82 
L 158.141759 128.82 
L 159.834893 128.82 
L 161.528027 128.82 
L 163.221161 128.82 
L 164.914295 128.82 
L 166.607429 128.82 
L 168.300563 128.82 
L 169.993696 128.82 
L 171.68683 128.82 
L 173.379964 128.82 
L 175.073098 128.82 
L 176.766232 128.82 
L 178.459366 128.82 
L 180.1525 128.819999 
L 181.845634 128.819999 
L 183.538768 128.819999 
L 185.231902 128.819999 
L 186.925036 128.819999 
L 188.61817 128.819998 
L 190.311304 128.819998 
L 192.004438 128.819997 
L 193.697571 128.819996 
L 195.390705 128.819995 
L 197.083839 128.819994 
L 198.776973 128.819993 
L 200.470107 128.819991 
L 202.163241 128.819988 
L 203.856375 128.819986 
L 205.549509 128.819982 
L 207.242643 128.819977 
L 208.935777 128.819971 
L 210.628911 128.819964 
L 212.322045 128.819954 
L 214.015179 128.819942 
" style="fill:none;stroke:#f4a582;stroke-dasharray:2,3.3;stroke-dashoffset:0;stroke-width:2;"/>
   </g>
   <g id="line2d_17">
    <path clip-path="url(#pd5342f13e1)" d="M 44.701786 128.819331 
L 46.39492 128.818977 
L 48.088054 128.818447 
L 49.781187 128.817664 
L 51.474321 128.816518 
L 53.167455 128.814867 
L 54.860589 128.812524 
L 56.553723 128.809246 
L 58.246857 128.804734 
L 59.939991 128.798612 
L 61.633125 128.790424 
L 63.326259 128.779609 
L 65.019393 128.765482 
L 66.712527 128.747195 
L 68.405661 128.723703 
L 70.098795 128.693698 
L 71.791929 128.65555 
L 73.485062 128.60721 
L 75.178196 128.546111 
L 76.87133 128.46903 
L 78.564464 128.371925 
L 80.257598 128.249737 
L 81.950732 128.096144 
L 83.643866 127.90326 
L 85.337 127.661283 
L 87.030134 127.358063 
L 88.723268 126.978611 
L 90.416402 126.504535 
L 92.109536 125.91342 
L 93.80267 125.178184 
L 95.495804 124.266475 
L 97.188937 123.14019 
L 98.882071 121.755281 
L 100.575205 120.062061 
L 102.268339 118.006281 
L 103.961473 115.531338 
L 105.654607 112.581936 
L 107.347741 109.109443 
L 109.040875 105.078923 
L 110.734009 100.477347 
L 112.427143 95.32184 
L 114.120277 89.66621 
L 115.813411 83.603631 
L 117.506545 77.263655 
L 119.199679 70.802857 
L 120.892812 64.390142 
L 122.585946 58.189467 
L 124.27908 52.343613 
L 125.972214 46.962272 
L 127.665348 42.116297 
L 129.358482 37.838099 
L 131.051616 34.126767 
L 132.74475 30.955822 
L 134.437884 28.281623 
L 136.131018 26.051001 
L 137.824152 24.207373 
L 139.517286 22.69512 
L 141.21042 21.462384 
L 142.903554 20.462594 
L 144.596688 19.655066 
L 146.289821 19.004998 
L 147.982955 18.483089 
L 149.676089 18.064974 
L 151.369223 17.730588 
L 153.062357 17.463535 
L 154.755491 17.25049 
L 156.448625 17.080681 
L 158.141759 16.945428 
L 159.834893 16.837759 
L 161.528027 16.752087 
L 163.221161 16.683942 
L 164.914295 16.629753 
L 166.607429 16.586672 
L 168.300563 16.552428 
L 169.993696 16.525213 
L 171.68683 16.503585 
L 173.379964 16.486399 
L 175.073098 16.472745 
L 176.766232 16.461896 
L 178.459366 16.453278 
L 180.1525 16.44643 
L 181.845634 16.440991 
L 183.538768 16.43667 
L 185.231902 16.433238 
L 186.925036 16.430511 
L 188.61817 16.428346 
L 190.311304 16.426626 
L 192.004438 16.425259 
L 193.697571 16.424174 
L 195.390705 16.423313 
L 197.083839 16.422629 
L 198.776973 16.422086 
L 200.470107 16.421656 
L 202.163241 16.421315 
L 203.856375 16.421045 
L 205.549509 16.420832 
L 207.242643 16.420665 
L 208.935777 16.420534 
L 210.628911 16.420433 
L 212.322045 16.420356 
L 214.015179 16.4203 
" style="fill:none;stroke:#333333;stroke-dasharray:2,3.3;stroke-dashoffset:0;stroke-width:2;"/>
   </g>
   <g id="line2d_18">
    <path clip-path="url(#pd5342f13e1)" d="M 44.701786 113.500717 
L 46.39492 110.20909 
L 48.088054 106.378967 
L 49.781187 101.993624 
L 51.474321 97.06444 
L 53.167455 91.637679 
L 54.860589 85.797867 
L 56.553723 79.665897 
L 58.246857 73.390943 
L 59.939991 67.136893 
L 61.633125 61.065721 
L 63.326259 55.3213 
L 65.019393 50.016965 
L 66.712527 45.228899 
L 68.405661 40.99564 
L 70.098795 37.322485 
L 71.791929 34.188818 
L 73.485062 31.556392 
L 75.178196 29.377048 
L 76.87133 27.599068 
L 78.564464 26.171876 
L 80.257598 25.049187 
L 81.950732 24.190917 
L 83.643866 23.564184 
L 85.337 23.143729 
L 87.030134 22.912006 
L 88.723268 22.859137 
L 90.416402 22.98285 
L 92.109536 23.288453 
L 93.80267 23.788882 
L 95.495804 24.504767 
L 97.188937 25.464441 
L 98.882071 26.703744 
L 100.575205 28.265402 
L 102.268339 30.197708 
L 103.961473 32.552156 
L 105.654607 35.379694 
L 107.347741 38.72537 
L 109.040875 42.621361 
L 110.734009 47.078897 
L 112.427143 52.080148 
L 114.120277 57.571814 
L 115.813411 63.462462 
L 117.506545 69.625396 
L 119.199679 75.907737 
L 120.892812 82.144694 
L 122.585946 88.176371 
L 124.27908 93.863546 
L 125.972214 99.099255 
L 127.665348 103.814379 
L 129.358482 107.977251 
L 131.051616 111.588664 
L 132.74475 114.674323 
L 134.437884 117.27665 
L 136.131018 119.447356 
L 137.824152 121.241485 
L 139.517286 122.713151 
L 141.21042 123.91281 
L 142.903554 124.88578 
L 144.596688 125.671649 
L 146.289821 126.304284 
L 147.982955 126.812198 
L 149.676089 127.219103 
L 151.369223 127.544523 
L 153.062357 127.804417 
L 154.755491 128.01175 
L 156.448625 128.177007 
L 158.141759 128.308635 
L 159.834893 128.413417 
L 161.528027 128.496793 
L 163.221161 128.563111 
L 164.914295 128.615847 
L 166.607429 128.657773 
L 168.300563 128.6911 
L 169.993696 128.717586 
L 171.68683 128.738634 
L 173.379964 128.755359 
L 175.073098 128.768647 
L 176.766232 128.779205 
L 178.459366 128.787593 
L 180.1525 128.794257 
L 181.845634 128.79955 
L 183.538768 128.803756 
L 185.231902 128.807096 
L 186.925036 128.80975 
L 188.61817 128.811858 
L 190.311304 128.813532 
L 192.004438 128.814863 
L 193.697571 128.815919 
L 195.390705 128.816758 
L 197.083839 128.817425 
L 198.776973 128.817955 
L 200.470107 128.818375 
L 202.163241 128.818709 
L 203.856375 128.818975 
L 205.549509 128.819186 
L 207.242643 128.819353 
L 208.935777 128.819486 
L 210.628911 128.819592 
L 212.322045 128.819676 
L 214.015179 128.819743 
" style="fill:none;stroke:#92c5de;stroke-dasharray:2,3.3;stroke-dashoffset:0;stroke-width:2;"/>
   </g>
   <g id="line2d_19">
    <path clip-path="url(#pd5342f13e1)" d="M 44.701786 128.398072 
L 46.39492 128.307413 
L 48.088054 128.201923 
L 49.781187 128.08114 
L 51.474321 127.945379 
L 53.167455 127.795914 
L 54.860589 127.635072 
L 56.553723 127.466184 
L 58.246857 127.293357 
L 59.939991 127.121106 
L 61.633125 126.953892 
L 63.326259 126.795678 
L 65.019393 126.649584 
L 66.712527 126.51771 
L 68.405661 126.401116 
L 70.098795 126.299949 
L 71.791929 126.213641 
L 73.485062 126.141138 
L 75.178196 126.081114 
L 76.87133 126.032144 
L 78.564464 125.992836 
L 80.257598 125.961914 
L 81.950732 125.938276 
L 83.643866 125.921014 
L 85.337 125.909434 
L 87.030134 125.903052 
L 88.723268 125.901596 
L 90.416402 125.905003 
L 92.109536 125.91342 
L 93.80267 125.927203 
L 95.495804 125.94692 
L 97.188937 125.973352 
L 98.882071 126.007485 
L 100.575205 126.050496 
L 102.268339 126.103717 
L 103.961473 126.168563 
L 105.654607 126.24644 
L 107.347741 126.338588 
L 109.040875 126.445892 
L 110.734009 126.568663 
L 112.427143 126.706409 
L 114.120277 126.857662 
L 115.813411 127.019904 
L 117.506545 127.189645 
L 119.199679 127.362675 
L 120.892812 127.534455 
L 122.585946 127.700581 
L 124.27908 127.857219 
L 125.972214 128.001423 
L 127.665348 128.131288 
L 129.358482 128.245943 
L 131.051616 128.34541 
L 132.74475 128.430396 
L 134.437884 128.50207 
L 136.131018 128.561856 
L 137.824152 128.61127 
L 139.517286 128.651803 
L 141.21042 128.684845 
L 142.903554 128.711643 
L 144.596688 128.733287 
L 146.289821 128.750711 
L 147.982955 128.764701 
L 149.676089 128.775908 
L 151.369223 128.78487 
L 153.062357 128.792029 
L 154.755491 128.797739 
L 156.448625 128.802291 
L 158.141759 128.805916 
L 159.834893 128.808802 
L 161.528027 128.811098 
L 163.221161 128.812925 
L 164.914295 128.814377 
L 166.607429 128.815532 
L 168.300563 128.81645 
L 169.993696 128.817179 
L 171.68683 128.817759 
L 173.379964 128.81822 
L 175.073098 128.818586 
L 176.766232 128.818876 
L 178.459366 128.819107 
L 180.1525 128.819291 
L 181.845634 128.819437 
L 183.538768 128.819553 
L 185.231902 128.819645 
L 186.925036 128.819718 
L 188.61817 128.819776 
L 190.311304 128.819822 
L 192.004438 128.819859 
L 193.697571 128.819888 
L 195.390705 128.819911 
L 197.083839 128.819929 
L 198.776973 128.819944 
L 200.470107 128.819955 
L 202.163241 128.819964 
L 203.856375 128.819972 
L 205.549509 128.819978 
L 207.242643 128.819982 
L 208.935777 128.819986 
L 210.628911 128.819989 
L 212.322045 128.819991 
L 214.015179 128.819993 
" style="fill:none;stroke:#92c5de;stroke-dasharray:2,3.3;stroke-dashoffset:0;stroke-width:2;"/>
   </g>
   <g id="line2d_20">
    <path clip-path="url(#pd5342f13e1)" d="M 44.701786 32.161858 
L 46.39492 35.544497 
L 48.088054 39.48064 
L 49.781187 43.98755 
L 51.474321 49.05364 
L 53.167455 54.631517 
L 54.860589 60.634515 
L 56.553723 66.938651 
L 58.246857 73.390943 
L 59.939991 79.823366 
L 61.633125 86.06994 
L 63.326259 91.98339 
L 65.019393 97.447947 
L 66.712527 102.386173 
L 68.405661 106.759518 
L 70.098795 110.563846 
L 71.791929 113.821968 
L 73.485062 116.575237 
L 75.178196 118.875705 
L 76.87133 120.779736 
L 78.564464 122.343341 
L 80.257598 123.619139 
L 81.950732 124.654641 
L 83.643866 125.491519 
L 85.337 126.165532 
L 87.030134 126.706858 
L 88.723268 127.140634 
L 90.416402 127.487589 
L 92.109536 127.764685 
L 93.80267 127.985708 
L 95.495804 128.161815 
L 97.188937 128.301995 
L 98.882071 128.413468 
L 100.575205 128.502018 
L 102.268339 128.572272 
L 103.961473 128.62792 
L 105.654607 128.671907 
L 107.347741 128.706578 
L 109.040875 128.733801 
L 110.734009 128.755071 
L 112.427143 128.77158 
L 114.120277 128.784291 
L 115.813411 128.793981 
L 117.506545 128.801281 
L 119.199679 128.806709 
L 120.892812 128.810687 
L 122.585946 128.813558 
L 124.27908 128.815599 
L 125.972214 128.817028 
L 127.665348 128.818014 
L 129.358482 128.818685 
L 131.051616 128.819136 
L 132.74475 128.819437 
L 134.437884 128.819635 
L 136.131018 128.819765 
L 137.824152 128.819849 
L 139.517286 128.819903 
L 141.21042 128.819938 
L 142.903554 128.819961 
L 144.596688 128.819975 
L 146.289821 128.819984 
L 147.982955 128.81999 
L 149.676089 128.819994 
L 151.369223 128.819996 
L 153.062357 128.819997 
L 154.755491 128.819998 
L 156.448625 128.819999 
L 158.141759 128.819999 
L 159.834893 128.82 
L 161.528027 128.82 
L 163.221161 128.82 
L 164.914295 128.82 
L 166.607429 128.82 
L 168.300563 128.82 
L 169.993696 128.82 
L 171.68683 128.82 
L 173.379964 128.82 
L 175.073098 128.82 
L 176.766232 128.82 
L 178.459366 128.82 
L 180.1525 128.82 
L 181.845634 128.82 
L 183.538768 128.82 
L 185.231902 128.82 
L 186.925036 128.82 
L 188.61817 128.82 
L 190.311304 128.82 
L 192.004438 128.82 
L 193.697571 128.82 
L 195.390705 128.82 
L 197.083839 128.82 
L 198.776973 128.82 
L 200.470107 128.82 
L 202.163241 128.82 
L 203.856375 128.82 
L 205.549509 128.82 
L 207.242643 128.82 
L 208.935777 128.82 
L 210.628911 128.82 
L 212.322045 128.82 
L 214.015179 128.82 
" style="fill:none;stroke:#4393c3;stroke-dasharray:2,3.3;stroke-dashoffset:0;stroke-width:2;"/>
   </g>
   <g id="line2d_21">
    <path clip-path="url(#pd5342f13e1)" d="M 44.701786 128.82 
L 46.39492 128.82 
L 48.088054 128.82 
L 49.781187 128.82 
L 51.474321 128.82 
L 53.167455 128.82 
L 54.860589 128.82 
L 56.553723 128.82 
L 58.246857 128.82 
L 59.939991 128.82 
L 61.633125 128.82 
L 63.326259 128.82 
L 65.019393 128.82 
L 66.712527 128.82 
L 68.405661 128.82 
L 70.098795 128.82 
L 71.791929 128.82 
L 73.485062 128.82 
L 75.178196 128.82 
L 76.87133 128.82 
L 78.564464 128.82 
L 80.257598 128.82 
L 81.950732 128.82 
L 83.643866 128.82 
L 85.337 128.82 
L 87.030134 128.82 
L 88.723268 128.82 
L 90.416402 128.82 
L 92.109536 128.82 
L 93.80267 128.82 
L 95.495804 128.82 
L 97.188937 128.82 
L 98.882071 128.82 
L 100.575205 128.82 
L 102.268339 128.82 
L 103.961473 128.82 
L 105.654607 128.82 
L 107.347741 128.82 
L 109.040875 128.82 
L 110.734009 128.82 
L 112.427143 128.82 
L 114.120277 128.82 
L 115.813411 128.82 
L 117.506545 128.82 
L 119.199679 128.82 
L 120.892812 128.82 
L 122.585946 128.82 
L 124.27908 128.82 
L 125.972214 128.82 
L 127.665348 128.82 
L 129.358482 128.82 
L 131.051616 128.82 
L 132.74475 128.82 
L 134.437884 128.82 
L 136.131018 128.82 
L 137.824152 128.82 
L 139.517286 128.82 
L 141.21042 128.82 
L 142.903554 128.82 
L 144.596688 128.82 
L 146.289821 128.82 
L 147.982955 128.82 
L 149.676089 128.82 
L 151.369223 128.82 
L 153.062357 128.82 
L 154.755491 128.82 
L 156.448625 128.82 
L 158.141759 128.82 
L 159.834893 128.82 
L 161.528027 128.82 
L 163.221161 128.82 
L 164.914295 128.82 
L 166.607429 128.82 
L 168.300563 128.82 
L 169.993696 128.82 
L 171.68683 128.82 
L 173.379964 128.82 
L 175.073098 128.82 
L 176.766232 128.82 
L 178.459366 128.82 
L 180.1525 128.82 
L 181.845634 128.82 
L 183.538768 128.82 
L 185.231902 128.82 
L 186.925036 128.82 
L 188.61817 128.82 
L 190.311304 128.82 
L 192.004438 128.82 
L 193.697571 128.82 
L 195.390705 128.82 
L 197.083839 128.82 
L 198.776973 128.82 
L 200.470107 128.82 
L 202.163241 128.82 
L 203.856375 128.82 
L 205.549509 128.82 
L 207.242643 128.82 
L 208.935777 128.82 
L 210.628911 128.82 
L 212.322045 128.82 
L 214.015179 128.82 
" style="fill:none;stroke:#333333;stroke-dasharray:2,3.3;stroke-dashoffset:0;stroke-width:2;"/>
   </g>
   <g id="patch_3">
    <path d="M 44.701786 134.44 
L 44.701786 10.8 
" style="fill:none;stroke:#262626;stroke-linecap:square;stroke-linejoin:miter;stroke-width:0.8;"/>
   </g>
   <g id="patch_4">
    <path d="M 44.701786 134.44 
L 214.015179 134.44 
" style="fill:none;stroke:#262626;stroke-linecap:square;stroke-linejoin:miter;stroke-width:0.8;"/>
   </g>
   <g id="legend_1">
    <g id="patch_5">
     <path d="M 110.480022 104.977109 
L 207.715179 104.977109 
Q 209.515179 104.977109 209.515179 103.177109 
L 209.515179 42.062891 
Q 209.515179 40.262891 207.715179 40.262891 
L 110.480022 40.262891 
Q 108.680022 40.262891 108.680022 42.062891 
L 108.680022 103.177109 
Q 108.680022 104.977109 110.480022 104.977109 
z
" style="fill:#ffffff;opacity:0.8;stroke:#cccccc;stroke-linejoin:miter;"/>
    </g>
    <g id="line2d_22">
     <path d="M 112.280022 47.012891 
L 130.280022 47.012891 
" style="fill:none;stroke:#000000;stroke-linecap:round;stroke-width:1.5;"/>
    </g>
    <g id="line2d_23"/>
    <g id="text_15">
     <!-- Exp. macrostates -->
     <defs>
      <path d="M 43.5625 3.46875 
Q 43.5625 2.59375 43.453125 1.921875 
Q 43.359375 1.265625 43.109375 0.828125 
Q 42.875 0.390625 42.546875 0.1875 
Q 42.234375 0 41.84375 0 
L 11.53125 0 
Q 10.40625 0 9.40625 0.75 
Q 8.40625 1.515625 8.40625 3.421875 
L 8.40625 59.765625 
Q 8.40625 61.671875 9.40625 62.421875 
Q 10.40625 63.1875 11.53125 63.1875 
L 41.5 63.1875 
Q 41.890625 63.1875 42.203125 62.984375 
Q 42.53125 62.796875 42.71875 62.359375 
Q 42.921875 61.921875 43.046875 61.25 
Q 43.171875 60.59375 43.171875 59.625 
Q 43.171875 58.734375 43.046875 58.078125 
Q 42.921875 57.421875 42.71875 57 
Q 42.53125 56.59375 42.203125 56.390625 
Q 41.890625 56.203125 41.5 56.203125 
L 16.796875 56.203125 
L 16.796875 36.375 
L 37.984375 36.375 
Q 38.375 36.375 38.6875 36.15625 
Q 39.015625 35.9375 39.234375 35.546875 
Q 39.453125 35.15625 39.546875 34.46875 
Q 39.65625 33.796875 39.65625 32.859375 
Q 39.65625 31.984375 39.546875 31.34375 
Q 39.453125 30.71875 39.234375 30.328125 
Q 39.015625 29.9375 38.6875 29.765625 
Q 38.375 29.59375 37.984375 29.59375 
L 16.796875 29.59375 
L 16.796875 6.984375 
L 41.84375 6.984375 
Q 42.234375 6.984375 42.546875 6.78125 
Q 42.875 6.59375 43.109375 6.171875 
Q 43.359375 5.765625 43.453125 5.09375 
Q 43.5625 4.4375 43.5625 3.46875 
z
" id="Calibri-69"/>
      <path d="M 40.765625 2.15625 
Q 41.15625 1.46875 41.15625 1 
Q 41.15625 0.53125 40.6875 0.234375 
Q 40.234375 -0.046875 39.28125 -0.171875 
Q 38.328125 -0.296875 36.8125 -0.296875 
Q 35.359375 -0.296875 34.5 -0.21875 
Q 33.640625 -0.140625 33.125 0.03125 
Q 32.625 0.203125 32.34375 0.46875 
Q 32.078125 0.734375 31.890625 1.078125 
L 21.34375 18.5 
L 10.84375 1.078125 
Q 10.640625 0.734375 10.375 0.46875 
Q 10.109375 0.203125 9.59375 0.03125 
Q 9.078125 -0.140625 8.25 -0.21875 
Q 7.421875 -0.296875 6.0625 -0.296875 
Q 4.640625 -0.296875 3.734375 -0.171875 
Q 2.828125 -0.046875 2.40625 0.234375 
Q 2 0.53125 2.015625 1 
Q 2.046875 1.46875 2.484375 2.15625 
L 16.15625 23.578125 
L 3.21875 44.234375 
Q 2.828125 44.921875 2.796875 45.375 
Q 2.78125 45.84375 3.25 46.15625 
Q 3.71875 46.484375 4.65625 46.578125 
Q 5.609375 46.6875 7.171875 46.6875 
Q 8.59375 46.6875 9.4375 46.609375 
Q 10.296875 46.53125 10.78125 46.375 
Q 11.28125 46.234375 11.515625 45.984375 
Q 11.765625 45.75 11.96875 45.40625 
L 21.96875 29.046875 
L 32.125 45.40625 
Q 32.328125 45.703125 32.5625 45.9375 
Q 32.8125 46.1875 33.21875 46.359375 
Q 33.640625 46.53125 34.390625 46.609375 
Q 35.15625 46.6875 36.46875 46.6875 
Q 37.890625 46.6875 38.796875 46.578125 
Q 39.703125 46.484375 40.140625 46.21875 
Q 40.578125 45.953125 40.53125 45.453125 
Q 40.484375 44.96875 40.046875 44.234375 
L 27.203125 23.828125 
z
" id="Calibri-120"/>
      <path d="M 47.90625 23.875 
Q 47.90625 18.109375 46.65625 13.515625 
Q 45.40625 8.9375 42.984375 5.734375 
Q 40.578125 2.546875 37.015625 0.8125 
Q 33.453125 -0.921875 28.859375 -0.921875 
Q 26.90625 -0.921875 25.234375 -0.53125 
Q 23.578125 -0.140625 21.984375 0.6875 
Q 20.40625 1.515625 18.84375 2.78125 
Q 17.28125 4.046875 15.53125 5.765625 
L 15.53125 -16.21875 
Q 15.53125 -16.609375 15.328125 -16.890625 
Q 15.140625 -17.1875 14.703125 -17.375 
Q 14.265625 -17.578125 13.484375 -17.671875 
Q 12.703125 -17.78125 11.46875 -17.78125 
Q 10.296875 -17.78125 9.515625 -17.671875 
Q 8.734375 -17.578125 8.265625 -17.375 
Q 7.8125 -17.1875 7.640625 -16.890625 
Q 7.46875 -16.609375 7.46875 -16.21875 
L 7.46875 45.171875 
Q 7.46875 45.609375 7.609375 45.875 
Q 7.765625 46.140625 8.203125 46.328125 
Q 8.640625 46.53125 9.328125 46.609375 
Q 10.015625 46.6875 10.984375 46.6875 
Q 12.015625 46.6875 12.671875 46.609375 
Q 13.328125 46.53125 13.765625 46.328125 
Q 14.203125 46.140625 14.375 45.875 
Q 14.546875 45.609375 14.546875 45.171875 
L 14.546875 39.265625 
Q 16.546875 41.3125 18.40625 42.828125 
Q 20.265625 44.34375 22.140625 45.34375 
Q 24.03125 46.34375 26 46.84375 
Q 27.984375 47.359375 30.171875 47.359375 
Q 34.96875 47.359375 38.328125 45.5 
Q 41.703125 43.65625 43.828125 40.421875 
Q 45.953125 37.203125 46.921875 32.921875 
Q 47.90625 28.65625 47.90625 23.875 
z
M 39.40625 22.953125 
Q 39.40625 26.3125 38.890625 29.46875 
Q 38.375 32.625 37.125 35.0625 
Q 35.890625 37.5 33.78125 38.96875 
Q 31.6875 40.4375 28.5625 40.4375 
Q 27 40.4375 25.484375 39.96875 
Q 23.96875 39.5 22.40625 38.5 
Q 20.84375 37.5 19.140625 35.859375 
Q 17.4375 34.234375 15.53125 31.84375 
L 15.53125 14.359375 
Q 18.84375 10.296875 21.828125 8.140625 
Q 24.8125 6 28.078125 6 
Q 31.109375 6 33.28125 7.46875 
Q 35.453125 8.9375 36.796875 11.375 
Q 38.140625 13.8125 38.765625 16.84375 
Q 39.40625 19.875 39.40625 22.953125 
z
" id="Calibri-112"/>
      <path d="M 17.875 5.328125 
Q 17.875 1.859375 16.71875 0.703125 
Q 15.578125 -0.4375 12.546875 -0.4375 
Q 9.625 -0.4375 8.5 0.6875 
Q 7.375 1.8125 7.375 5.171875 
Q 7.375 8.640625 8.515625 9.78125 
Q 9.671875 10.9375 12.703125 10.9375 
Q 15.625 10.9375 16.75 9.8125 
Q 17.875 8.6875 17.875 5.328125 
z
" id="Calibri-46"/>
      <path id="Calibri-32"/>
      <path d="M 72.65625 1.21875 
Q 72.65625 0.828125 72.453125 0.5625 
Q 72.265625 0.296875 71.828125 0.09375 
Q 71.390625 -0.09375 70.609375 -0.1875 
Q 69.828125 -0.296875 68.65625 -0.296875 
Q 67.4375 -0.296875 66.65625 -0.1875 
Q 65.875 -0.09375 65.40625 0.09375 
Q 64.9375 0.296875 64.734375 0.5625 
Q 64.546875 0.828125 64.546875 1.21875 
L 64.546875 27.9375 
Q 64.546875 30.71875 64.0625 33 
Q 63.578125 35.296875 62.5 36.953125 
Q 61.421875 38.625 59.765625 39.5 
Q 58.109375 40.375 55.859375 40.375 
Q 53.078125 40.375 50.265625 38.21875 
Q 47.46875 36.078125 44.09375 31.9375 
L 44.09375 1.21875 
Q 44.09375 0.828125 43.890625 0.5625 
Q 43.703125 0.296875 43.234375 0.09375 
Q 42.78125 -0.09375 42 -0.1875 
Q 41.21875 -0.296875 40.046875 -0.296875 
Q 38.921875 -0.296875 38.109375 -0.1875 
Q 37.3125 -0.09375 36.84375 0.09375 
Q 36.375 0.296875 36.203125 0.5625 
Q 36.03125 0.828125 36.03125 1.21875 
L 36.03125 27.9375 
Q 36.03125 30.71875 35.5 33 
Q 34.96875 35.296875 33.890625 36.953125 
Q 32.8125 38.625 31.171875 39.5 
Q 29.546875 40.375 27.296875 40.375 
Q 24.515625 40.375 21.671875 38.21875 
Q 18.84375 36.078125 15.53125 31.9375 
L 15.53125 1.21875 
Q 15.53125 0.828125 15.328125 0.5625 
Q 15.140625 0.296875 14.703125 0.09375 
Q 14.265625 -0.09375 13.484375 -0.1875 
Q 12.703125 -0.296875 11.46875 -0.296875 
Q 10.296875 -0.296875 9.515625 -0.1875 
Q 8.734375 -0.09375 8.265625 0.09375 
Q 7.8125 0.296875 7.640625 0.5625 
Q 7.46875 0.828125 7.46875 1.21875 
L 7.46875 45.171875 
Q 7.46875 45.5625 7.609375 45.828125 
Q 7.765625 46.09375 8.203125 46.3125 
Q 8.640625 46.53125 9.328125 46.609375 
Q 10.015625 46.6875 11.140625 46.6875 
Q 12.203125 46.6875 12.90625 46.609375 
Q 13.625 46.53125 14.015625 46.3125 
Q 14.40625 46.09375 14.578125 45.828125 
Q 14.75 45.5625 14.75 45.171875 
L 14.75 39.359375 
Q 18.453125 43.5 21.9375 45.421875 
Q 25.4375 47.359375 29 47.359375 
Q 31.734375 47.359375 33.90625 46.71875 
Q 36.078125 46.09375 37.734375 44.9375 
Q 39.40625 43.796875 40.578125 42.203125 
Q 41.75 40.625 42.53125 38.671875 
Q 44.734375 41.0625 46.703125 42.71875 
Q 48.6875 44.390625 50.515625 45.40625 
Q 52.34375 46.4375 54.078125 46.890625 
Q 55.8125 47.359375 57.5625 47.359375 
Q 61.8125 47.359375 64.6875 45.875 
Q 67.578125 44.390625 69.359375 41.890625 
Q 71.140625 39.40625 71.890625 36.0625 
Q 72.65625 32.71875 72.65625 29 
z
" id="Calibri-109"/>
      <path d="M 40.578125 1.171875 
Q 40.578125 0.59375 40.1875 0.296875 
Q 39.796875 0 39.109375 -0.140625 
Q 38.421875 -0.296875 37.109375 -0.296875 
Q 35.84375 -0.296875 35.078125 -0.140625 
Q 34.328125 0 33.984375 0.296875 
Q 33.640625 0.59375 33.640625 1.171875 
L 33.640625 5.5625 
Q 30.765625 2.484375 27.21875 0.78125 
Q 23.6875 -0.921875 19.734375 -0.921875 
Q 16.265625 -0.921875 13.453125 -0.015625 
Q 10.640625 0.875 8.65625 2.578125 
Q 6.6875 4.296875 5.59375 6.78125 
Q 4.5 9.28125 4.5 12.453125 
Q 4.5 16.15625 6 18.890625 
Q 7.515625 21.625 10.34375 23.4375 
Q 13.1875 25.25 17.28125 26.140625 
Q 21.390625 27.046875 26.515625 27.046875 
L 32.5625 27.046875 
L 32.5625 30.46875 
Q 32.5625 33.015625 32.03125 34.96875 
Q 31.5 36.921875 30.296875 38.203125 
Q 29.109375 39.5 27.203125 40.15625 
Q 25.296875 40.828125 22.515625 40.828125 
Q 19.53125 40.828125 17.15625 40.109375 
Q 14.796875 39.40625 13.015625 38.546875 
Q 11.234375 37.703125 10.03125 36.984375 
Q 8.84375 36.28125 8.25 36.28125 
Q 7.859375 36.28125 7.5625 36.46875 
Q 7.28125 36.671875 7.0625 37.0625 
Q 6.84375 37.453125 6.734375 38.0625 
Q 6.640625 38.671875 6.640625 39.40625 
Q 6.640625 40.625 6.8125 41.328125 
Q 6.984375 42.046875 7.640625 42.671875 
Q 8.296875 43.3125 9.90625 44.15625 
Q 11.53125 45.015625 13.625 45.71875 
Q 15.71875 46.4375 18.203125 46.890625 
Q 20.703125 47.359375 23.25 47.359375 
Q 27.984375 47.359375 31.296875 46.28125 
Q 34.625 45.21875 36.671875 43.140625 
Q 38.71875 41.0625 39.640625 37.984375 
Q 40.578125 34.90625 40.578125 30.8125 
z
M 32.5625 21.234375 
L 25.6875 21.234375 
Q 22.359375 21.234375 19.921875 20.671875 
Q 17.484375 20.125 15.875 19.015625 
Q 14.265625 17.921875 13.5 16.375 
Q 12.75 14.84375 12.75 12.84375 
Q 12.75 9.421875 14.921875 7.390625 
Q 17.09375 5.375 21 5.375 
Q 24.171875 5.375 26.875 6.984375 
Q 29.59375 8.59375 32.5625 11.921875 
z
" id="Calibri-97"/>
      <path d="M 39.0625 7.90625 
Q 39.0625 7.078125 39.015625 6.46875 
Q 38.96875 5.859375 38.84375 5.4375 
Q 38.71875 5.03125 38.546875 4.703125 
Q 38.375 4.390625 37.765625 3.78125 
Q 37.15625 3.171875 35.6875 2.265625 
Q 34.234375 1.375 32.390625 0.65625 
Q 30.5625 -0.046875 28.40625 -0.484375 
Q 26.265625 -0.921875 23.96875 -0.921875 
Q 19.234375 -0.921875 15.578125 0.640625 
Q 11.921875 2.203125 9.453125 5.203125 
Q 6.984375 8.203125 5.6875 12.5625 
Q 4.390625 16.9375 4.390625 22.65625 
Q 4.390625 29.15625 5.96875 33.8125 
Q 7.5625 38.484375 10.328125 41.453125 
Q 13.09375 44.4375 16.828125 45.875 
Q 20.5625 47.3125 24.90625 47.3125 
Q 27 47.3125 28.96875 46.921875 
Q 30.953125 46.53125 32.609375 45.890625 
Q 34.28125 45.265625 35.5625 44.4375 
Q 36.859375 43.609375 37.4375 43.015625 
Q 38.03125 42.4375 38.25 42.09375 
Q 38.484375 41.75 38.625 41.28125 
Q 38.765625 40.828125 38.8125 40.234375 
Q 38.875 39.65625 38.875 38.765625 
Q 38.875 36.859375 38.421875 36.109375 
Q 37.984375 35.359375 37.359375 35.359375 
Q 36.625 35.359375 35.671875 36.15625 
Q 34.71875 36.96875 33.25 37.9375 
Q 31.78125 38.921875 29.703125 39.71875 
Q 27.640625 40.53125 24.8125 40.53125 
Q 19 40.53125 15.890625 36.0625 
Q 12.796875 31.59375 12.796875 23.09375 
Q 12.796875 18.84375 13.59375 15.640625 
Q 14.40625 12.453125 15.96875 10.296875 
Q 17.53125 8.15625 19.796875 7.109375 
Q 22.078125 6.0625 25 6.0625 
Q 27.78125 6.0625 29.875 6.9375 
Q 31.984375 7.8125 33.515625 8.859375 
Q 35.0625 9.90625 36.109375 10.765625 
Q 37.15625 11.625 37.75 11.625 
Q 38.09375 11.625 38.328125 11.421875 
Q 38.578125 11.234375 38.75 10.765625 
Q 38.921875 10.296875 38.984375 9.59375 
Q 39.0625 8.890625 39.0625 7.90625 
z
" id="Calibri-99"/>
      <path d="M 33.15625 42.28125 
Q 33.15625 41.21875 33.109375 40.484375 
Q 33.0625 39.75 32.90625 39.328125 
Q 32.765625 38.921875 32.546875 38.703125 
Q 32.328125 38.484375 31.9375 38.484375 
Q 31.546875 38.484375 30.984375 38.703125 
Q 30.421875 38.921875 29.703125 39.140625 
Q 29 39.359375 28.125 39.546875 
Q 27.25 39.75 26.21875 39.75 
Q 25 39.75 23.828125 39.25 
Q 22.65625 38.765625 21.359375 37.640625 
Q 20.0625 36.53125 18.640625 34.671875 
Q 17.234375 32.8125 15.53125 30.125 
L 15.53125 1.21875 
Q 15.53125 0.828125 15.328125 0.5625 
Q 15.140625 0.296875 14.703125 0.09375 
Q 14.265625 -0.09375 13.484375 -0.1875 
Q 12.703125 -0.296875 11.46875 -0.296875 
Q 10.296875 -0.296875 9.515625 -0.1875 
Q 8.734375 -0.09375 8.265625 0.09375 
Q 7.8125 0.296875 7.640625 0.5625 
Q 7.46875 0.828125 7.46875 1.21875 
L 7.46875 45.171875 
Q 7.46875 45.5625 7.609375 45.828125 
Q 7.765625 46.09375 8.203125 46.3125 
Q 8.640625 46.53125 9.328125 46.609375 
Q 10.015625 46.6875 11.140625 46.6875 
Q 12.203125 46.6875 12.90625 46.609375 
Q 13.625 46.53125 14.015625 46.3125 
Q 14.40625 46.09375 14.578125 45.828125 
Q 14.75 45.5625 14.75 45.171875 
L 14.75 38.765625 
Q 16.546875 41.40625 18.140625 43.0625 
Q 19.734375 44.734375 21.140625 45.671875 
Q 22.5625 46.625 23.953125 46.984375 
Q 25.34375 47.359375 26.765625 47.359375 
Q 27.390625 47.359375 28.1875 47.28125 
Q 29 47.21875 29.875 47.015625 
Q 30.765625 46.828125 31.46875 46.578125 
Q 32.171875 46.34375 32.46875 46.09375 
Q 32.765625 45.84375 32.859375 45.625 
Q 32.953125 45.40625 33.03125 45.0625 
Q 33.109375 44.734375 33.125 44.0625 
Q 33.15625 43.40625 33.15625 42.28125 
z
" id="Calibri-114"/>
      <path d="M 48.34375 23.6875 
Q 48.34375 18.3125 46.921875 13.796875 
Q 45.515625 9.28125 42.703125 6 
Q 39.890625 2.734375 35.671875 0.90625 
Q 31.453125 -0.921875 25.875 -0.921875 
Q 20.453125 -0.921875 16.421875 0.6875 
Q 12.40625 2.296875 9.71875 5.375 
Q 7.03125 8.453125 5.703125 12.84375 
Q 4.390625 17.234375 4.390625 22.796875 
Q 4.390625 28.171875 5.78125 32.6875 
Q 7.171875 37.203125 9.984375 40.46875 
Q 12.796875 43.75 16.984375 45.546875 
Q 21.1875 47.359375 26.8125 47.359375 
Q 32.234375 47.359375 36.25 45.75 
Q 40.28125 44.140625 42.96875 41.0625 
Q 45.65625 37.984375 47 33.59375 
Q 48.34375 29.203125 48.34375 23.6875 
z
M 39.84375 23.140625 
Q 39.84375 26.703125 39.1875 29.875 
Q 38.53125 33.0625 37.015625 35.453125 
Q 35.5 37.84375 32.90625 39.234375 
Q 30.328125 40.625 26.46875 40.625 
Q 22.90625 40.625 20.34375 39.359375 
Q 17.78125 38.09375 16.109375 35.765625 
Q 14.453125 33.453125 13.640625 30.265625 
Q 12.84375 27.09375 12.84375 23.34375 
Q 12.84375 19.734375 13.5 16.546875 
Q 14.15625 13.375 15.6875 11 
Q 17.234375 8.640625 19.8125 7.25 
Q 22.40625 5.859375 26.265625 5.859375 
Q 29.78125 5.859375 32.375 7.125 
Q 34.96875 8.40625 36.625 10.6875 
Q 38.28125 12.984375 39.0625 16.15625 
Q 39.84375 19.34375 39.84375 23.140625 
z
" id="Calibri-111"/>
      <path d="M 35.0625 13.1875 
Q 35.0625 9.8125 33.8125 7.171875 
Q 32.5625 4.546875 30.265625 2.734375 
Q 27.984375 0.921875 24.796875 0 
Q 21.625 -0.921875 17.828125 -0.921875 
Q 15.484375 -0.921875 13.359375 -0.5625 
Q 11.234375 -0.203125 9.546875 0.359375 
Q 7.859375 0.921875 6.6875 1.53125 
Q 5.515625 2.15625 4.96875 2.640625 
Q 4.4375 3.125 4.1875 4 
Q 3.953125 4.890625 3.953125 6.390625 
Q 3.953125 7.328125 4.046875 7.953125 
Q 4.15625 8.59375 4.296875 8.984375 
Q 4.4375 9.375 4.703125 9.546875 
Q 4.984375 9.71875 5.328125 9.71875 
Q 5.859375 9.71875 6.90625 9.0625 
Q 7.953125 8.40625 9.484375 7.625 
Q 11.03125 6.84375 13.125 6.171875 
Q 15.234375 5.515625 17.96875 5.515625 
Q 20.015625 5.515625 21.671875 5.953125 
Q 23.34375 6.390625 24.5625 7.25 
Q 25.78125 8.109375 26.4375 9.421875 
Q 27.09375 10.75 27.09375 12.546875 
Q 27.09375 14.40625 26.140625 15.671875 
Q 25.203125 16.9375 23.640625 17.90625 
Q 22.078125 18.890625 20.125 19.640625 
Q 18.171875 20.40625 16.09375 21.234375 
Q 14.015625 22.078125 12.03125 23.125 
Q 10.0625 24.171875 8.5 25.6875 
Q 6.9375 27.203125 5.984375 29.296875 
Q 5.03125 31.390625 5.03125 34.328125 
Q 5.03125 36.921875 6.03125 39.28125 
Q 7.03125 41.65625 9.03125 43.4375 
Q 11.03125 45.21875 14.03125 46.28125 
Q 17.046875 47.359375 21.046875 47.359375 
Q 22.796875 47.359375 24.546875 47.0625 
Q 26.3125 46.78125 27.734375 46.34375 
Q 29.15625 45.90625 30.15625 45.390625 
Q 31.15625 44.875 31.65625 44.484375 
Q 32.171875 44.09375 32.34375 43.796875 
Q 32.515625 43.5 32.59375 43.140625 
Q 32.671875 42.78125 32.734375 42.234375 
Q 32.8125 41.703125 32.8125 40.921875 
Q 32.8125 40.09375 32.734375 39.484375 
Q 32.671875 38.875 32.5 38.484375 
Q 32.328125 38.09375 32.078125 37.921875 
Q 31.84375 37.75 31.546875 37.75 
Q 31.109375 37.75 30.265625 38.28125 
Q 29.4375 38.8125 28.125 39.421875 
Q 26.8125 40.046875 25.03125 40.578125 
Q 23.25 41.109375 20.953125 41.109375 
Q 18.890625 41.109375 17.328125 40.640625 
Q 15.765625 40.1875 14.765625 39.328125 
Q 13.765625 38.484375 13.25 37.3125 
Q 12.75 36.140625 12.75 34.765625 
Q 12.75 32.859375 13.71875 31.5625 
Q 14.703125 30.28125 16.265625 29.296875 
Q 17.828125 28.328125 19.828125 27.546875 
Q 21.828125 26.765625 23.90625 25.921875 
Q 25.984375 25.09375 28 24.0625 
Q 30.03125 23.046875 31.59375 21.578125 
Q 33.15625 20.125 34.109375 18.0625 
Q 35.0625 16.015625 35.0625 13.1875 
z
" id="Calibri-115"/>
      <path d="M 30.328125 4.4375 
Q 30.328125 3.03125 30.125 2.203125 
Q 29.9375 1.375 29.546875 0.984375 
Q 29.15625 0.59375 28.375 0.25 
Q 27.59375 -0.09375 26.59375 -0.3125 
Q 25.59375 -0.53125 24.46875 -0.671875 
Q 23.34375 -0.828125 22.21875 -0.828125 
Q 18.796875 -0.828125 16.359375 0.078125 
Q 13.921875 0.984375 12.359375 2.8125 
Q 10.796875 4.640625 10.078125 7.4375 
Q 9.375 10.25 9.375 14.0625 
L 9.375 39.75 
L 3.21875 39.75 
Q 2.484375 39.75 2.046875 40.53125 
Q 1.609375 41.3125 1.609375 43.0625 
Q 1.609375 44 1.734375 44.625 
Q 1.859375 45.265625 2.046875 45.671875 
Q 2.25 46.09375 2.5625 46.265625 
Q 2.875 46.4375 3.265625 46.4375 
L 9.375 46.4375 
L 9.375 56.890625 
Q 9.375 57.234375 9.546875 57.515625 
Q 9.71875 57.8125 10.171875 58.03125 
Q 10.640625 58.25 11.421875 58.34375 
Q 12.203125 58.453125 13.375 58.453125 
Q 14.59375 58.453125 15.375 58.34375 
Q 16.15625 58.25 16.59375 58.03125 
Q 17.046875 57.8125 17.234375 57.515625 
Q 17.4375 57.234375 17.4375 56.890625 
L 17.4375 46.4375 
L 28.71875 46.4375 
Q 29.109375 46.4375 29.390625 46.265625 
Q 29.6875 46.09375 29.90625 45.671875 
Q 30.125 45.265625 30.21875 44.625 
Q 30.328125 44 30.328125 43.0625 
Q 30.328125 41.3125 29.875 40.53125 
Q 29.4375 39.75 28.71875 39.75 
L 17.4375 39.75 
L 17.4375 15.234375 
Q 17.4375 10.6875 18.78125 8.375 
Q 20.125 6.0625 23.578125 6.0625 
Q 24.703125 6.0625 25.578125 6.28125 
Q 26.46875 6.5 27.140625 6.734375 
Q 27.828125 6.984375 28.3125 7.203125 
Q 28.8125 7.421875 29.203125 7.421875 
Q 29.4375 7.421875 29.65625 7.296875 
Q 29.890625 7.171875 30 6.828125 
Q 30.125 6.5 30.21875 5.90625 
Q 30.328125 5.328125 30.328125 4.4375 
z
" id="Calibri-116"/>
      <path d="M 44.96875 25.09375 
Q 44.96875 23.1875 44.015625 22.375 
Q 43.0625 21.578125 41.84375 21.578125 
L 13.03125 21.578125 
Q 13.03125 17.921875 13.765625 14.984375 
Q 14.5 12.0625 16.203125 9.953125 
Q 17.921875 7.859375 20.65625 6.734375 
Q 23.390625 5.609375 27.34375 5.609375 
Q 30.46875 5.609375 32.90625 6.125 
Q 35.359375 6.640625 37.140625 7.265625 
Q 38.921875 7.90625 40.0625 8.421875 
Q 41.21875 8.9375 41.796875 8.9375 
Q 42.140625 8.9375 42.40625 8.765625 
Q 42.671875 8.59375 42.8125 8.25 
Q 42.96875 7.90625 43.03125 7.296875 
Q 43.109375 6.6875 43.109375 5.8125 
Q 43.109375 5.171875 43.0625 4.703125 
Q 43.015625 4.25 42.9375 3.875 
Q 42.875 3.515625 42.703125 3.21875 
Q 42.53125 2.9375 42.265625 2.65625 
Q 42 2.390625 40.671875 1.78125 
Q 39.359375 1.171875 37.25 0.578125 
Q 35.15625 0 32.390625 -0.453125 
Q 29.640625 -0.921875 26.515625 -0.921875 
Q 21.09375 -0.921875 17.015625 0.578125 
Q 12.9375 2.09375 10.15625 5.078125 
Q 7.375 8.0625 5.953125 12.546875 
Q 4.546875 17.046875 4.546875 23 
Q 4.546875 28.65625 6 33.171875 
Q 7.46875 37.703125 10.21875 40.84375 
Q 12.984375 44 16.890625 45.671875 
Q 20.796875 47.359375 25.640625 47.359375 
Q 30.8125 47.359375 34.453125 45.703125 
Q 38.09375 44.046875 40.4375 41.234375 
Q 42.78125 38.421875 43.875 34.640625 
Q 44.96875 30.859375 44.96875 26.5625 
z
M 36.859375 27.484375 
Q 37.015625 33.84375 34.0625 37.453125 
Q 31.109375 41.0625 25.296875 41.0625 
Q 22.3125 41.0625 20.0625 39.9375 
Q 17.828125 38.8125 16.3125 36.953125 
Q 14.796875 35.109375 13.96875 32.640625 
Q 13.140625 30.171875 13.03125 27.484375 
z
" id="Calibri-101"/>
     </defs>
     <g style="fill:#262626;" transform="translate(137.480022 50.162891)scale(0.09 -0.09)">
      <use xlink:href="#Calibri-69"/>
      <use x="48.828125" xlink:href="#Calibri-120"/>
      <use x="92.138672" xlink:href="#Calibri-112"/>
      <use x="144.677734" xlink:href="#Calibri-46"/>
      <use x="169.921875" xlink:href="#Calibri-32"/>
      <use x="192.529297" xlink:href="#Calibri-109"/>
      <use x="272.412109" xlink:href="#Calibri-97"/>
      <use x="320.3125" xlink:href="#Calibri-99"/>
      <use x="362.597656" xlink:href="#Calibri-114"/>
      <use x="397.460938" xlink:href="#Calibri-111"/>
      <use x="450.195312" xlink:href="#Calibri-115"/>
      <use x="489.306641" xlink:href="#Calibri-116"/>
      <use x="522.802734" xlink:href="#Calibri-97"/>
      <use x="570.703125" xlink:href="#Calibri-116"/>
      <use x="604.199219" xlink:href="#Calibri-101"/>
      <use x="653.955078" xlink:href="#Calibri-115"/>
     </g>
    </g>
    <g id="line2d_24">
     <path d="M 112.280022 59.413203 
L 130.280022 59.413203 
" style="fill:none;stroke:#000000;stroke-dasharray:1.5,2.475;stroke-dashoffset:0;stroke-width:1.5;"/>
    </g>
    <g id="line2d_25"/>
    <g id="text_16">
     <!-- Jaguar microstates -->
     <defs>
      <path d="M 23.640625 15.921875 
Q 23.640625 12.15625 22.953125 9.03125 
Q 22.265625 5.90625 20.609375 3.703125 
Q 18.953125 1.515625 16.234375 0.3125 
Q 13.53125 -0.875 9.515625 -0.875 
Q 8.15625 -0.875 6.8125 -0.65625 
Q 5.46875 -0.4375 4.34375 -0.0625 
Q 3.21875 0.296875 2.390625 0.703125 
Q 1.5625 1.125 1.296875 1.40625 
Q 1.03125 1.703125 0.859375 2 
Q 0.6875 2.296875 0.5625 2.703125 
Q 0.4375 3.125 0.390625 3.734375 
Q 0.34375 4.34375 0.34375 5.21875 
Q 0.34375 6.296875 0.40625 7 
Q 0.484375 7.71875 0.671875 8.125 
Q 0.875 8.546875 1.140625 8.71875 
Q 1.421875 8.890625 1.8125 8.890625 
Q 2.203125 8.890625 2.8125 8.515625 
Q 3.421875 8.15625 4.265625 7.71875 
Q 5.125 7.28125 6.25 6.90625 
Q 7.375 6.546875 8.890625 6.546875 
Q 10.546875 6.546875 11.71875 6.953125 
Q 12.890625 7.375 13.671875 8.5 
Q 14.453125 9.625 14.84375 11.59375 
Q 15.234375 13.578125 15.234375 16.75 
L 15.234375 61.96875 
Q 15.234375 62.3125 15.421875 62.59375 
Q 15.625 62.890625 16.109375 63.078125 
Q 16.609375 63.28125 17.40625 63.375 
Q 18.21875 63.484375 19.4375 63.484375 
Q 20.609375 63.484375 21.4375 63.375 
Q 22.265625 63.28125 22.71875 63.078125 
Q 23.1875 62.890625 23.40625 62.59375 
Q 23.640625 62.3125 23.640625 61.96875 
z
" id="Calibri-74"/>
      <path d="M 44.1875 43.171875 
Q 44.1875 41.453125 43.71875 40.6875 
Q 43.265625 39.9375 42.53125 39.9375 
L 36.234375 39.9375 
Q 37.9375 38.1875 38.625 36.0625 
Q 39.3125 33.9375 39.3125 31.640625 
Q 39.3125 27.828125 38.078125 24.890625 
Q 36.859375 21.96875 34.59375 19.9375 
Q 32.328125 17.921875 29.203125 16.84375 
Q 26.078125 15.765625 22.265625 15.765625 
Q 19.578125 15.765625 17.15625 16.46875 
Q 14.75 17.1875 13.421875 18.265625 
Q 12.546875 17.390625 11.984375 16.265625 
Q 11.421875 15.140625 11.421875 13.671875 
Q 11.421875 11.96875 13 10.84375 
Q 14.59375 9.71875 17.234375 9.625 
L 28.71875 9.125 
Q 31.984375 9.03125 34.71875 8.21875 
Q 37.453125 7.421875 39.453125 5.921875 
Q 41.453125 4.4375 42.578125 2.265625 
Q 43.703125 0.09375 43.703125 -2.78125 
Q 43.703125 -5.8125 42.421875 -8.546875 
Q 41.15625 -11.28125 38.546875 -13.359375 
Q 35.9375 -15.4375 31.875 -16.625 
Q 27.828125 -17.828125 22.3125 -17.828125 
Q 17 -17.828125 13.25 -16.921875 
Q 9.515625 -16.015625 7.125 -14.453125 
Q 4.734375 -12.890625 3.65625 -10.71875 
Q 2.59375 -8.546875 2.59375 -6 
Q 2.59375 -4.390625 2.984375 -2.875 
Q 3.375 -1.375 4.171875 0 
Q 4.984375 1.375 6.171875 2.609375 
Q 7.375 3.859375 8.9375 5.078125 
Q 6.546875 6.296875 5.390625 8.15625 
Q 4.25 10.015625 4.25 12.15625 
Q 4.25 15.140625 5.46875 17.484375 
Q 6.6875 19.828125 8.5 21.6875 
Q 6.984375 23.484375 6.09375 25.75 
Q 5.21875 28.03125 5.21875 31.25 
Q 5.21875 35.015625 6.484375 37.984375 
Q 7.765625 40.96875 10 43.015625 
Q 12.25 45.0625 15.40625 46.15625 
Q 18.5625 47.265625 22.265625 47.265625 
Q 24.265625 47.265625 26 47.046875 
Q 27.734375 46.828125 29.25 46.4375 
L 42.53125 46.4375 
Q 43.359375 46.4375 43.765625 45.625 
Q 44.1875 44.828125 44.1875 43.171875 
z
M 31.59375 31.59375 
Q 31.59375 36.078125 29.125 38.59375 
Q 26.65625 41.109375 22.125 41.109375 
Q 19.78125 41.109375 18.046875 40.328125 
Q 16.3125 39.546875 15.15625 38.171875 
Q 14.015625 36.8125 13.453125 35.03125 
Q 12.890625 33.25 12.890625 31.296875 
Q 12.890625 26.953125 15.359375 24.453125 
Q 17.828125 21.96875 22.265625 21.96875 
Q 24.65625 21.96875 26.40625 22.71875 
Q 28.171875 23.484375 29.3125 24.828125 
Q 30.46875 26.171875 31.03125 27.921875 
Q 31.59375 29.6875 31.59375 31.59375 
z
M 35.640625 -3.21875 
Q 35.640625 -0.390625 33.3125 1.140625 
Q 31 2.6875 27.046875 2.78125 
L 15.671875 3.171875 
Q 14.109375 1.953125 13.109375 0.84375 
Q 12.109375 -0.25 11.515625 -1.25 
Q 10.9375 -2.25 10.71875 -3.21875 
Q 10.5 -4.203125 10.5 -5.21875 
Q 10.5 -8.40625 13.71875 -10.03125 
Q 16.9375 -11.671875 22.703125 -11.671875 
Q 26.375 -11.671875 28.828125 -10.953125 
Q 31.296875 -10.25 32.8125 -9.078125 
Q 34.328125 -7.90625 34.984375 -6.390625 
Q 35.640625 -4.890625 35.640625 -3.21875 
z
" id="Calibri-103"/>
      <path d="M 45.125 1.21875 
Q 45.125 0.828125 44.953125 0.5625 
Q 44.78125 0.296875 44.328125 0.09375 
Q 43.890625 -0.09375 43.1875 -0.1875 
Q 42.484375 -0.296875 41.453125 -0.296875 
Q 40.328125 -0.296875 39.625 -0.1875 
Q 38.921875 -0.09375 38.5 0.09375 
Q 38.09375 0.296875 37.9375 0.5625 
Q 37.796875 0.828125 37.796875 1.21875 
L 37.796875 7.03125 
Q 34.03125 2.875 30.359375 0.96875 
Q 26.703125 -0.921875 22.953125 -0.921875 
Q 18.5625 -0.921875 15.546875 0.53125 
Q 12.546875 2 10.6875 4.515625 
Q 8.84375 7.03125 8.03125 10.375 
Q 7.234375 13.71875 7.234375 18.5 
L 7.234375 45.171875 
Q 7.234375 45.5625 7.390625 45.828125 
Q 7.5625 46.09375 8.046875 46.3125 
Q 8.546875 46.53125 9.328125 46.609375 
Q 10.109375 46.6875 11.28125 46.6875 
Q 12.453125 46.6875 13.234375 46.609375 
Q 14.015625 46.53125 14.46875 46.3125 
Q 14.9375 46.09375 15.125 45.828125 
Q 15.328125 45.5625 15.328125 45.171875 
L 15.328125 19.578125 
Q 15.328125 15.71875 15.890625 13.390625 
Q 16.453125 11.078125 17.59375 9.4375 
Q 18.75 7.8125 20.5 6.90625 
Q 22.265625 6 24.609375 6 
Q 27.640625 6 30.640625 8.140625 
Q 33.640625 10.296875 37.015625 14.453125 
L 37.015625 45.171875 
Q 37.015625 45.5625 37.1875 45.828125 
Q 37.359375 46.09375 37.84375 46.3125 
Q 38.328125 46.53125 39.078125 46.609375 
Q 39.84375 46.6875 41.0625 46.6875 
Q 42.234375 46.6875 43.015625 46.609375 
Q 43.796875 46.53125 44.234375 46.3125 
Q 44.671875 46.09375 44.890625 45.828125 
Q 45.125 45.5625 45.125 45.171875 
z
" id="Calibri-117"/>
      <path d="M 15.53125 1.21875 
Q 15.53125 0.828125 15.328125 0.5625 
Q 15.140625 0.296875 14.703125 0.09375 
Q 14.265625 -0.09375 13.484375 -0.1875 
Q 12.703125 -0.296875 11.46875 -0.296875 
Q 10.296875 -0.296875 9.515625 -0.1875 
Q 8.734375 -0.09375 8.265625 0.09375 
Q 7.8125 0.296875 7.640625 0.5625 
Q 7.46875 0.828125 7.46875 1.21875 
L 7.46875 45.171875 
Q 7.46875 45.515625 7.640625 45.796875 
Q 7.8125 46.09375 8.265625 46.28125 
Q 8.734375 46.484375 9.515625 46.578125 
Q 10.296875 46.6875 11.46875 46.6875 
Q 12.703125 46.6875 13.484375 46.578125 
Q 14.265625 46.484375 14.703125 46.28125 
Q 15.140625 46.09375 15.328125 45.796875 
Q 15.53125 45.515625 15.53125 45.171875 
z
M 16.453125 60.015625 
Q 16.453125 57.171875 15.375 56.140625 
Q 14.3125 55.125 11.421875 55.125 
Q 8.59375 55.125 7.546875 56.125 
Q 6.5 57.125 6.5 59.90625 
Q 6.5 62.75 7.5625 63.765625 
Q 8.640625 64.796875 11.53125 64.796875 
Q 14.359375 64.796875 15.40625 63.796875 
Q 16.453125 62.796875 16.453125 60.015625 
z
" id="Calibri-105"/>
     </defs>
     <g style="fill:#262626;" transform="translate(137.480022 62.563203)scale(0.09 -0.09)">
      <use xlink:href="#Calibri-74"/>
      <use x="31.884766" xlink:href="#Calibri-97"/>
      <use x="79.785156" xlink:href="#Calibri-103"/>
      <use x="126.855469" xlink:href="#Calibri-117"/>
      <use x="179.394531" xlink:href="#Calibri-97"/>
      <use x="227.294922" xlink:href="#Calibri-114"/>
      <use x="262.158203" xlink:href="#Calibri-32"/>
      <use x="284.765625" xlink:href="#Calibri-109"/>
      <use x="364.648438" xlink:href="#Calibri-105"/>
      <use x="387.597656" xlink:href="#Calibri-99"/>
      <use x="429.882812" xlink:href="#Calibri-114"/>
      <use x="464.746094" xlink:href="#Calibri-111"/>
      <use x="517.480469" xlink:href="#Calibri-115"/>
      <use x="556.591797" xlink:href="#Calibri-116"/>
      <use x="590.087891" xlink:href="#Calibri-97"/>
      <use x="637.988281" xlink:href="#Calibri-116"/>
      <use x="671.484375" xlink:href="#Calibri-101"/>
      <use x="721.240234" xlink:href="#Calibri-115"/>
     </g>
    </g>
    <g id="patch_6">
     <path d="M 112.280022 74.967734 
L 130.280022 74.967734 
L 130.280022 68.667734 
L 112.280022 68.667734 
z
" style="fill:#333333;stroke:#333333;stroke-linejoin:miter;"/>
    </g>
    <g id="text_17">
     <!-- neutral -->
     <defs>
      <path d="M 45.3125 1.21875 
Q 45.3125 0.828125 45.109375 0.5625 
Q 44.921875 0.296875 44.484375 0.09375 
Q 44.046875 -0.09375 43.265625 -0.1875 
Q 42.484375 -0.296875 41.3125 -0.296875 
Q 40.09375 -0.296875 39.3125 -0.1875 
Q 38.53125 -0.09375 38.078125 0.09375 
Q 37.640625 0.296875 37.4375 0.5625 
Q 37.25 0.828125 37.25 1.21875 
L 37.25 26.953125 
Q 37.25 30.71875 36.65625 33 
Q 36.078125 35.296875 34.953125 36.953125 
Q 33.84375 38.625 32.0625 39.5 
Q 30.28125 40.375 27.9375 40.375 
Q 24.90625 40.375 21.875 38.21875 
Q 18.84375 36.078125 15.53125 31.9375 
L 15.53125 1.21875 
Q 15.53125 0.828125 15.328125 0.5625 
Q 15.140625 0.296875 14.703125 0.09375 
Q 14.265625 -0.09375 13.484375 -0.1875 
Q 12.703125 -0.296875 11.46875 -0.296875 
Q 10.296875 -0.296875 9.515625 -0.1875 
Q 8.734375 -0.09375 8.265625 0.09375 
Q 7.8125 0.296875 7.640625 0.5625 
Q 7.46875 0.828125 7.46875 1.21875 
L 7.46875 45.171875 
Q 7.46875 45.5625 7.609375 45.828125 
Q 7.765625 46.09375 8.203125 46.3125 
Q 8.640625 46.53125 9.328125 46.609375 
Q 10.015625 46.6875 11.140625 46.6875 
Q 12.203125 46.6875 12.90625 46.609375 
Q 13.625 46.53125 14.015625 46.3125 
Q 14.40625 46.09375 14.578125 45.828125 
Q 14.75 45.5625 14.75 45.171875 
L 14.75 39.359375 
Q 18.453125 43.5 22.140625 45.421875 
Q 25.828125 47.359375 29.59375 47.359375 
Q 33.984375 47.359375 36.984375 45.875 
Q 39.984375 44.390625 41.84375 41.890625 
Q 43.703125 39.40625 44.5 36.0625 
Q 45.3125 32.71875 45.3125 28.03125 
z
" id="Calibri-110"/>
      <path d="M 15.53125 1.21875 
Q 15.53125 0.828125 15.328125 0.5625 
Q 15.140625 0.296875 14.703125 0.09375 
Q 14.265625 -0.09375 13.484375 -0.1875 
Q 12.703125 -0.296875 11.46875 -0.296875 
Q 10.296875 -0.296875 9.515625 -0.1875 
Q 8.734375 -0.09375 8.265625 0.09375 
Q 7.8125 0.296875 7.640625 0.5625 
Q 7.46875 0.828125 7.46875 1.21875 
L 7.46875 66.453125 
Q 7.46875 66.84375 7.640625 67.140625 
Q 7.8125 67.4375 8.265625 67.625 
Q 8.734375 67.828125 9.515625 67.921875 
Q 10.296875 68.015625 11.46875 68.015625 
Q 12.703125 68.015625 13.484375 67.921875 
Q 14.265625 67.828125 14.703125 67.625 
Q 15.140625 67.4375 15.328125 67.140625 
Q 15.53125 66.84375 15.53125 66.453125 
z
" id="Calibri-108"/>
     </defs>
     <g style="fill:#262626;" transform="translate(137.480022 74.967734)scale(0.09 -0.09)">
      <use xlink:href="#Calibri-110"/>
      <use x="52.539062" xlink:href="#Calibri-101"/>
      <use x="102.294922" xlink:href="#Calibri-117"/>
      <use x="154.833984" xlink:href="#Calibri-116"/>
      <use x="188.330078" xlink:href="#Calibri-114"/>
      <use x="223.193359" xlink:href="#Calibri-97"/>
      <use x="271.09375" xlink:href="#Calibri-108"/>
     </g>
    </g>
    <g id="patch_7">
     <path d="M 112.280022 87.368047 
L 130.280022 87.368047 
L 130.280022 81.068047 
L 112.280022 81.068047 
z
" style="fill:#92c5de;stroke:#92c5de;stroke-linejoin:miter;"/>
    </g>
    <g id="text_18">
     <!-- +1 charge -->
     <defs>
      <path d="M 46.390625 28.125 
Q 46.390625 27.203125 46.234375 26.53125 
Q 46.09375 25.875 45.84375 25.4375 
Q 45.609375 25 45.265625 24.796875 
Q 44.921875 24.609375 44.53125 24.609375 
L 28.515625 24.609375 
L 28.515625 6.84375 
Q 28.515625 6.453125 28.3125 6.171875 
Q 28.125 5.90625 27.703125 5.703125 
Q 27.296875 5.515625 26.609375 5.390625 
Q 25.921875 5.28125 24.90625 5.28125 
Q 23.921875 5.28125 23.21875 5.390625 
Q 22.515625 5.515625 22.09375 5.703125 
Q 21.6875 5.90625 21.484375 6.171875 
Q 21.296875 6.453125 21.296875 6.84375 
L 21.296875 24.609375 
L 5.28125 24.609375 
Q 4.828125 24.609375 4.515625 24.796875 
Q 4.203125 25 3.953125 25.4375 
Q 3.71875 25.875 3.5625 26.53125 
Q 3.421875 27.203125 3.421875 28.125 
Q 3.421875 29 3.5625 29.65625 
Q 3.71875 30.328125 3.953125 30.765625 
Q 4.203125 31.203125 4.515625 31.390625 
Q 4.828125 31.59375 5.21875 31.59375 
L 21.296875 31.59375 
L 21.296875 49.359375 
Q 21.296875 49.75 21.484375 50.0625 
Q 21.6875 50.390625 22.09375 50.609375 
Q 22.515625 50.828125 23.21875 50.953125 
Q 23.921875 51.078125 24.90625 51.078125 
Q 25.921875 51.078125 26.609375 50.953125 
Q 27.296875 50.828125 27.703125 50.609375 
Q 28.125 50.390625 28.3125 50.0625 
Q 28.515625 49.75 28.515625 49.359375 
L 28.515625 31.59375 
L 44.578125 31.59375 
Q 44.96875 31.59375 45.28125 31.390625 
Q 45.609375 31.203125 45.875 30.765625 
Q 46.140625 30.328125 46.265625 29.65625 
Q 46.390625 29 46.390625 28.125 
z
" id="Calibri-43"/>
      <path d="M 45.265625 3.328125 
Q 45.265625 2.390625 45.109375 1.75 
Q 44.96875 1.125 44.71875 0.734375 
Q 44.484375 0.34375 44.15625 0.171875 
Q 43.84375 0 43.5 0 
L 10.5 0 
Q 10.15625 0 9.859375 0.171875 
Q 9.578125 0.34375 9.296875 0.734375 
Q 9.03125 1.125 8.875 1.75 
Q 8.734375 2.390625 8.734375 3.328125 
Q 8.734375 4.203125 8.875 4.828125 
Q 9.03125 5.46875 9.25 5.875 
Q 9.46875 6.296875 9.78125 6.515625 
Q 10.109375 6.734375 10.5 6.734375 
L 23.6875 6.734375 
L 23.6875 54.78125 
L 11.46875 47.515625 
Q 10.546875 47.015625 9.984375 46.921875 
Q 9.421875 46.828125 9.078125 47.140625 
Q 8.734375 47.46875 8.609375 48.1875 
Q 8.5 48.921875 8.5 50.046875 
Q 8.5 50.875 8.5625 51.453125 
Q 8.640625 52.046875 8.78125 52.4375 
Q 8.9375 52.828125 9.203125 53.125 
Q 9.46875 53.421875 9.90625 53.71875 
L 24.46875 63.03125 
Q 24.65625 63.1875 24.953125 63.28125 
Q 25.25 63.375 25.6875 63.46875 
Q 26.125 63.578125 26.703125 63.59375 
Q 27.296875 63.625 28.171875 63.625 
Q 29.34375 63.625 30.125 63.515625 
Q 30.90625 63.421875 31.34375 63.25 
Q 31.78125 63.09375 31.921875 62.8125 
Q 32.078125 62.546875 32.078125 62.25 
L 32.078125 6.734375 
L 43.5 6.734375 
Q 43.890625 6.734375 44.234375 6.515625 
Q 44.578125 6.296875 44.796875 5.875 
Q 45.015625 5.46875 45.140625 4.828125 
Q 45.265625 4.203125 45.265625 3.328125 
z
" id="Calibri-49"/>
      <path d="M 45.3125 1.21875 
Q 45.3125 0.828125 45.109375 0.5625 
Q 44.921875 0.296875 44.484375 0.09375 
Q 44.046875 -0.09375 43.265625 -0.1875 
Q 42.484375 -0.296875 41.3125 -0.296875 
Q 40.09375 -0.296875 39.3125 -0.1875 
Q 38.53125 -0.09375 38.078125 0.09375 
Q 37.640625 0.296875 37.4375 0.5625 
Q 37.25 0.828125 37.25 1.21875 
L 37.25 26.953125 
Q 37.25 30.71875 36.65625 33 
Q 36.078125 35.296875 34.953125 36.953125 
Q 33.84375 38.625 32.0625 39.5 
Q 30.28125 40.375 27.9375 40.375 
Q 24.90625 40.375 21.875 38.21875 
Q 18.84375 36.078125 15.53125 31.9375 
L 15.53125 1.21875 
Q 15.53125 0.828125 15.328125 0.5625 
Q 15.140625 0.296875 14.703125 0.09375 
Q 14.265625 -0.09375 13.484375 -0.1875 
Q 12.703125 -0.296875 11.46875 -0.296875 
Q 10.296875 -0.296875 9.515625 -0.1875 
Q 8.734375 -0.09375 8.265625 0.09375 
Q 7.8125 0.296875 7.640625 0.5625 
Q 7.46875 0.828125 7.46875 1.21875 
L 7.46875 66.453125 
Q 7.46875 66.84375 7.640625 67.140625 
Q 7.8125 67.4375 8.265625 67.625 
Q 8.734375 67.828125 9.515625 67.921875 
Q 10.296875 68.015625 11.46875 68.015625 
Q 12.703125 68.015625 13.484375 67.921875 
Q 14.265625 67.828125 14.703125 67.625 
Q 15.140625 67.4375 15.328125 67.140625 
Q 15.53125 66.84375 15.53125 66.453125 
L 15.53125 40.140625 
Q 19 43.796875 22.515625 45.578125 
Q 26.03125 47.359375 29.59375 47.359375 
Q 33.984375 47.359375 36.984375 45.875 
Q 39.984375 44.390625 41.84375 41.890625 
Q 43.703125 39.40625 44.5 36.0625 
Q 45.3125 32.71875 45.3125 27.984375 
z
" id="Calibri-104"/>
     </defs>
     <g style="fill:#262626;" transform="translate(137.480022 87.368047)scale(0.09 -0.09)">
      <use xlink:href="#Calibri-43"/>
      <use x="49.804688" xlink:href="#Calibri-49"/>
      <use x="100.488281" xlink:href="#Calibri-32"/>
      <use x="123.095703" xlink:href="#Calibri-99"/>
      <use x="165.380859" xlink:href="#Calibri-104"/>
      <use x="217.919922" xlink:href="#Calibri-97"/>
      <use x="265.820312" xlink:href="#Calibri-114"/>
      <use x="300.683594" xlink:href="#Calibri-103"/>
      <use x="347.753906" xlink:href="#Calibri-101"/>
     </g>
    </g>
    <g id="patch_8">
     <path d="M 112.280022 99.772578 
L 130.280022 99.772578 
L 130.280022 93.472578 
L 112.280022 93.472578 
z
" style="fill:#4393c3;stroke:#4393c3;stroke-linejoin:miter;"/>
    </g>
    <g id="text_19">
     <!-- +2 charge -->
     <defs>
      <path d="M 45.125 3.609375 
Q 45.125 2.734375 45 2.046875 
Q 44.875 1.375 44.65625 0.90625 
Q 44.4375 0.4375 44.0625 0.21875 
Q 43.703125 0 43.265625 0 
L 8.34375 0 
Q 7.671875 0 7.15625 0.171875 
Q 6.640625 0.34375 6.265625 0.734375 
Q 5.90625 1.125 5.734375 1.859375 
Q 5.5625 2.59375 5.5625 3.65625 
Q 5.5625 4.640625 5.640625 5.375 
Q 5.71875 6.109375 5.953125 6.671875 
Q 6.203125 7.234375 6.5625 7.78125 
Q 6.9375 8.34375 7.515625 8.984375 
L 19.78125 21.96875 
Q 24.03125 26.46875 26.59375 30.03125 
Q 29.15625 33.59375 30.546875 36.515625 
Q 31.9375 39.453125 32.375 41.84375 
Q 32.8125 44.234375 32.8125 46.34375 
Q 32.8125 48.4375 32.125 50.3125 
Q 31.453125 52.203125 30.15625 53.609375 
Q 28.859375 55.03125 26.90625 55.859375 
Q 24.953125 56.6875 22.40625 56.6875 
Q 19.4375 56.6875 17.0625 55.859375 
Q 14.703125 55.03125 12.921875 54.046875 
Q 11.140625 53.078125 9.9375 52.25 
Q 8.734375 51.421875 8.15625 51.421875 
Q 7.8125 51.421875 7.546875 51.609375 
Q 7.28125 51.8125 7.109375 52.25 
Q 6.9375 52.6875 6.828125 53.421875 
Q 6.734375 54.15625 6.734375 55.171875 
Q 6.734375 55.90625 6.78125 56.4375 
Q 6.84375 56.984375 6.953125 57.375 
Q 7.078125 57.765625 7.265625 58.109375 
Q 7.46875 58.453125 8.046875 58.953125 
Q 8.640625 59.46875 10.078125 60.34375 
Q 11.53125 61.234375 13.703125 62.078125 
Q 15.875 62.9375 18.484375 63.515625 
Q 21.09375 64.109375 23.96875 64.109375 
Q 28.5625 64.109375 32 62.8125 
Q 35.453125 61.53125 37.71875 59.28125 
Q 39.984375 57.03125 41.109375 54.046875 
Q 42.234375 51.078125 42.234375 47.703125 
Q 42.234375 44.671875 41.6875 41.671875 
Q 41.15625 38.671875 39.421875 35.171875 
Q 37.703125 31.6875 34.421875 27.40625 
Q 31.15625 23.140625 25.734375 17.578125 
L 15.71875 7.125 
L 43.21875 7.125 
Q 43.609375 7.125 43.96875 6.90625 
Q 44.34375 6.6875 44.609375 6.25 
Q 44.875 5.8125 45 5.15625 
Q 45.125 4.5 45.125 3.609375 
z
" id="Calibri-50"/>
     </defs>
     <g style="fill:#262626;" transform="translate(137.480022 99.772578)scale(0.09 -0.09)">
      <use xlink:href="#Calibri-43"/>
      <use x="49.804688" xlink:href="#Calibri-50"/>
      <use x="100.488281" xlink:href="#Calibri-32"/>
      <use x="123.095703" xlink:href="#Calibri-99"/>
      <use x="165.380859" xlink:href="#Calibri-104"/>
      <use x="217.919922" xlink:href="#Calibri-97"/>
      <use x="265.820312" xlink:href="#Calibri-114"/>
      <use x="300.683594" xlink:href="#Calibri-103"/>
      <use x="347.753906" xlink:href="#Calibri-101"/>
     </g>
    </g>
   </g>
  </g>
 </g>
 <defs>
  <clipPath id="pd5342f13e1">
   <rect height="123.64" width="169.313393" x="44.701786" y="10.8"/>
  </clipPath>
 </defs>
</svg>
