<?xml version="1.0" encoding="utf-8" standalone="no"?>
<!DOCTYPE svg PUBLIC "-//W3C//DTD SVG 1.1//EN"
  "http://www.w3.org/Graphics/SVG/1.1/DTD/svg11.dtd">
<!-- Created with matplotlib (https://matplotlib.org/) -->
<svg height="174.24pt" version="1.1" viewBox="0 0 230.4 174.24" width="230.4pt" xmlns="http://www.w3.org/2000/svg" xmlns:xlink="http://www.w3.org/1999/xlink">
 <defs>
  <style type="text/css">
*{stroke-linecap:butt;stroke-linejoin:round;}
  </style>
 </defs>
 <g id="figure_1">
  <g id="patch_1">
   <path d="M 0 174.24 
L 230.4 174.24 
L 230.4 0 
L 0 0 
z
" style="fill:#ffffff;"/>
  </g>
  <g id="axes_1">
   <g id="patch_2">
    <path d="M 48.944643 134.44 
L 214.015179 134.44 
L 214.015179 10.8 
L 48.944643 10.8 
z
" style="fill:#ffffff;"/>
   </g>
   <g id="matplotlib.axis_1">
    <g id="xtick_1">
     <g id="line2d_1">
      <defs>
       <path d="M 0 0 
L 0 3.5 
" id="m2c03bb5684" style="stroke:#262626;stroke-width:0.8;"/>
      </defs>
      <g>
       <use style="fill:#262626;stroke:#262626;stroke-width:0.8;" x="48.944643" xlink:href="#m2c03bb5684" y="134.44"/>
      </g>
     </g>
     <g id="text_1">
      <!-- 2 -->
      <defs>
       <path d="M 50.34375 8.453125 
L 50.34375 0 
L 3.03125 0 
Q 2.9375 3.171875 4.046875 6.109375 
Q 5.859375 10.9375 9.828125 15.625 
Q 13.8125 20.3125 21.34375 26.46875 
Q 33.015625 36.03125 37.109375 41.625 
Q 41.21875 47.21875 41.21875 52.203125 
Q 41.21875 57.421875 37.46875 61 
Q 33.734375 64.59375 27.734375 64.59375 
Q 21.390625 64.59375 17.578125 60.78125 
Q 13.765625 56.984375 13.71875 50.25 
L 4.6875 51.171875 
Q 5.609375 61.28125 11.65625 66.578125 
Q 17.71875 71.875 27.9375 71.875 
Q 38.234375 71.875 44.234375 66.15625 
Q 50.25 60.453125 50.25 52 
Q 50.25 47.703125 48.484375 43.546875 
Q 46.734375 39.40625 42.65625 34.8125 
Q 38.578125 30.21875 29.109375 22.21875 
Q 21.1875 15.578125 18.9375 13.203125 
Q 16.703125 10.84375 15.234375 8.453125 
z
" id="ArialMT-50"/>
      </defs>
      <g style="fill:#262626;" transform="translate(46.164174 148.597813)scale(0.1 -0.1)">
       <use xlink:href="#ArialMT-50"/>
      </g>
     </g>
    </g>
    <g id="xtick_2">
     <g id="line2d_2">
      <g>
       <use style="fill:#262626;stroke:#262626;stroke-width:0.8;" x="81.95875" xlink:href="#m2c03bb5684" y="134.44"/>
      </g>
     </g>
     <g id="text_2">
      <!-- 4 -->
      <defs>
       <path d="M 32.328125 0 
L 32.328125 17.140625 
L 1.265625 17.140625 
L 1.265625 25.203125 
L 33.9375 71.578125 
L 41.109375 71.578125 
L 41.109375 25.203125 
L 50.78125 25.203125 
L 50.78125 17.140625 
L 41.109375 17.140625 
L 41.109375 0 
z
M 32.328125 25.203125 
L 32.328125 57.46875 
L 9.90625 25.203125 
z
" id="ArialMT-52"/>
      </defs>
      <g style="fill:#262626;" transform="translate(79.178281 148.597813)scale(0.1 -0.1)">
       <use xlink:href="#ArialMT-52"/>
      </g>
     </g>
    </g>
    <g id="xtick_3">
     <g id="line2d_3">
      <g>
       <use style="fill:#262626;stroke:#262626;stroke-width:0.8;" x="114.972857" xlink:href="#m2c03bb5684" y="134.44"/>
      </g>
     </g>
     <g id="text_3">
      <!-- 6 -->
      <defs>
       <path d="M 49.75 54.046875 
L 41.015625 53.375 
Q 39.84375 58.546875 37.703125 60.890625 
Q 34.125 64.65625 28.90625 64.65625 
Q 24.703125 64.65625 21.53125 62.3125 
Q 17.390625 59.28125 14.984375 53.46875 
Q 12.59375 47.65625 12.5 36.921875 
Q 15.671875 41.75 20.265625 44.09375 
Q 24.859375 46.4375 29.890625 46.4375 
Q 38.671875 46.4375 44.84375 39.96875 
Q 51.03125 33.5 51.03125 23.25 
Q 51.03125 16.5 48.125 10.71875 
Q 45.21875 4.9375 40.140625 1.859375 
Q 35.0625 -1.21875 28.609375 -1.21875 
Q 17.625 -1.21875 10.6875 6.859375 
Q 3.765625 14.9375 3.765625 33.5 
Q 3.765625 54.25 11.421875 63.671875 
Q 18.109375 71.875 29.4375 71.875 
Q 37.890625 71.875 43.28125 67.140625 
Q 48.6875 62.40625 49.75 54.046875 
z
M 13.875 23.1875 
Q 13.875 18.65625 15.796875 14.5 
Q 17.71875 10.359375 21.1875 8.171875 
Q 24.65625 6 28.46875 6 
Q 34.03125 6 38.03125 10.484375 
Q 42.046875 14.984375 42.046875 22.703125 
Q 42.046875 30.125 38.078125 34.390625 
Q 34.125 38.671875 28.125 38.671875 
Q 22.171875 38.671875 18.015625 34.390625 
Q 13.875 30.125 13.875 23.1875 
z
" id="ArialMT-54"/>
      </defs>
      <g style="fill:#262626;" transform="translate(112.192388 148.597813)scale(0.1 -0.1)">
       <use xlink:href="#ArialMT-54"/>
      </g>
     </g>
    </g>
    <g id="xtick_4">
     <g id="line2d_4">
      <g>
       <use style="fill:#262626;stroke:#262626;stroke-width:0.8;" x="147.986964" xlink:href="#m2c03bb5684" y="134.44"/>
      </g>
     </g>
     <g id="text_4">
      <!-- 8 -->
      <defs>
       <path d="M 17.671875 38.8125 
Q 12.203125 40.828125 9.5625 44.53125 
Q 6.9375 48.25 6.9375 53.421875 
Q 6.9375 61.234375 12.546875 66.546875 
Q 18.171875 71.875 27.484375 71.875 
Q 36.859375 71.875 42.578125 66.421875 
Q 48.296875 60.984375 48.296875 53.171875 
Q 48.296875 48.1875 45.671875 44.5 
Q 43.0625 40.828125 37.75 38.8125 
Q 44.34375 36.671875 47.78125 31.875 
Q 51.21875 27.09375 51.21875 20.453125 
Q 51.21875 11.28125 44.71875 5.03125 
Q 38.234375 -1.21875 27.640625 -1.21875 
Q 17.046875 -1.21875 10.546875 5.046875 
Q 4.046875 11.328125 4.046875 20.703125 
Q 4.046875 27.6875 7.59375 32.390625 
Q 11.140625 37.109375 17.671875 38.8125 
z
M 15.921875 53.71875 
Q 15.921875 48.640625 19.1875 45.40625 
Q 22.46875 42.1875 27.6875 42.1875 
Q 32.765625 42.1875 36.015625 45.375 
Q 39.265625 48.578125 39.265625 53.21875 
Q 39.265625 58.0625 35.90625 61.359375 
Q 32.5625 64.65625 27.59375 64.65625 
Q 22.5625 64.65625 19.234375 61.421875 
Q 15.921875 58.203125 15.921875 53.71875 
z
M 13.09375 20.65625 
Q 13.09375 16.890625 14.875 13.375 
Q 16.65625 9.859375 20.171875 7.921875 
Q 23.6875 6 27.734375 6 
Q 34.03125 6 38.125 10.046875 
Q 42.234375 14.109375 42.234375 20.359375 
Q 42.234375 26.703125 38.015625 30.859375 
Q 33.796875 35.015625 27.4375 35.015625 
Q 21.234375 35.015625 17.15625 30.90625 
Q 13.09375 26.8125 13.09375 20.65625 
z
" id="ArialMT-56"/>
      </defs>
      <g style="fill:#262626;" transform="translate(145.206496 148.597813)scale(0.1 -0.1)">
       <use xlink:href="#ArialMT-56"/>
      </g>
     </g>
    </g>
    <g id="xtick_5">
     <g id="line2d_5">
      <g>
       <use style="fill:#262626;stroke:#262626;stroke-width:0.8;" x="181.001071" xlink:href="#m2c03bb5684" y="134.44"/>
      </g>
     </g>
     <g id="text_5">
      <!-- 10 -->
      <defs>
       <path d="M 37.25 0 
L 28.46875 0 
L 28.46875 56 
Q 25.296875 52.984375 20.140625 49.953125 
Q 14.984375 46.921875 10.890625 45.40625 
L 10.890625 53.90625 
Q 18.265625 57.375 23.78125 62.296875 
Q 29.296875 67.234375 31.59375 71.875 
L 37.25 71.875 
z
" id="ArialMT-49"/>
       <path d="M 4.15625 35.296875 
Q 4.15625 48 6.765625 55.734375 
Q 9.375 63.484375 14.515625 67.671875 
Q 19.671875 71.875 27.484375 71.875 
Q 33.25 71.875 37.59375 69.546875 
Q 41.9375 67.234375 44.765625 62.859375 
Q 47.609375 58.5 49.21875 52.21875 
Q 50.828125 45.953125 50.828125 35.296875 
Q 50.828125 22.703125 48.234375 14.96875 
Q 45.65625 7.234375 40.5 3 
Q 35.359375 -1.21875 27.484375 -1.21875 
Q 17.140625 -1.21875 11.234375 6.203125 
Q 4.15625 15.140625 4.15625 35.296875 
z
M 13.1875 35.296875 
Q 13.1875 17.671875 17.3125 11.828125 
Q 21.4375 6 27.484375 6 
Q 33.546875 6 37.671875 11.859375 
Q 41.796875 17.71875 41.796875 35.296875 
Q 41.796875 52.984375 37.671875 58.78125 
Q 33.546875 64.59375 27.390625 64.59375 
Q 21.34375 64.59375 17.71875 59.46875 
Q 13.1875 52.9375 13.1875 35.296875 
z
" id="ArialMT-48"/>
      </defs>
      <g style="fill:#262626;" transform="translate(175.440134 148.597813)scale(0.1 -0.1)">
       <use xlink:href="#ArialMT-49"/>
       <use x="55.615234" xlink:href="#ArialMT-48"/>
      </g>
     </g>
    </g>
    <g id="xtick_6">
     <g id="line2d_6">
      <g>
       <use style="fill:#262626;stroke:#262626;stroke-width:0.8;" x="214.015179" xlink:href="#m2c03bb5684" y="134.44"/>
      </g>
     </g>
     <g id="text_6">
      <!-- 12 -->
      <g style="fill:#262626;" transform="translate(208.454241 148.597813)scale(0.1 -0.1)">
       <use xlink:href="#ArialMT-49"/>
       <use x="55.615234" xlink:href="#ArialMT-50"/>
      </g>
     </g>
    </g>
    <g id="text_7">
     <!-- pH -->
     <defs>
      <path d="M 6.59375 -19.875 
L 6.59375 51.859375 
L 14.59375 51.859375 
L 14.59375 45.125 
Q 17.4375 49.078125 21 51.046875 
Q 24.5625 53.03125 29.640625 53.03125 
Q 36.28125 53.03125 41.359375 49.609375 
Q 46.4375 46.1875 49.015625 39.953125 
Q 51.609375 33.734375 51.609375 26.3125 
Q 51.609375 18.359375 48.75 11.984375 
Q 45.90625 5.609375 40.453125 2.21875 
Q 35.015625 -1.171875 29 -1.171875 
Q 24.609375 -1.171875 21.109375 0.6875 
Q 17.625 2.546875 15.375 5.375 
L 15.375 -19.875 
z
M 14.546875 25.640625 
Q 14.546875 15.625 18.59375 10.84375 
Q 22.65625 6.0625 28.421875 6.0625 
Q 34.28125 6.0625 38.453125 11.015625 
Q 42.625 15.96875 42.625 26.375 
Q 42.625 36.28125 38.546875 41.203125 
Q 34.46875 46.140625 28.8125 46.140625 
Q 23.1875 46.140625 18.859375 40.890625 
Q 14.546875 35.640625 14.546875 25.640625 
z
" id="ArialMT-112"/>
      <path d="M 8.015625 0 
L 8.015625 71.578125 
L 17.484375 71.578125 
L 17.484375 42.1875 
L 54.6875 42.1875 
L 54.6875 71.578125 
L 64.15625 71.578125 
L 64.15625 0 
L 54.6875 0 
L 54.6875 33.734375 
L 17.484375 33.734375 
L 17.484375 0 
z
" id="ArialMT-72"/>
     </defs>
     <g style="fill:#262626;" transform="translate(125.088504 161.743125)scale(0.1 -0.1)">
      <use xlink:href="#ArialMT-112"/>
      <use x="55.615234" xlink:href="#ArialMT-72"/>
     </g>
    </g>
   </g>
   <g id="matplotlib.axis_2">
    <g id="ytick_1">
     <g id="line2d_7">
      <defs>
       <path d="M 0 0 
L -3.5 0 
" id="m1888e8a27b" style="stroke:#262626;stroke-width:0.8;"/>
      </defs>
      <g>
       <use style="fill:#262626;stroke:#262626;stroke-width:0.8;" x="48.944643" xlink:href="#m1888e8a27b" y="128.820012"/>
      </g>
     </g>
     <g id="text_8">
      <!-- 0.0 -->
      <defs>
       <path d="M 9.078125 0 
L 9.078125 10.015625 
L 19.09375 10.015625 
L 19.09375 0 
z
" id="ArialMT-46"/>
      </defs>
      <g style="fill:#262626;" transform="translate(28.044643 132.398918)scale(0.1 -0.1)">
       <use xlink:href="#ArialMT-48"/>
       <use x="55.615234" xlink:href="#ArialMT-46"/>
       <use x="83.398438" xlink:href="#ArialMT-48"/>
      </g>
     </g>
    </g>
    <g id="ytick_2">
     <g id="line2d_8">
      <g>
       <use style="fill:#262626;stroke:#262626;stroke-width:0.8;" x="48.944643" xlink:href="#m1888e8a27b" y="98.604009"/>
      </g>
     </g>
     <g id="text_9">
      <!-- 0.5 -->
      <defs>
       <path d="M 4.15625 18.75 
L 13.375 19.53125 
Q 14.40625 12.796875 18.140625 9.390625 
Q 21.875 6 27.15625 6 
Q 33.5 6 37.890625 10.78125 
Q 42.28125 15.578125 42.28125 23.484375 
Q 42.28125 31 38.0625 35.34375 
Q 33.84375 39.703125 27 39.703125 
Q 22.75 39.703125 19.328125 37.765625 
Q 15.921875 35.84375 13.96875 32.765625 
L 5.71875 33.84375 
L 12.640625 70.609375 
L 48.25 70.609375 
L 48.25 62.203125 
L 19.671875 62.203125 
L 15.828125 42.96875 
Q 22.265625 47.46875 29.34375 47.46875 
Q 38.71875 47.46875 45.15625 40.96875 
Q 51.609375 34.46875 51.609375 24.265625 
Q 51.609375 14.546875 45.953125 7.46875 
Q 39.0625 -1.21875 27.15625 -1.21875 
Q 17.390625 -1.21875 11.203125 4.25 
Q 5.03125 9.71875 4.15625 18.75 
z
" id="ArialMT-53"/>
      </defs>
      <g style="fill:#262626;" transform="translate(28.044643 102.182915)scale(0.1 -0.1)">
       <use xlink:href="#ArialMT-48"/>
       <use x="55.615234" xlink:href="#ArialMT-46"/>
       <use x="83.398438" xlink:href="#ArialMT-53"/>
      </g>
     </g>
    </g>
    <g id="ytick_3">
     <g id="line2d_9">
      <g>
       <use style="fill:#262626;stroke:#262626;stroke-width:0.8;" x="48.944643" xlink:href="#m1888e8a27b" y="68.388006"/>
      </g>
     </g>
     <g id="text_10">
      <!-- 1.0 -->
      <g style="fill:#262626;" transform="translate(28.044643 71.966912)scale(0.1 -0.1)">
       <use xlink:href="#ArialMT-49"/>
       <use x="55.615234" xlink:href="#ArialMT-46"/>
       <use x="83.398438" xlink:href="#ArialMT-48"/>
      </g>
     </g>
    </g>
    <g id="ytick_4">
     <g id="line2d_10">
      <g>
       <use style="fill:#262626;stroke:#262626;stroke-width:0.8;" x="48.944643" xlink:href="#m1888e8a27b" y="38.172003"/>
      </g>
     </g>
     <g id="text_11">
      <!-- 1.5 -->
      <g style="fill:#262626;" transform="translate(28.044643 41.750909)scale(0.1 -0.1)">
       <use xlink:href="#ArialMT-49"/>
       <use x="55.615234" xlink:href="#ArialMT-46"/>
       <use x="83.398438" xlink:href="#ArialMT-53"/>
      </g>
     </g>
    </g>
    <g id="text_12">
     <!-- $Q_\mathrm{avg}$ -->
     <defs>
      <path d="M 36.078125 -1.3125 
Q 35.546875 -1.375 34.953125 -1.390625 
Q 34.375 -1.421875 33.203125 -1.421875 
Q 19.53125 -1.421875 11.8125 6.421875 
Q 4.109375 14.265625 4.109375 28.078125 
Q 4.109375 36.234375 7.0625 44.4375 
Q 10.015625 52.640625 15.28125 59.1875 
Q 21.390625 66.703125 29.03125 70.453125 
Q 36.671875 74.21875 45.90625 74.21875 
Q 59.28125 74.21875 66.984375 66.328125 
Q 74.703125 58.453125 74.703125 44.828125 
Q 74.703125 30.125 66.640625 17.921875 
Q 58.59375 5.71875 45.609375 0.6875 
L 55.515625 -12.890625 
L 44.484375 -12.890625 
z
M 45.609375 66.21875 
Q 37.5 66.21875 31.296875 62.28125 
Q 25.09375 58.34375 20.515625 50.296875 
Q 17.578125 45.171875 16.03125 39.40625 
Q 14.5 33.640625 14.5 27.78125 
Q 14.5 17.625 19.359375 12.109375 
Q 24.21875 6.59375 33.109375 6.59375 
Q 41.109375 6.59375 47.375 10.5625 
Q 53.65625 14.546875 58.109375 22.40625 
Q 61.078125 27.6875 62.640625 33.46875 
Q 64.203125 39.265625 64.203125 45.015625 
Q 64.203125 55.125 59.3125 60.671875 
Q 54.4375 66.21875 45.609375 66.21875 
z
" id="DejaVuSans-Oblique-81"/>
      <path d="M 34.28125 27.484375 
Q 23.390625 27.484375 19.1875 25 
Q 14.984375 22.515625 14.984375 16.5 
Q 14.984375 11.71875 18.140625 8.90625 
Q 21.296875 6.109375 26.703125 6.109375 
Q 34.1875 6.109375 38.703125 11.40625 
Q 43.21875 16.703125 43.21875 25.484375 
L 43.21875 27.484375 
z
M 52.203125 31.203125 
L 52.203125 0 
L 43.21875 0 
L 43.21875 8.296875 
Q 40.140625 3.328125 35.546875 0.953125 
Q 30.953125 -1.421875 24.3125 -1.421875 
Q 15.921875 -1.421875 10.953125 3.296875 
Q 6 8.015625 6 15.921875 
Q 6 25.140625 12.171875 29.828125 
Q 18.359375 34.515625 30.609375 34.515625 
L 43.21875 34.515625 
L 43.21875 35.40625 
Q 43.21875 41.609375 39.140625 45 
Q 35.0625 48.390625 27.6875 48.390625 
Q 23 48.390625 18.546875 47.265625 
Q 14.109375 46.140625 10.015625 43.890625 
L 10.015625 52.203125 
Q 14.9375 54.109375 19.578125 55.046875 
Q 24.21875 56 28.609375 56 
Q 40.484375 56 46.34375 49.84375 
Q 52.203125 43.703125 52.203125 31.203125 
z
" id="DejaVuSans-97"/>
      <path d="M 2.984375 54.6875 
L 12.5 54.6875 
L 29.59375 8.796875 
L 46.6875 54.6875 
L 56.203125 54.6875 
L 35.6875 0 
L 23.484375 0 
z
" id="DejaVuSans-118"/>
      <path d="M 45.40625 27.984375 
Q 45.40625 37.75 41.375 43.109375 
Q 37.359375 48.484375 30.078125 48.484375 
Q 22.859375 48.484375 18.828125 43.109375 
Q 14.796875 37.75 14.796875 27.984375 
Q 14.796875 18.265625 18.828125 12.890625 
Q 22.859375 7.515625 30.078125 7.515625 
Q 37.359375 7.515625 41.375 12.890625 
Q 45.40625 18.265625 45.40625 27.984375 
z
M 54.390625 6.78125 
Q 54.390625 -7.171875 48.1875 -13.984375 
Q 42 -20.796875 29.203125 -20.796875 
Q 24.46875 -20.796875 20.265625 -20.09375 
Q 16.0625 -19.390625 12.109375 -17.921875 
L 12.109375 -9.1875 
Q 16.0625 -11.328125 19.921875 -12.34375 
Q 23.78125 -13.375 27.78125 -13.375 
Q 36.625 -13.375 41.015625 -8.765625 
Q 45.40625 -4.15625 45.40625 5.171875 
L 45.40625 9.625 
Q 42.625 4.78125 38.28125 2.390625 
Q 33.9375 0 27.875 0 
Q 17.828125 0 11.671875 7.65625 
Q 5.515625 15.328125 5.515625 27.984375 
Q 5.515625 40.671875 11.671875 48.328125 
Q 17.828125 56 27.875 56 
Q 33.9375 56 38.28125 53.609375 
Q 42.625 51.21875 45.40625 46.390625 
L 45.40625 54.6875 
L 54.390625 54.6875 
z
" id="DejaVuSans-103"/>
     </defs>
     <g style="fill:#262626;" transform="translate(20.944643 83.17)rotate(-90)scale(0.1 -0.1)">
      <use transform="translate(0 0.78125)" xlink:href="#DejaVuSans-Oblique-81"/>
      <use transform="translate(78.710938 -15.625)scale(0.7)" xlink:href="#DejaVuSans-97"/>
      <use transform="translate(121.606445 -15.625)scale(0.7)" xlink:href="#DejaVuSans-118"/>
      <use transform="translate(163.032227 -15.625)scale(0.7)" xlink:href="#DejaVuSans-103"/>
     </g>
    </g>
   </g>
   <g id="PolyCollection_1">
    <path clip-path="url(#pc6596fa0dc)" d="M 48.944643 20.552336 
L 48.944643 20.552336 
L 50.595348 23.005626 
L 52.246054 25.760308 
L 53.896759 28.789886 
L 55.547464 32.046854 
L 57.19817 35.464034 
L 58.848875 38.959341 
L 60.49958 42.443517 
L 62.150286 45.829441 
L 63.800991 49.041064 
L 65.451696 52.020182 
L 67.102402 54.72997 
L 68.753107 57.155195 
L 70.403813 59.299841 
L 72.054518 61.183235 
L 73.705223 62.835784 
L 75.355929 64.295104 
L 77.006634 65.602976 
L 78.657339 66.803251 
L 80.308045 67.940614 
L 81.95875 69.059993 
L 83.609455 70.206348 
L 85.260161 71.424582 
L 86.910866 72.759278 
L 88.561571 74.253999 
L 90.212277 75.949889 
L 91.862982 77.883396 
L 93.513688 80.08304 
L 95.164393 82.565425 
L 96.815098 85.330967 
L 98.465804 88.360239 
L 100.116509 91.612023 
L 101.767214 95.024151 
L 103.41792 98.517728 
L 105.068625 102.00445 
L 106.71933 105.395774 
L 108.370036 108.612055 
L 110.020741 111.589779 
L 111.671446 114.285644 
L 113.322152 116.677235 
L 114.972857 118.760894 
L 116.623563 120.547846 
L 118.274268 122.0597 
L 119.924973 123.324195 
L 121.575679 124.371672 
L 123.226384 125.232479 
L 124.877089 125.935253 
L 126.527795 126.505938 
L 128.1785 126.967344 
L 129.829205 127.339084 
L 131.479911 127.637734 
L 133.130616 127.877116 
L 134.781321 128.068641 
L 136.432027 128.221653 
L 138.082732 128.343752 
L 139.733438 128.441094 
L 141.384143 128.518639 
L 143.034848 128.580378 
L 144.685554 128.629509 
L 146.336259 128.668593 
L 147.986964 128.699674 
L 149.63767 128.724385 
L 151.288375 128.744028 
L 152.93908 128.75964 
L 154.589786 128.772047 
L 156.240491 128.781906 
L 157.891196 128.789739 
L 159.541902 128.795963 
L 161.192607 128.800908 
L 162.843313 128.804836 
L 164.494018 128.807957 
L 166.144723 128.810436 
L 167.795429 128.812405 
L 169.446134 128.813969 
L 171.096839 128.815212 
L 172.747545 128.816199 
L 174.39825 128.816983 
L 176.048955 128.817606 
L 177.699661 128.818101 
L 179.350366 128.818494 
L 181.001071 128.818806 
L 182.651777 128.819054 
L 184.302482 128.819251 
L 185.953188 128.819408 
L 187.603893 128.819532 
L 189.254598 128.819631 
L 190.905304 128.819709 
L 192.556009 128.819771 
L 194.206714 128.819821 
L 195.85742 128.81986 
L 197.508125 128.819891 
L 199.15883 128.819916 
L 200.809536 128.819936 
L 202.460241 128.819952 
L 204.110946 128.819964 
L 205.761652 128.819974 
L 207.412357 128.819982 
L 209.063063 128.819988 
L 210.713768 128.819993 
L 212.364473 128.819997 
L 214.015179 128.82 
L 214.015179 128.82 
L 214.015179 128.819901 
L 212.364473 128.819858 
L 210.713768 128.819806 
L 209.063063 128.819744 
L 207.412357 128.819667 
L 205.761652 128.819572 
L 204.110946 128.819454 
L 202.460241 128.819305 
L 200.809536 128.819119 
L 199.15883 128.818886 
L 197.508125 128.818593 
L 195.85742 128.818224 
L 194.206714 128.81776 
L 192.556009 128.817175 
L 190.905304 128.81644 
L 189.254598 128.815515 
L 187.603893 128.81435 
L 185.953188 128.812884 
L 184.302482 128.811038 
L 182.651777 128.808715 
L 181.001071 128.80579 
L 179.350366 128.802109 
L 177.699661 128.797475 
L 176.048955 128.791642 
L 174.39825 128.784301 
L 172.747545 128.775061 
L 171.096839 128.763433 
L 169.446134 128.7488 
L 167.795429 128.730388 
L 166.144723 128.707226 
L 164.494018 128.678091 
L 162.843313 128.641453 
L 161.192607 128.595391 
L 159.541902 128.537503 
L 157.891196 128.464784 
L 156.240491 128.373485 
L 154.589786 128.258941 
L 152.93908 128.115358 
L 151.288375 127.935575 
L 149.63767 127.710772 
L 147.986964 127.430164 
L 146.336259 127.080649 
L 144.685554 126.646473 
L 143.034848 126.108923 
L 141.384143 125.446122 
L 139.733438 124.633028 
L 138.082732 123.641754 
L 136.432027 122.442388 
L 134.781321 121.004495 
L 133.130616 119.299471 
L 131.479911 117.303826 
L 129.829205 115.003287 
L 128.1785 112.397313 
L 126.527795 109.503261 
L 124.877089 106.359133 
L 123.226384 103.023789 
L 121.575679 99.573846 
L 119.924973 96.097272 
L 118.274268 92.684651 
L 116.623563 89.419889 
L 114.972857 86.372299 
L 113.322152 83.591558 
L 111.671446 81.106079 
L 110.020741 78.924429 
L 108.370036 77.038798 
L 106.71933 75.429399 
L 105.068625 74.068824 
L 103.41792 72.925759 
L 101.767214 71.967788 
L 100.116509 71.163257 
L 98.465804 70.48234 
L 96.815098 69.897475 
L 95.164393 69.383341 
L 93.513688 68.916546 
L 91.862982 68.475117 
L 90.212277 68.037885 
L 88.561571 67.583814 
L 86.910866 67.09133 
L 85.260161 66.537678 
L 83.609455 65.89836 
L 81.95875 65.146731 
L 80.308045 64.253848 
L 78.657339 63.1887 
L 77.006634 61.919001 
L 75.355929 60.412713 
L 73.705223 58.640469 
L 72.054518 56.578936 
L 70.403813 54.214971 
L 68.753107 51.550096 
L 67.102402 48.604475 
L 65.451696 45.419287 
L 63.800991 42.056407 
L 62.150286 38.594716 
L 60.49958 35.123207 
L 58.848875 31.732018 
L 57.19817 28.503239 
L 55.547464 25.5034 
L 53.896759 22.778994 
L 52.246054 20.355427 
L 50.595348 18.23887 
L 48.944643 16.42 
z
" style="fill:#2288bb;fill-opacity:0.85;stroke:#ffffff;stroke-opacity:0.85;"/>
   </g>
   <g id="line2d_11">
    <path clip-path="url(#pc6596fa0dc)" d="M 48.944643 20.552336 
L 50.595348 23.005626 
L 52.246054 25.760308 
L 53.896759 28.789886 
L 55.547464 32.046854 
L 57.19817 35.464034 
L 58.848875 38.959341 
L 60.49958 42.443517 
L 62.150286 45.829441 
L 63.800991 49.041064 
L 65.451696 52.020182 
L 67.102402 54.72997 
L 68.753107 57.155195 
L 70.403813 59.299841 
L 72.054518 61.183235 
L 73.705223 62.835784 
L 75.355929 64.295104 
L 77.006634 65.602976 
L 78.657339 66.803251 
L 80.308045 67.940614 
L 81.95875 69.059993 
L 83.609455 70.206348 
L 85.260161 71.424582 
L 86.910866 72.759278 
L 88.561571 74.253999 
L 90.212277 75.949889 
L 91.862982 77.883396 
L 93.513688 80.08304 
L 95.164393 82.565425 
L 96.815098 85.330967 
L 98.465804 88.360239 
L 100.116509 91.612023 
L 101.767214 95.024151 
L 103.41792 98.517728 
L 105.068625 102.00445 
L 106.71933 105.395774 
L 108.370036 108.612055 
L 110.020741 111.589779 
L 111.671446 114.285644 
L 113.322152 116.677235 
L 114.972857 118.760894 
L 116.623563 120.547846 
L 118.274268 122.0597 
L 119.924973 123.324195 
L 121.575679 124.371672 
L 123.226384 125.232479 
L 124.877089 125.935253 
L 126.527795 126.505938 
L 128.1785 126.967344 
L 129.829205 127.339084 
L 131.479911 127.637734 
L 133.130616 127.877116 
L 134.781321 128.068641 
L 136.432027 128.221653 
L 138.082732 128.343752 
L 139.733438 128.441094 
L 141.384143 128.518639 
L 143.034848 128.580378 
L 144.685554 128.629509 
L 146.336259 128.668593 
L 147.986964 128.699674 
L 149.63767 128.724385 
L 151.288375 128.744028 
L 152.93908 128.75964 
L 154.589786 128.772047 
L 156.240491 128.781906 
L 157.891196 128.789739 
L 159.541902 128.795963 
L 161.192607 128.800908 
L 162.843313 128.804836 
L 164.494018 128.807957 
L 166.144723 128.810436 
L 167.795429 128.812405 
L 169.446134 128.813969 
L 171.096839 128.815212 
L 172.747545 128.816199 
L 174.39825 128.816983 
L 176.048955 128.817606 
L 177.699661 128.818101 
L 179.350366 128.818494 
L 181.001071 128.818806 
L 182.651777 128.819054 
L 184.302482 128.819251 
L 185.953188 128.819408 
L 187.603893 128.819532 
L 189.254598 128.819631 
L 190.905304 128.819709 
L 192.556009 128.819771 
L 194.206714 128.819821 
L 195.85742 128.81986 
L 197.508125 128.819891 
L 199.15883 128.819916 
L 200.809536 128.819936 
L 202.460241 128.819952 
L 204.110946 128.819964 
L 205.761652 128.819974 
L 207.412357 128.819982 
L 209.063063 128.819988 
L 210.713768 128.819993 
L 212.364473 128.819997 
L 214.015179 128.82 
" style="fill:none;stroke:#000000;stroke-linecap:round;stroke-width:1.5;"/>
   </g>
   <g id="line2d_12">
    <path clip-path="url(#pc6596fa0dc)" d="M 48.944643 16.42 
L 50.595348 18.23887 
L 52.246054 20.355427 
L 53.896759 22.778994 
L 55.547464 25.5034 
L 57.19817 28.503239 
L 58.848875 31.732018 
L 60.49958 35.123207 
L 62.150286 38.594716 
L 63.800991 42.056407 
L 65.451696 45.419287 
L 67.102402 48.604475 
L 68.753107 51.550096 
L 70.403813 54.214971 
L 72.054518 56.578936 
L 73.705223 58.640469 
L 75.355929 60.412713 
L 77.006634 61.919001 
L 78.657339 63.1887 
L 80.308045 64.253848 
L 81.95875 65.146731 
L 83.609455 65.89836 
L 85.260161 66.537678 
L 86.910866 67.09133 
L 88.561571 67.583814 
L 90.212277 68.037885 
L 91.862982 68.475117 
L 93.513688 68.916546 
L 95.164393 69.383341 
L 96.815098 69.897475 
L 98.465804 70.48234 
L 100.116509 71.163257 
L 101.767214 71.967788 
L 103.41792 72.925759 
L 105.068625 74.068824 
L 106.71933 75.429399 
L 108.370036 77.038798 
L 110.020741 78.924429 
L 111.671446 81.106079 
L 113.322152 83.591558 
L 114.972857 86.372299 
L 116.623563 89.419889 
L 118.274268 92.684651 
L 119.924973 96.097272 
L 121.575679 99.573846 
L 123.226384 103.023789 
L 124.877089 106.359133 
L 126.527795 109.503261 
L 128.1785 112.397313 
L 129.829205 115.003287 
L 131.479911 117.303826 
L 133.130616 119.299471 
L 134.781321 121.004495 
L 136.432027 122.442388 
L 138.082732 123.641754 
L 139.733438 124.633028 
L 141.384143 125.446122 
L 143.034848 126.108923 
L 144.685554 126.646473 
L 146.336259 127.080649 
L 147.986964 127.430164 
L 149.63767 127.710772 
L 151.288375 127.935575 
L 152.93908 128.115358 
L 154.589786 128.258941 
L 156.240491 128.373485 
L 157.891196 128.464784 
L 159.541902 128.537503 
L 161.192607 128.595391 
L 162.843313 128.641453 
L 164.494018 128.678091 
L 166.144723 128.707226 
L 167.795429 128.730388 
L 169.446134 128.7488 
L 171.096839 128.763433 
L 172.747545 128.775061 
L 174.39825 128.784301 
L 176.048955 128.791642 
L 177.699661 128.797475 
L 179.350366 128.802109 
L 181.001071 128.80579 
L 182.651777 128.808715 
L 184.302482 128.811038 
L 185.953188 128.812884 
L 187.603893 128.81435 
L 189.254598 128.815515 
L 190.905304 128.81644 
L 192.556009 128.817175 
L 194.206714 128.81776 
L 195.85742 128.818224 
L 197.508125 128.818593 
L 199.15883 128.818886 
L 200.809536 128.819119 
L 202.460241 128.819305 
L 204.110946 128.819454 
L 205.761652 128.819572 
L 207.412357 128.819667 
L 209.063063 128.819744 
L 210.713768 128.819806 
L 212.364473 128.819858 
L 214.015179 128.819901 
" style="fill:none;stroke:#000000;stroke-dasharray:1.5,2.475;stroke-dashoffset:0;stroke-width:1.5;"/>
   </g>
   <g id="patch_3">
    <path d="M 48.944643 134.44 
L 48.944643 10.8 
" style="fill:none;stroke:#262626;stroke-linecap:square;stroke-linejoin:miter;stroke-width:0.8;"/>
   </g>
   <g id="patch_4">
    <path d="M 48.944643 134.44 
L 214.015179 134.44 
" style="fill:none;stroke:#262626;stroke-linecap:square;stroke-linejoin:miter;stroke-width:0.8;"/>
   </g>
   <g id="legend_1">
    <g id="patch_5">
     <path d="M 101.875179 56.617031 
L 207.715179 56.617031 
Q 209.515179 56.617031 209.515179 54.817031 
L 209.515179 17.1 
Q 209.515179 15.3 207.715179 15.3 
L 101.875179 15.3 
Q 100.075179 15.3 100.075179 17.1 
L 100.075179 54.817031 
Q 100.075179 56.617031 101.875179 56.617031 
z
" style="fill:#ffffff;opacity:0.8;stroke:#cccccc;stroke-linejoin:miter;"/>
    </g>
    <g id="line2d_13">
     <path d="M 103.675179 22.192031 
L 121.675179 22.192031 
" style="fill:none;stroke:#000000;stroke-linecap:round;stroke-width:1.5;"/>
    </g>
    <g id="line2d_14"/>
    <g id="text_13">
     <!-- Experiment -->
     <defs>
      <path d="M 7.90625 0 
L 7.90625 71.578125 
L 59.671875 71.578125 
L 59.671875 63.140625 
L 17.390625 63.140625 
L 17.390625 41.21875 
L 56.984375 41.21875 
L 56.984375 32.8125 
L 17.390625 32.8125 
L 17.390625 8.453125 
L 61.328125 8.453125 
L 61.328125 0 
z
" id="ArialMT-69"/>
      <path d="M 0.734375 0 
L 19.671875 26.953125 
L 2.15625 51.859375 
L 13.140625 51.859375 
L 21.09375 39.703125 
Q 23.34375 36.234375 24.703125 33.890625 
Q 26.859375 37.109375 28.65625 39.59375 
L 37.40625 51.859375 
L 47.90625 51.859375 
L 29.984375 27.4375 
L 49.265625 0 
L 38.484375 0 
L 27.828125 16.109375 
L 25 20.453125 
L 11.375 0 
z
" id="ArialMT-120"/>
      <path d="M 42.09375 16.703125 
L 51.171875 15.578125 
Q 49.03125 7.625 43.21875 3.21875 
Q 37.40625 -1.171875 28.375 -1.171875 
Q 17 -1.171875 10.328125 5.828125 
Q 3.65625 12.84375 3.65625 25.484375 
Q 3.65625 38.578125 10.390625 45.796875 
Q 17.140625 53.03125 27.875 53.03125 
Q 38.28125 53.03125 44.875 45.953125 
Q 51.46875 38.875 51.46875 26.03125 
Q 51.46875 25.25 51.421875 23.6875 
L 12.75 23.6875 
Q 13.234375 15.140625 17.578125 10.59375 
Q 21.921875 6.0625 28.421875 6.0625 
Q 33.25 6.0625 36.671875 8.59375 
Q 40.09375 11.140625 42.09375 16.703125 
z
M 13.234375 30.90625 
L 42.1875 30.90625 
Q 41.609375 37.453125 38.875 40.71875 
Q 34.671875 45.796875 27.984375 45.796875 
Q 21.921875 45.796875 17.796875 41.75 
Q 13.671875 37.703125 13.234375 30.90625 
z
" id="ArialMT-101"/>
      <path d="M 6.5 0 
L 6.5 51.859375 
L 14.40625 51.859375 
L 14.40625 44 
Q 17.4375 49.515625 20 51.265625 
Q 22.5625 53.03125 25.640625 53.03125 
Q 30.078125 53.03125 34.671875 50.203125 
L 31.640625 42.046875 
Q 28.421875 43.953125 25.203125 43.953125 
Q 22.3125 43.953125 20.015625 42.21875 
Q 17.71875 40.484375 16.75 37.40625 
Q 15.28125 32.71875 15.28125 27.15625 
L 15.28125 0 
z
" id="ArialMT-114"/>
      <path d="M 6.640625 61.46875 
L 6.640625 71.578125 
L 15.4375 71.578125 
L 15.4375 61.46875 
z
M 6.640625 0 
L 6.640625 51.859375 
L 15.4375 51.859375 
L 15.4375 0 
z
" id="ArialMT-105"/>
      <path d="M 6.59375 0 
L 6.59375 51.859375 
L 14.453125 51.859375 
L 14.453125 44.578125 
Q 16.890625 48.390625 20.9375 50.703125 
Q 25 53.03125 30.171875 53.03125 
Q 35.9375 53.03125 39.625 50.640625 
Q 43.3125 48.25 44.828125 43.953125 
Q 50.984375 53.03125 60.84375 53.03125 
Q 68.5625 53.03125 72.703125 48.75 
Q 76.859375 44.484375 76.859375 35.59375 
L 76.859375 0 
L 68.109375 0 
L 68.109375 32.671875 
Q 68.109375 37.9375 67.25 40.25 
Q 66.40625 42.578125 64.15625 43.984375 
Q 61.921875 45.40625 58.890625 45.40625 
Q 53.421875 45.40625 49.796875 41.765625 
Q 46.1875 38.140625 46.1875 30.125 
L 46.1875 0 
L 37.40625 0 
L 37.40625 33.6875 
Q 37.40625 39.546875 35.25 42.46875 
Q 33.109375 45.40625 28.21875 45.40625 
Q 24.515625 45.40625 21.359375 43.453125 
Q 18.21875 41.5 16.796875 37.734375 
Q 15.375 33.984375 15.375 26.90625 
L 15.375 0 
z
" id="ArialMT-109"/>
      <path d="M 6.59375 0 
L 6.59375 51.859375 
L 14.5 51.859375 
L 14.5 44.484375 
Q 20.21875 53.03125 31 53.03125 
Q 35.6875 53.03125 39.625 51.34375 
Q 43.5625 49.65625 45.515625 46.921875 
Q 47.46875 44.1875 48.25 40.4375 
Q 48.734375 37.984375 48.734375 31.890625 
L 48.734375 0 
L 39.9375 0 
L 39.9375 31.546875 
Q 39.9375 36.921875 38.90625 39.578125 
Q 37.890625 42.234375 35.28125 43.8125 
Q 32.671875 45.40625 29.15625 45.40625 
Q 23.53125 45.40625 19.453125 41.84375 
Q 15.375 38.28125 15.375 28.328125 
L 15.375 0 
z
" id="ArialMT-110"/>
      <path d="M 25.78125 7.859375 
L 27.046875 0.09375 
Q 23.34375 -0.6875 20.40625 -0.6875 
Q 15.625 -0.6875 12.984375 0.828125 
Q 10.359375 2.34375 9.28125 4.8125 
Q 8.203125 7.28125 8.203125 15.1875 
L 8.203125 45.015625 
L 1.765625 45.015625 
L 1.765625 51.859375 
L 8.203125 51.859375 
L 8.203125 64.703125 
L 16.9375 69.96875 
L 16.9375 51.859375 
L 25.78125 51.859375 
L 25.78125 45.015625 
L 16.9375 45.015625 
L 16.9375 14.703125 
Q 16.9375 10.9375 17.40625 9.859375 
Q 17.875 8.796875 18.921875 8.15625 
Q 19.96875 7.515625 21.921875 7.515625 
Q 23.390625 7.515625 25.78125 7.859375 
z
" id="ArialMT-116"/>
     </defs>
     <g style="fill:#262626;" transform="translate(128.875179 25.342031)scale(0.09 -0.09)">
      <use xlink:href="#ArialMT-69"/>
      <use x="66.699219" xlink:href="#ArialMT-120"/>
      <use x="116.699219" xlink:href="#ArialMT-112"/>
      <use x="172.314453" xlink:href="#ArialMT-101"/>
      <use x="227.929688" xlink:href="#ArialMT-114"/>
      <use x="261.230469" xlink:href="#ArialMT-105"/>
      <use x="283.447266" xlink:href="#ArialMT-109"/>
      <use x="366.748047" xlink:href="#ArialMT-101"/>
      <use x="422.363281" xlink:href="#ArialMT-110"/>
      <use x="477.978516" xlink:href="#ArialMT-116"/>
     </g>
    </g>
    <g id="line2d_15">
     <path d="M 103.675179 34.922813 
L 121.675179 34.922813 
" style="fill:none;stroke:#000000;stroke-dasharray:1.5,2.475;stroke-dashoffset:0;stroke-width:1.5;"/>
    </g>
    <g id="line2d_16"/>
    <g id="text_14">
     <!-- Jaguar -->
     <defs>
      <path d="M 2.875 20.3125 
L 11.421875 21.484375 
Q 11.765625 13.28125 14.5 10.25 
Q 17.234375 7.234375 22.078125 7.234375 
Q 25.640625 7.234375 28.21875 8.859375 
Q 30.8125 10.5 31.78125 13.296875 
Q 32.765625 16.109375 32.765625 22.265625 
L 32.765625 71.578125 
L 42.234375 71.578125 
L 42.234375 22.796875 
Q 42.234375 13.8125 40.0625 8.875 
Q 37.890625 3.953125 33.171875 1.359375 
Q 28.46875 -1.21875 22.125 -1.21875 
Q 12.703125 -1.21875 7.6875 4.203125 
Q 2.6875 9.625 2.875 20.3125 
z
" id="ArialMT-74"/>
      <path d="M 40.4375 6.390625 
Q 35.546875 2.25 31.03125 0.53125 
Q 26.515625 -1.171875 21.34375 -1.171875 
Q 12.796875 -1.171875 8.203125 3 
Q 3.609375 7.171875 3.609375 13.671875 
Q 3.609375 17.484375 5.34375 20.625 
Q 7.078125 23.78125 9.890625 25.6875 
Q 12.703125 27.59375 16.21875 28.5625 
Q 18.796875 29.25 24.03125 29.890625 
Q 34.671875 31.15625 39.703125 32.90625 
Q 39.75 34.71875 39.75 35.203125 
Q 39.75 40.578125 37.25 42.78125 
Q 33.890625 45.75 27.25 45.75 
Q 21.046875 45.75 18.09375 43.578125 
Q 15.140625 41.40625 13.71875 35.890625 
L 5.125 37.0625 
Q 6.296875 42.578125 8.984375 45.96875 
Q 11.671875 49.359375 16.75 51.1875 
Q 21.828125 53.03125 28.515625 53.03125 
Q 35.15625 53.03125 39.296875 51.46875 
Q 43.453125 49.90625 45.40625 47.53125 
Q 47.359375 45.171875 48.140625 41.546875 
Q 48.578125 39.3125 48.578125 33.453125 
L 48.578125 21.734375 
Q 48.578125 9.46875 49.140625 6.21875 
Q 49.703125 2.984375 51.375 0 
L 42.1875 0 
Q 40.828125 2.734375 40.4375 6.390625 
z
M 39.703125 26.03125 
Q 34.90625 24.078125 25.34375 22.703125 
Q 19.921875 21.921875 17.671875 20.9375 
Q 15.4375 19.96875 14.203125 18.09375 
Q 12.984375 16.21875 12.984375 13.921875 
Q 12.984375 10.40625 15.640625 8.0625 
Q 18.3125 5.71875 23.4375 5.71875 
Q 28.515625 5.71875 32.46875 7.9375 
Q 36.421875 10.15625 38.28125 14.015625 
Q 39.703125 17 39.703125 22.796875 
z
" id="ArialMT-97"/>
      <path d="M 4.984375 -4.296875 
L 13.53125 -5.5625 
Q 14.0625 -9.515625 16.5 -11.328125 
Q 19.78125 -13.765625 25.4375 -13.765625 
Q 31.546875 -13.765625 34.859375 -11.328125 
Q 38.1875 -8.890625 39.359375 -4.5 
Q 40.046875 -1.8125 39.984375 6.78125 
Q 34.234375 0 25.640625 0 
Q 14.9375 0 9.078125 7.71875 
Q 3.21875 15.4375 3.21875 26.21875 
Q 3.21875 33.640625 5.90625 39.90625 
Q 8.59375 46.1875 13.6875 49.609375 
Q 18.796875 53.03125 25.6875 53.03125 
Q 34.859375 53.03125 40.828125 45.609375 
L 40.828125 51.859375 
L 48.921875 51.859375 
L 48.921875 7.03125 
Q 48.921875 -5.078125 46.453125 -10.125 
Q 44 -15.1875 38.640625 -18.109375 
Q 33.296875 -21.046875 25.484375 -21.046875 
Q 16.21875 -21.046875 10.5 -16.875 
Q 4.78125 -12.703125 4.984375 -4.296875 
z
M 12.25 26.859375 
Q 12.25 16.65625 16.296875 11.96875 
Q 20.359375 7.28125 26.46875 7.28125 
Q 32.515625 7.28125 36.609375 11.9375 
Q 40.71875 16.609375 40.71875 26.5625 
Q 40.71875 36.078125 36.5 40.90625 
Q 32.28125 45.75 26.3125 45.75 
Q 20.453125 45.75 16.34375 40.984375 
Q 12.25 36.234375 12.25 26.859375 
z
" id="ArialMT-103"/>
      <path d="M 40.578125 0 
L 40.578125 7.625 
Q 34.515625 -1.171875 24.125 -1.171875 
Q 19.53125 -1.171875 15.546875 0.578125 
Q 11.578125 2.34375 9.640625 5 
Q 7.71875 7.671875 6.9375 11.53125 
Q 6.390625 14.109375 6.390625 19.734375 
L 6.390625 51.859375 
L 15.1875 51.859375 
L 15.1875 23.09375 
Q 15.1875 16.21875 15.71875 13.8125 
Q 16.546875 10.359375 19.234375 8.375 
Q 21.921875 6.390625 25.875 6.390625 
Q 29.828125 6.390625 33.296875 8.421875 
Q 36.765625 10.453125 38.203125 13.9375 
Q 39.65625 17.4375 39.65625 24.078125 
L 39.65625 51.859375 
L 48.4375 51.859375 
L 48.4375 0 
z
" id="ArialMT-117"/>
     </defs>
     <g style="fill:#262626;" transform="translate(128.875179 38.072813)scale(0.09 -0.09)">
      <use xlink:href="#ArialMT-74"/>
      <use x="50" xlink:href="#ArialMT-97"/>
      <use x="105.615234" xlink:href="#ArialMT-103"/>
      <use x="161.230469" xlink:href="#ArialMT-117"/>
      <use x="216.845703" xlink:href="#ArialMT-97"/>
      <use x="272.460938" xlink:href="#ArialMT-114"/>
     </g>
    </g>
    <g id="patch_6">
     <path d="M 103.675179 51.037031 
L 121.675179 51.037031 
L 121.675179 44.737031 
L 103.675179 44.737031 
z
" style="fill:#2288bb;stroke:#ffffff;stroke-linejoin:miter;"/>
    </g>
    <g id="text_15">
     <!-- Jaguar $\Delta$area = 1,2 -->
     <defs>
      <path id="ArialMT-32"/>
      <path d="M 34.1875 63.1875 
L 14.15625 8.203125 
L 54.25 8.203125 
z
M 0.78125 0 
L 28.609375 72.90625 
L 39.796875 72.90625 
L 67.578125 0 
z
" id="DejaVuSans-916"/>
      <path d="M 52.828125 42.09375 
L 5.5625 42.09375 
L 5.5625 50.296875 
L 52.828125 50.296875 
z
M 52.828125 20.359375 
L 5.5625 20.359375 
L 5.5625 28.5625 
L 52.828125 28.5625 
z
" id="ArialMT-61"/>
      <path d="M 8.890625 0 
L 8.890625 10.015625 
L 18.890625 10.015625 
L 18.890625 0 
Q 18.890625 -5.515625 16.9375 -8.90625 
Q 14.984375 -12.3125 10.75 -14.15625 
L 8.296875 -10.40625 
Q 11.078125 -9.1875 12.390625 -6.8125 
Q 13.71875 -4.4375 13.875 0 
z
" id="ArialMT-44"/>
     </defs>
     <g style="fill:#262626;" transform="translate(128.875179 51.037031)scale(0.09 -0.09)">
      <use transform="translate(0 0.09375)" xlink:href="#ArialMT-74"/>
      <use transform="translate(50 0.09375)" xlink:href="#ArialMT-97"/>
      <use transform="translate(105.615234 0.09375)" xlink:href="#ArialMT-103"/>
      <use transform="translate(161.230469 0.09375)" xlink:href="#ArialMT-117"/>
      <use transform="translate(216.845703 0.09375)" xlink:href="#ArialMT-97"/>
      <use transform="translate(272.460938 0.09375)" xlink:href="#ArialMT-114"/>
      <use transform="translate(305.761719 0.09375)" xlink:href="#ArialMT-32"/>
      <use transform="translate(333.544922 0.09375)" xlink:href="#DejaVuSans-916"/>
      <use transform="translate(401.953125 0.09375)" xlink:href="#ArialMT-97"/>
      <use transform="translate(457.568359 0.09375)" xlink:href="#ArialMT-114"/>
      <use transform="translate(490.869141 0.09375)" xlink:href="#ArialMT-101"/>
      <use transform="translate(546.484375 0.09375)" xlink:href="#ArialMT-97"/>
      <use transform="translate(602.099609 0.09375)" xlink:href="#ArialMT-32"/>
      <use transform="translate(629.882812 0.09375)" xlink:href="#ArialMT-61"/>
      <use transform="translate(688.28125 0.09375)" xlink:href="#ArialMT-32"/>
      <use transform="translate(716.064453 0.09375)" xlink:href="#ArialMT-49"/>
      <use transform="translate(771.679688 0.09375)" xlink:href="#ArialMT-44"/>
      <use transform="translate(799.462891 0.09375)" xlink:href="#ArialMT-50"/>
     </g>
    </g>
   </g>
  </g>
 </g>
 <defs>
  <clipPath id="pc6596fa0dc">
   <rect height="123.64" width="165.070536" x="48.944643" y="10.8"/>
  </clipPath>
 </defs>
</svg>
