<?xml version="1.0" encoding="utf-8" standalone="no"?>
<!DOCTYPE svg PUBLIC "-//W3C//DTD SVG 1.1//EN"
  "http://www.w3.org/Graphics/SVG/1.1/DTD/svg11.dtd">
<!-- Created with matplotlib (https://matplotlib.org/) -->
<svg height="174.24pt" version="1.1" viewBox="0 0 230.4 174.24" width="230.4pt" xmlns="http://www.w3.org/2000/svg" xmlns:xlink="http://www.w3.org/1999/xlink">
 <defs>
  <style type="text/css">
*{stroke-linecap:butt;stroke-linejoin:round;}
  </style>
 </defs>
 <g id="figure_1">
  <g id="patch_1">
   <path d="M 0 174.24 
L 230.4 174.24 
L 230.4 0 
L 0 0 
z
" style="fill:#ffffff;"/>
  </g>
  <g id="axes_1">
   <g id="patch_2">
    <path d="M 51.05 134.44 
L 214.015179 134.44 
L 214.015179 10.8 
L 51.05 10.8 
z
" style="fill:#ffffff;"/>
   </g>
   <g id="matplotlib.axis_1">
    <g id="xtick_1">
     <g id="line2d_1">
      <defs>
       <path d="M 0 0 
L 0 3.5 
" id="m142e9a321c" style="stroke:#262626;stroke-width:0.8;"/>
      </defs>
      <g>
       <use style="fill:#262626;stroke:#262626;stroke-width:0.8;" x="51.05" xlink:href="#m142e9a321c" y="134.44"/>
      </g>
     </g>
     <g id="text_1">
      <!-- 2 -->
      <defs>
       <path d="M 50.34375 8.453125 
L 50.34375 0 
L 3.03125 0 
Q 2.9375 3.171875 4.046875 6.109375 
Q 5.859375 10.9375 9.828125 15.625 
Q 13.8125 20.3125 21.34375 26.46875 
Q 33.015625 36.03125 37.109375 41.625 
Q 41.21875 47.21875 41.21875 52.203125 
Q 41.21875 57.421875 37.46875 61 
Q 33.734375 64.59375 27.734375 64.59375 
Q 21.390625 64.59375 17.578125 60.78125 
Q 13.765625 56.984375 13.71875 50.25 
L 4.6875 51.171875 
Q 5.609375 61.28125 11.65625 66.578125 
Q 17.71875 71.875 27.9375 71.875 
Q 38.234375 71.875 44.234375 66.15625 
Q 50.25 60.453125 50.25 52 
Q 50.25 47.703125 48.484375 43.546875 
Q 46.734375 39.40625 42.65625 34.8125 
Q 38.578125 30.21875 29.109375 22.21875 
Q 21.1875 15.578125 18.9375 13.203125 
Q 16.703125 10.84375 15.234375 8.453125 
z
" id="ArialMT-50"/>
      </defs>
      <g style="fill:#262626;" transform="translate(48.269531 148.597813)scale(0.1 -0.1)">
       <use xlink:href="#ArialMT-50"/>
      </g>
     </g>
    </g>
    <g id="xtick_2">
     <g id="line2d_2">
      <g>
       <use style="fill:#262626;stroke:#262626;stroke-width:0.8;" x="83.643036" xlink:href="#m142e9a321c" y="134.44"/>
      </g>
     </g>
     <g id="text_2">
      <!-- 4 -->
      <defs>
       <path d="M 32.328125 0 
L 32.328125 17.140625 
L 1.265625 17.140625 
L 1.265625 25.203125 
L 33.9375 71.578125 
L 41.109375 71.578125 
L 41.109375 25.203125 
L 50.78125 25.203125 
L 50.78125 17.140625 
L 41.109375 17.140625 
L 41.109375 0 
z
M 32.328125 25.203125 
L 32.328125 57.46875 
L 9.90625 25.203125 
z
" id="ArialMT-52"/>
      </defs>
      <g style="fill:#262626;" transform="translate(80.862567 148.597813)scale(0.1 -0.1)">
       <use xlink:href="#ArialMT-52"/>
      </g>
     </g>
    </g>
    <g id="xtick_3">
     <g id="line2d_3">
      <g>
       <use style="fill:#262626;stroke:#262626;stroke-width:0.8;" x="116.236071" xlink:href="#m142e9a321c" y="134.44"/>
      </g>
     </g>
     <g id="text_3">
      <!-- 6 -->
      <defs>
       <path d="M 49.75 54.046875 
L 41.015625 53.375 
Q 39.84375 58.546875 37.703125 60.890625 
Q 34.125 64.65625 28.90625 64.65625 
Q 24.703125 64.65625 21.53125 62.3125 
Q 17.390625 59.28125 14.984375 53.46875 
Q 12.59375 47.65625 12.5 36.921875 
Q 15.671875 41.75 20.265625 44.09375 
Q 24.859375 46.4375 29.890625 46.4375 
Q 38.671875 46.4375 44.84375 39.96875 
Q 51.03125 33.5 51.03125 23.25 
Q 51.03125 16.5 48.125 10.71875 
Q 45.21875 4.9375 40.140625 1.859375 
Q 35.0625 -1.21875 28.609375 -1.21875 
Q 17.625 -1.21875 10.6875 6.859375 
Q 3.765625 14.9375 3.765625 33.5 
Q 3.765625 54.25 11.421875 63.671875 
Q 18.109375 71.875 29.4375 71.875 
Q 37.890625 71.875 43.28125 67.140625 
Q 48.6875 62.40625 49.75 54.046875 
z
M 13.875 23.1875 
Q 13.875 18.65625 15.796875 14.5 
Q 17.71875 10.359375 21.1875 8.171875 
Q 24.65625 6 28.46875 6 
Q 34.03125 6 38.03125 10.484375 
Q 42.046875 14.984375 42.046875 22.703125 
Q 42.046875 30.125 38.078125 34.390625 
Q 34.125 38.671875 28.125 38.671875 
Q 22.171875 38.671875 18.015625 34.390625 
Q 13.875 30.125 13.875 23.1875 
z
" id="ArialMT-54"/>
      </defs>
      <g style="fill:#262626;" transform="translate(113.455603 148.597813)scale(0.1 -0.1)">
       <use xlink:href="#ArialMT-54"/>
      </g>
     </g>
    </g>
    <g id="xtick_4">
     <g id="line2d_4">
      <g>
       <use style="fill:#262626;stroke:#262626;stroke-width:0.8;" x="148.829107" xlink:href="#m142e9a321c" y="134.44"/>
      </g>
     </g>
     <g id="text_4">
      <!-- 8 -->
      <defs>
       <path d="M 17.671875 38.8125 
Q 12.203125 40.828125 9.5625 44.53125 
Q 6.9375 48.25 6.9375 53.421875 
Q 6.9375 61.234375 12.546875 66.546875 
Q 18.171875 71.875 27.484375 71.875 
Q 36.859375 71.875 42.578125 66.421875 
Q 48.296875 60.984375 48.296875 53.171875 
Q 48.296875 48.1875 45.671875 44.5 
Q 43.0625 40.828125 37.75 38.8125 
Q 44.34375 36.671875 47.78125 31.875 
Q 51.21875 27.09375 51.21875 20.453125 
Q 51.21875 11.28125 44.71875 5.03125 
Q 38.234375 -1.21875 27.640625 -1.21875 
Q 17.046875 -1.21875 10.546875 5.046875 
Q 4.046875 11.328125 4.046875 20.703125 
Q 4.046875 27.6875 7.59375 32.390625 
Q 11.140625 37.109375 17.671875 38.8125 
z
M 15.921875 53.71875 
Q 15.921875 48.640625 19.1875 45.40625 
Q 22.46875 42.1875 27.6875 42.1875 
Q 32.765625 42.1875 36.015625 45.375 
Q 39.265625 48.578125 39.265625 53.21875 
Q 39.265625 58.0625 35.90625 61.359375 
Q 32.5625 64.65625 27.59375 64.65625 
Q 22.5625 64.65625 19.234375 61.421875 
Q 15.921875 58.203125 15.921875 53.71875 
z
M 13.09375 20.65625 
Q 13.09375 16.890625 14.875 13.375 
Q 16.65625 9.859375 20.171875 7.921875 
Q 23.6875 6 27.734375 6 
Q 34.03125 6 38.125 10.046875 
Q 42.234375 14.109375 42.234375 20.359375 
Q 42.234375 26.703125 38.015625 30.859375 
Q 33.796875 35.015625 27.4375 35.015625 
Q 21.234375 35.015625 17.15625 30.90625 
Q 13.09375 26.8125 13.09375 20.65625 
z
" id="ArialMT-56"/>
      </defs>
      <g style="fill:#262626;" transform="translate(146.048638 148.597813)scale(0.1 -0.1)">
       <use xlink:href="#ArialMT-56"/>
      </g>
     </g>
    </g>
    <g id="xtick_5">
     <g id="line2d_5">
      <g>
       <use style="fill:#262626;stroke:#262626;stroke-width:0.8;" x="181.422143" xlink:href="#m142e9a321c" y="134.44"/>
      </g>
     </g>
     <g id="text_5">
      <!-- 10 -->
      <defs>
       <path d="M 37.25 0 
L 28.46875 0 
L 28.46875 56 
Q 25.296875 52.984375 20.140625 49.953125 
Q 14.984375 46.921875 10.890625 45.40625 
L 10.890625 53.90625 
Q 18.265625 57.375 23.78125 62.296875 
Q 29.296875 67.234375 31.59375 71.875 
L 37.25 71.875 
z
" id="ArialMT-49"/>
       <path d="M 4.15625 35.296875 
Q 4.15625 48 6.765625 55.734375 
Q 9.375 63.484375 14.515625 67.671875 
Q 19.671875 71.875 27.484375 71.875 
Q 33.25 71.875 37.59375 69.546875 
Q 41.9375 67.234375 44.765625 62.859375 
Q 47.609375 58.5 49.21875 52.21875 
Q 50.828125 45.953125 50.828125 35.296875 
Q 50.828125 22.703125 48.234375 14.96875 
Q 45.65625 7.234375 40.5 3 
Q 35.359375 -1.21875 27.484375 -1.21875 
Q 17.140625 -1.21875 11.234375 6.203125 
Q 4.15625 15.140625 4.15625 35.296875 
z
M 13.1875 35.296875 
Q 13.1875 17.671875 17.3125 11.828125 
Q 21.4375 6 27.484375 6 
Q 33.546875 6 37.671875 11.859375 
Q 41.796875 17.71875 41.796875 35.296875 
Q 41.796875 52.984375 37.671875 58.78125 
Q 33.546875 64.59375 27.390625 64.59375 
Q 21.34375 64.59375 17.71875 59.46875 
Q 13.1875 52.9375 13.1875 35.296875 
z
" id="ArialMT-48"/>
      </defs>
      <g style="fill:#262626;" transform="translate(175.861205 148.597813)scale(0.1 -0.1)">
       <use xlink:href="#ArialMT-49"/>
       <use x="55.615234" xlink:href="#ArialMT-48"/>
      </g>
     </g>
    </g>
    <g id="xtick_6">
     <g id="line2d_6">
      <g>
       <use style="fill:#262626;stroke:#262626;stroke-width:0.8;" x="214.015179" xlink:href="#m142e9a321c" y="134.44"/>
      </g>
     </g>
     <g id="text_6">
      <!-- 12 -->
      <g style="fill:#262626;" transform="translate(208.454241 148.597813)scale(0.1 -0.1)">
       <use xlink:href="#ArialMT-49"/>
       <use x="55.615234" xlink:href="#ArialMT-50"/>
      </g>
     </g>
    </g>
    <g id="text_7">
     <!-- pH -->
     <defs>
      <path d="M 6.59375 -19.875 
L 6.59375 51.859375 
L 14.59375 51.859375 
L 14.59375 45.125 
Q 17.4375 49.078125 21 51.046875 
Q 24.5625 53.03125 29.640625 53.03125 
Q 36.28125 53.03125 41.359375 49.609375 
Q 46.4375 46.1875 49.015625 39.953125 
Q 51.609375 33.734375 51.609375 26.3125 
Q 51.609375 18.359375 48.75 11.984375 
Q 45.90625 5.609375 40.453125 2.21875 
Q 35.015625 -1.171875 29 -1.171875 
Q 24.609375 -1.171875 21.109375 0.6875 
Q 17.625 2.546875 15.375 5.375 
L 15.375 -19.875 
z
M 14.546875 25.640625 
Q 14.546875 15.625 18.59375 10.84375 
Q 22.65625 6.0625 28.421875 6.0625 
Q 34.28125 6.0625 38.453125 11.015625 
Q 42.625 15.96875 42.625 26.375 
Q 42.625 36.28125 38.546875 41.203125 
Q 34.46875 46.140625 28.8125 46.140625 
Q 23.1875 46.140625 18.859375 40.890625 
Q 14.546875 35.640625 14.546875 25.640625 
z
" id="ArialMT-112"/>
      <path d="M 8.015625 0 
L 8.015625 71.578125 
L 17.484375 71.578125 
L 17.484375 42.1875 
L 54.6875 42.1875 
L 54.6875 71.578125 
L 64.15625 71.578125 
L 64.15625 0 
L 54.6875 0 
L 54.6875 33.734375 
L 17.484375 33.734375 
L 17.484375 0 
z
" id="ArialMT-72"/>
     </defs>
     <g style="fill:#262626;" transform="translate(126.141183 161.743125)scale(0.1 -0.1)">
      <use xlink:href="#ArialMT-112"/>
      <use x="55.615234" xlink:href="#ArialMT-72"/>
     </g>
    </g>
   </g>
   <g id="matplotlib.axis_2">
    <g id="ytick_1">
     <g id="line2d_7">
      <defs>
       <path d="M 0 0 
L -3.5 0 
" id="mf44386bb1f" style="stroke:#262626;stroke-width:0.8;"/>
      </defs>
      <g>
       <use style="fill:#262626;stroke:#262626;stroke-width:0.8;" x="51.05" xlink:href="#mf44386bb1f" y="124.538555"/>
      </g>
     </g>
     <g id="text_8">
      <!-- −10 -->
      <defs>
       <path d="M 52.828125 31.203125 
L 5.5625 31.203125 
L 5.5625 39.40625 
L 52.828125 39.40625 
z
" id="ArialMT-8722"/>
      </defs>
      <g style="fill:#262626;" transform="translate(27.0875 128.117461)scale(0.1 -0.1)">
       <use xlink:href="#ArialMT-8722"/>
       <use x="58.398438" xlink:href="#ArialMT-49"/>
       <use x="114.013672" xlink:href="#ArialMT-48"/>
      </g>
     </g>
    </g>
    <g id="ytick_2">
     <g id="line2d_8">
      <g>
       <use style="fill:#262626;stroke:#262626;stroke-width:0.8;" x="51.05" xlink:href="#mf44386bb1f" y="101.781119"/>
      </g>
     </g>
     <g id="text_9">
      <!-- 0 -->
      <g style="fill:#262626;" transform="translate(38.489062 105.360025)scale(0.1 -0.1)">
       <use xlink:href="#ArialMT-48"/>
      </g>
     </g>
    </g>
    <g id="ytick_3">
     <g id="line2d_9">
      <g>
       <use style="fill:#262626;stroke:#262626;stroke-width:0.8;" x="51.05" xlink:href="#mf44386bb1f" y="79.023683"/>
      </g>
     </g>
     <g id="text_10">
      <!-- 10 -->
      <g style="fill:#262626;" transform="translate(32.928125 82.602589)scale(0.1 -0.1)">
       <use xlink:href="#ArialMT-49"/>
       <use x="55.615234" xlink:href="#ArialMT-48"/>
      </g>
     </g>
    </g>
    <g id="ytick_4">
     <g id="line2d_10">
      <g>
       <use style="fill:#262626;stroke:#262626;stroke-width:0.8;" x="51.05" xlink:href="#mf44386bb1f" y="56.266247"/>
      </g>
     </g>
     <g id="text_11">
      <!-- 20 -->
      <g style="fill:#262626;" transform="translate(32.928125 59.845154)scale(0.1 -0.1)">
       <use xlink:href="#ArialMT-50"/>
       <use x="55.615234" xlink:href="#ArialMT-48"/>
      </g>
     </g>
    </g>
    <g id="ytick_5">
     <g id="line2d_11">
      <g>
       <use style="fill:#262626;stroke:#262626;stroke-width:0.8;" x="51.05" xlink:href="#mf44386bb1f" y="33.508812"/>
      </g>
     </g>
     <g id="text_12">
      <!-- 30 -->
      <defs>
       <path d="M 4.203125 18.890625 
L 12.984375 20.0625 
Q 14.5 12.59375 18.140625 9.296875 
Q 21.78125 6 27 6 
Q 33.203125 6 37.46875 10.296875 
Q 41.75 14.59375 41.75 20.953125 
Q 41.75 27 37.796875 30.921875 
Q 33.84375 34.859375 27.734375 34.859375 
Q 25.25 34.859375 21.53125 33.890625 
L 22.515625 41.609375 
Q 23.390625 41.5 23.921875 41.5 
Q 29.546875 41.5 34.03125 44.421875 
Q 38.53125 47.359375 38.53125 53.46875 
Q 38.53125 58.296875 35.25 61.46875 
Q 31.984375 64.65625 26.8125 64.65625 
Q 21.6875 64.65625 18.265625 61.421875 
Q 14.84375 58.203125 13.875 51.765625 
L 5.078125 53.328125 
Q 6.6875 62.15625 12.390625 67.015625 
Q 18.109375 71.875 26.609375 71.875 
Q 32.46875 71.875 37.390625 69.359375 
Q 42.328125 66.84375 44.9375 62.5 
Q 47.5625 58.15625 47.5625 53.265625 
Q 47.5625 48.640625 45.0625 44.828125 
Q 42.578125 41.015625 37.703125 38.765625 
Q 44.046875 37.3125 47.5625 32.6875 
Q 51.078125 28.078125 51.078125 21.140625 
Q 51.078125 11.765625 44.234375 5.25 
Q 37.40625 -1.265625 26.953125 -1.265625 
Q 17.53125 -1.265625 11.296875 4.34375 
Q 5.078125 9.96875 4.203125 18.890625 
z
" id="ArialMT-51"/>
      </defs>
      <g style="fill:#262626;" transform="translate(32.928125 37.087718)scale(0.1 -0.1)">
       <use xlink:href="#ArialMT-51"/>
       <use x="55.615234" xlink:href="#ArialMT-48"/>
      </g>
     </g>
    </g>
    <g id="text_13">
     <!-- Free energy ($k_B T$) -->
     <defs>
      <path d="M 8.203125 0 
L 8.203125 71.578125 
L 56.5 71.578125 
L 56.5 63.140625 
L 17.671875 63.140625 
L 17.671875 40.96875 
L 51.265625 40.96875 
L 51.265625 32.515625 
L 17.671875 32.515625 
L 17.671875 0 
z
" id="ArialMT-70"/>
      <path d="M 6.5 0 
L 6.5 51.859375 
L 14.40625 51.859375 
L 14.40625 44 
Q 17.4375 49.515625 20 51.265625 
Q 22.5625 53.03125 25.640625 53.03125 
Q 30.078125 53.03125 34.671875 50.203125 
L 31.640625 42.046875 
Q 28.421875 43.953125 25.203125 43.953125 
Q 22.3125 43.953125 20.015625 42.21875 
Q 17.71875 40.484375 16.75 37.40625 
Q 15.28125 32.71875 15.28125 27.15625 
L 15.28125 0 
z
" id="ArialMT-114"/>
      <path d="M 42.09375 16.703125 
L 51.171875 15.578125 
Q 49.03125 7.625 43.21875 3.21875 
Q 37.40625 -1.171875 28.375 -1.171875 
Q 17 -1.171875 10.328125 5.828125 
Q 3.65625 12.84375 3.65625 25.484375 
Q 3.65625 38.578125 10.390625 45.796875 
Q 17.140625 53.03125 27.875 53.03125 
Q 38.28125 53.03125 44.875 45.953125 
Q 51.46875 38.875 51.46875 26.03125 
Q 51.46875 25.25 51.421875 23.6875 
L 12.75 23.6875 
Q 13.234375 15.140625 17.578125 10.59375 
Q 21.921875 6.0625 28.421875 6.0625 
Q 33.25 6.0625 36.671875 8.59375 
Q 40.09375 11.140625 42.09375 16.703125 
z
M 13.234375 30.90625 
L 42.1875 30.90625 
Q 41.609375 37.453125 38.875 40.71875 
Q 34.671875 45.796875 27.984375 45.796875 
Q 21.921875 45.796875 17.796875 41.75 
Q 13.671875 37.703125 13.234375 30.90625 
z
" id="ArialMT-101"/>
      <path id="ArialMT-32"/>
      <path d="M 6.59375 0 
L 6.59375 51.859375 
L 14.5 51.859375 
L 14.5 44.484375 
Q 20.21875 53.03125 31 53.03125 
Q 35.6875 53.03125 39.625 51.34375 
Q 43.5625 49.65625 45.515625 46.921875 
Q 47.46875 44.1875 48.25 40.4375 
Q 48.734375 37.984375 48.734375 31.890625 
L 48.734375 0 
L 39.9375 0 
L 39.9375 31.546875 
Q 39.9375 36.921875 38.90625 39.578125 
Q 37.890625 42.234375 35.28125 43.8125 
Q 32.671875 45.40625 29.15625 45.40625 
Q 23.53125 45.40625 19.453125 41.84375 
Q 15.375 38.28125 15.375 28.328125 
L 15.375 0 
z
" id="ArialMT-110"/>
      <path d="M 4.984375 -4.296875 
L 13.53125 -5.5625 
Q 14.0625 -9.515625 16.5 -11.328125 
Q 19.78125 -13.765625 25.4375 -13.765625 
Q 31.546875 -13.765625 34.859375 -11.328125 
Q 38.1875 -8.890625 39.359375 -4.5 
Q 40.046875 -1.8125 39.984375 6.78125 
Q 34.234375 0 25.640625 0 
Q 14.9375 0 9.078125 7.71875 
Q 3.21875 15.4375 3.21875 26.21875 
Q 3.21875 33.640625 5.90625 39.90625 
Q 8.59375 46.1875 13.6875 49.609375 
Q 18.796875 53.03125 25.6875 53.03125 
Q 34.859375 53.03125 40.828125 45.609375 
L 40.828125 51.859375 
L 48.921875 51.859375 
L 48.921875 7.03125 
Q 48.921875 -5.078125 46.453125 -10.125 
Q 44 -15.1875 38.640625 -18.109375 
Q 33.296875 -21.046875 25.484375 -21.046875 
Q 16.21875 -21.046875 10.5 -16.875 
Q 4.78125 -12.703125 4.984375 -4.296875 
z
M 12.25 26.859375 
Q 12.25 16.65625 16.296875 11.96875 
Q 20.359375 7.28125 26.46875 7.28125 
Q 32.515625 7.28125 36.609375 11.9375 
Q 40.71875 16.609375 40.71875 26.5625 
Q 40.71875 36.078125 36.5 40.90625 
Q 32.28125 45.75 26.3125 45.75 
Q 20.453125 45.75 16.34375 40.984375 
Q 12.25 36.234375 12.25 26.859375 
z
" id="ArialMT-103"/>
      <path d="M 6.203125 -19.96875 
L 5.21875 -11.71875 
Q 8.109375 -12.5 10.25 -12.5 
Q 13.1875 -12.5 14.9375 -11.515625 
Q 16.703125 -10.546875 17.828125 -8.796875 
Q 18.65625 -7.46875 20.515625 -2.25 
Q 20.75 -1.515625 21.296875 -0.09375 
L 1.609375 51.859375 
L 11.078125 51.859375 
L 21.875 21.828125 
Q 23.96875 16.109375 25.640625 9.8125 
Q 27.15625 15.875 29.25 21.625 
L 40.328125 51.859375 
L 49.125 51.859375 
L 29.390625 -0.875 
Q 26.21875 -9.421875 24.46875 -12.640625 
Q 22.125 -17 19.09375 -19.015625 
Q 16.0625 -21.046875 11.859375 -21.046875 
Q 9.328125 -21.046875 6.203125 -19.96875 
z
" id="ArialMT-121"/>
      <path d="M 23.390625 -21.046875 
Q 16.109375 -11.859375 11.078125 0.4375 
Q 6.0625 12.75 6.0625 25.921875 
Q 6.0625 37.546875 9.8125 48.1875 
Q 14.203125 60.546875 23.390625 72.796875 
L 29.6875 72.796875 
Q 23.78125 62.640625 21.875 58.296875 
Q 18.890625 51.5625 17.1875 44.234375 
Q 15.09375 35.109375 15.09375 25.875 
Q 15.09375 2.390625 29.6875 -21.046875 
z
" id="ArialMT-40"/>
      <path d="M 18.3125 75.984375 
L 27.296875 75.984375 
L 18.703125 31.6875 
L 49.515625 54.6875 
L 61.1875 54.6875 
L 26.8125 28.515625 
L 51.90625 0 
L 41.015625 0 
L 17.671875 26.703125 
L 12.5 0 
L 3.515625 0 
z
" id="DejaVuSans-Oblique-107"/>
      <path d="M 16.890625 72.90625 
L 42.09375 72.90625 
Q 52.34375 72.90625 57.421875 69.09375 
Q 62.5 65.28125 62.5 57.625 
Q 62.5 50.59375 58.125 45.484375 
Q 53.765625 40.375 46.6875 39.3125 
Q 52.734375 37.9375 55.765625 34.078125 
Q 58.796875 30.21875 58.796875 23.78125 
Q 58.796875 12.796875 50.65625 6.390625 
Q 42.53125 0 28.421875 0 
L 2.6875 0 
z
M 19.28125 34.8125 
L 14.109375 8.109375 
L 29.984375 8.109375 
Q 38.921875 8.109375 43.75 12.203125 
Q 48.578125 16.3125 48.578125 23.78125 
Q 48.578125 29.546875 45.375 32.171875 
Q 42.1875 34.8125 35.109375 34.8125 
z
M 25.09375 64.796875 
L 20.796875 42.828125 
L 35.5 42.828125 
Q 43.359375 42.828125 47.78125 46.234375 
Q 52.203125 49.65625 52.203125 55.71875 
Q 52.203125 60.453125 49.21875 62.625 
Q 46.234375 64.796875 39.703125 64.796875 
z
" id="DejaVuSans-Oblique-66"/>
      <path d="M 5.90625 72.90625 
L 67.578125 72.90625 
L 66.015625 64.59375 
L 39.984375 64.59375 
L 27.484375 0 
L 17.578125 0 
L 30.078125 64.59375 
L 4.296875 64.59375 
z
" id="DejaVuSans-Oblique-84"/>
      <path d="M 12.359375 -21.046875 
L 6.0625 -21.046875 
Q 20.65625 2.390625 20.65625 25.875 
Q 20.65625 35.0625 18.5625 44.09375 
Q 16.890625 51.421875 13.921875 58.15625 
Q 12.015625 62.546875 6.0625 72.796875 
L 12.359375 72.796875 
Q 21.53125 60.546875 25.921875 48.1875 
Q 29.6875 37.546875 29.6875 25.921875 
Q 29.6875 12.75 24.625 0.4375 
Q 19.578125 -11.859375 12.359375 -21.046875 
z
" id="ArialMT-41"/>
     </defs>
     <g style="fill:#262626;" transform="translate(20.8875 112.82)rotate(-90)scale(0.1 -0.1)">
      <use transform="translate(0 0.015625)" xlink:href="#ArialMT-70"/>
      <use transform="translate(61.083984 0.015625)" xlink:href="#ArialMT-114"/>
      <use transform="translate(94.384766 0.015625)" xlink:href="#ArialMT-101"/>
      <use transform="translate(150 0.015625)" xlink:href="#ArialMT-101"/>
      <use transform="translate(205.615234 0.015625)" xlink:href="#ArialMT-32"/>
      <use transform="translate(233.398438 0.015625)" xlink:href="#ArialMT-101"/>
      <use transform="translate(289.013672 0.015625)" xlink:href="#ArialMT-110"/>
      <use transform="translate(344.628906 0.015625)" xlink:href="#ArialMT-101"/>
      <use transform="translate(400.244141 0.015625)" xlink:href="#ArialMT-114"/>
      <use transform="translate(433.544922 0.015625)" xlink:href="#ArialMT-103"/>
      <use transform="translate(489.160156 0.015625)" xlink:href="#ArialMT-121"/>
      <use transform="translate(539.160156 0.015625)" xlink:href="#ArialMT-32"/>
      <use transform="translate(566.943359 0.015625)" xlink:href="#ArialMT-40"/>
      <use transform="translate(600.244141 0.015625)" xlink:href="#DejaVuSans-Oblique-107"/>
      <use transform="translate(658.154297 -16.390625)scale(0.7)" xlink:href="#DejaVuSans-Oblique-66"/>
      <use transform="translate(708.911133 0.015625)" xlink:href="#DejaVuSans-Oblique-84"/>
      <use transform="translate(769.995117 0.015625)" xlink:href="#ArialMT-41"/>
     </g>
    </g>
   </g>
   <g id="line2d_12">
    <path clip-path="url(#p888bc7f234)" d="M 51.05 101.781119 
L 52.679652 101.781119 
L 54.309304 101.781119 
L 55.938955 101.781119 
L 57.568607 101.781119 
L 59.198259 101.781119 
L 60.827911 101.781119 
L 62.457563 101.781119 
L 64.087214 101.781119 
L 65.716866 101.781119 
L 67.346518 101.781119 
L 68.97617 101.781119 
L 70.605821 101.781119 
L 72.235473 101.781119 
L 73.865125 101.781119 
L 75.494777 101.781119 
L 77.124429 101.781119 
L 78.75408 101.781119 
L 80.383732 101.781119 
L 82.013384 101.781119 
L 83.643036 101.781119 
L 85.272687 101.781119 
L 86.902339 101.781119 
L 88.531991 101.781119 
L 90.161643 101.781119 
L 91.791295 101.781119 
L 93.420946 101.781119 
L 95.050598 101.781119 
L 96.68025 101.781119 
L 98.309902 101.781119 
L 99.939554 101.781119 
L 101.569205 101.781119 
L 103.198857 101.781119 
L 104.828509 101.781119 
L 106.458161 101.781119 
L 108.087812 101.781119 
L 109.717464 101.781119 
L 111.347116 101.781119 
L 112.976768 101.781119 
L 114.60642 101.781119 
L 116.236071 101.781119 
L 117.865723 101.781119 
L 119.495375 101.781119 
L 121.125027 101.781119 
L 122.754679 101.781119 
L 124.38433 101.781119 
L 126.013982 101.781119 
L 127.643634 101.781119 
L 129.273286 101.781119 
L 130.902938 101.781119 
L 132.532589 101.781119 
L 134.162241 101.781119 
L 135.791893 101.781119 
L 137.421545 101.781119 
L 139.051196 101.781119 
L 140.680848 101.781119 
L 142.3105 101.781119 
L 143.940152 101.781119 
L 145.569804 101.781119 
L 147.199455 101.781119 
L 148.829107 101.781119 
L 150.458759 101.781119 
L 152.088411 101.781119 
L 153.718063 101.781119 
L 155.347714 101.781119 
L 156.977366 101.781119 
L 158.607018 101.781119 
L 160.23667 101.781119 
L 161.866321 101.781119 
L 163.495973 101.781119 
L 165.125625 101.781119 
L 166.755277 101.781119 
L 168.384929 101.781119 
L 170.01458 101.781119 
L 171.644232 101.781119 
L 173.273884 101.781119 
L 174.903536 101.781119 
L 176.533187 101.781119 
L 178.162839 101.781119 
L 179.792491 101.781119 
L 181.422143 101.781119 
L 183.051795 101.781119 
L 184.681446 101.781119 
L 186.311098 101.781119 
L 187.94075 101.781119 
L 189.570402 101.781119 
L 191.200054 101.781119 
L 192.829705 101.781119 
L 194.459357 101.781119 
L 196.089009 101.781119 
L 197.718661 101.781119 
L 199.348312 101.781119 
L 200.977964 101.781119 
L 202.607616 101.781119 
L 204.237268 101.781119 
L 205.86692 101.781119 
L 207.496571 101.781119 
L 209.126223 101.781119 
L 210.755875 101.781119 
L 212.385527 101.781119 
L 214.015179 101.781119 
" style="fill:none;stroke:#333333;stroke-linecap:round;"/>
   </g>
   <g id="line2d_13">
    <path clip-path="url(#p888bc7f234)" d="M 51.05 119.073427 
L 52.679652 118.549417 
L 54.309304 118.025408 
L 55.938955 117.501399 
L 57.568607 116.977389 
L 59.198259 116.45338 
L 60.827911 115.929371 
L 62.457563 115.405361 
L 64.087214 114.881352 
L 65.716866 114.357343 
L 67.346518 113.833333 
L 68.97617 113.309324 
L 70.605821 112.785315 
L 72.235473 112.261305 
L 73.865125 111.737296 
L 75.494777 111.213287 
L 77.124429 110.689277 
L 78.75408 110.165268 
L 80.383732 109.641259 
L 82.013384 109.117249 
L 83.643036 108.59324 
L 85.272687 108.069231 
L 86.902339 107.545221 
L 88.531991 107.021212 
L 90.161643 106.497203 
L 91.791295 105.973193 
L 93.420946 105.449184 
L 95.050598 104.925175 
L 96.68025 104.401166 
L 98.309902 103.877156 
L 99.939554 103.353147 
L 101.569205 102.829138 
L 103.198857 102.305128 
L 104.828509 101.781119 
L 106.458161 101.25711 
L 108.087812 100.7331 
L 109.717464 100.209091 
L 111.347116 99.685082 
L 112.976768 99.161072 
L 114.60642 98.637063 
L 116.236071 98.113054 
L 117.865723 97.589044 
L 119.495375 97.065035 
L 121.125027 96.541026 
L 122.754679 96.017016 
L 124.38433 95.493007 
L 126.013982 94.968998 
L 127.643634 94.444988 
L 129.273286 93.920979 
L 130.902938 93.39697 
L 132.532589 92.87296 
L 134.162241 92.348951 
L 135.791893 91.824942 
L 137.421545 91.300932 
L 139.051196 90.776923 
L 140.680848 90.252914 
L 142.3105 89.728904 
L 143.940152 89.204895 
L 145.569804 88.680886 
L 147.199455 88.156876 
L 148.829107 87.632867 
L 150.458759 87.108858 
L 152.088411 86.584848 
L 153.718063 86.060839 
L 155.347714 85.53683 
L 156.977366 85.012821 
L 158.607018 84.488811 
L 160.23667 83.964802 
L 161.866321 83.440793 
L 163.495973 82.916783 
L 165.125625 82.392774 
L 166.755277 81.868765 
L 168.384929 81.344755 
L 170.01458 80.820746 
L 171.644232 80.296737 
L 173.273884 79.772727 
L 174.903536 79.248718 
L 176.533187 78.724709 
L 178.162839 78.200699 
L 179.792491 77.67669 
L 181.422143 77.152681 
L 183.051795 76.628671 
L 184.681446 76.104662 
L 186.311098 75.580653 
L 187.94075 75.056643 
L 189.570402 74.532634 
L 191.200054 74.008625 
L 192.829705 73.484615 
L 194.459357 72.960606 
L 196.089009 72.436597 
L 197.718661 71.912587 
L 199.348312 71.388578 
L 200.977964 70.864569 
L 202.607616 70.340559 
L 204.237268 69.81655 
L 205.86692 69.292541 
L 207.496571 68.768531 
L 209.126223 68.244522 
L 210.755875 67.720513 
L 212.385527 67.196503 
L 214.015179 66.672494 
" style="fill:none;stroke:#92c5de;stroke-linecap:round;"/>
   </g>
   <g id="line2d_14">
    <path clip-path="url(#p888bc7f234)" d="M 51.05 122.112681 
L 52.679652 121.064662 
L 54.309304 120.016643 
L 55.938955 118.968625 
L 57.568607 117.920606 
L 59.198259 116.872587 
L 60.827911 115.824569 
L 62.457563 114.77655 
L 64.087214 113.728531 
L 65.716866 112.680513 
L 67.346518 111.632494 
L 68.97617 110.584476 
L 70.605821 109.536457 
L 72.235473 108.488438 
L 73.865125 107.44042 
L 75.494777 106.392401 
L 77.124429 105.344382 
L 78.75408 104.296364 
L 80.383732 103.248345 
L 82.013384 102.200326 
L 83.643036 101.152308 
L 85.272687 100.104289 
L 86.902339 99.05627 
L 88.531991 98.008252 
L 90.161643 96.960233 
L 91.791295 95.912214 
L 93.420946 94.864196 
L 95.050598 93.816177 
L 96.68025 92.768159 
L 98.309902 91.72014 
L 99.939554 90.672121 
L 101.569205 89.624103 
L 103.198857 88.576084 
L 104.828509 87.528065 
L 106.458161 86.480047 
L 108.087812 85.432028 
L 109.717464 84.384009 
L 111.347116 83.335991 
L 112.976768 82.287972 
L 114.60642 81.239953 
L 116.236071 80.191935 
L 117.865723 79.143916 
L 119.495375 78.095897 
L 121.125027 77.047879 
L 122.754679 75.99986 
L 124.38433 74.951841 
L 126.013982 73.903823 
L 127.643634 72.855804 
L 129.273286 71.807786 
L 130.902938 70.759767 
L 132.532589 69.711748 
L 134.162241 68.66373 
L 135.791893 67.615711 
L 137.421545 66.567692 
L 139.051196 65.519674 
L 140.680848 64.471655 
L 142.3105 63.423636 
L 143.940152 62.375618 
L 145.569804 61.327599 
L 147.199455 60.27958 
L 148.829107 59.231562 
L 150.458759 58.183543 
L 152.088411 57.135525 
L 153.718063 56.087506 
L 155.347714 55.039487 
L 156.977366 53.991469 
L 158.607018 52.94345 
L 160.23667 51.895431 
L 161.866321 50.847414 
L 163.495973 49.799393 
L 165.125625 48.751376 
L 166.755277 47.703357 
L 168.384929 46.655338 
L 170.01458 45.607329 
L 171.644232 44.559309 
L 173.273884 43.511298 
L 174.903536 42.463291 
L 176.533187 41.415189 
L 178.162839 40.36731 
L 179.792491 39.319321 
L 181.422143 38.271276 
L 183.051795 37.223388 
L 184.681446 36.174721 
L 186.311098 35.127919 
L 187.94075 34.079187 
L 189.570402 33.031201 
L 191.200054 31.98694 
L 192.829705 30.929402 
L 194.459357 29.883268 
L 196.089009 28.83712 
L 197.718661 27.803748 
L 199.348312 26.723958 
L 200.977964 25.640785 
L 202.607616 24.693905 
L 204.237268 23.508517 
L 205.86692 22.449459 
L 207.496571 21.264266 
L 209.126223 20.199679 
L 210.755875 19.378601 
L 212.385527 18.330157 
L 214.015179 17.281713 
" style="fill:none;stroke:#4393c3;stroke-linecap:round;"/>
   </g>
   <g id="line2d_15">
    <path clip-path="url(#p888bc7f234)" d="M 51.05 16.42 
L 52.679652 16.944009 
L 54.309304 17.468019 
L 55.938955 17.992028 
L 57.568607 18.516037 
L 59.198259 19.040047 
L 60.827911 19.564056 
L 62.457563 20.088065 
L 64.087214 20.612075 
L 65.716866 21.136084 
L 67.346518 21.660093 
L 68.97617 22.184103 
L 70.605821 22.708112 
L 72.235473 23.232121 
L 73.865125 23.756131 
L 75.494777 24.28014 
L 77.124429 24.804149 
L 78.75408 25.328159 
L 80.383732 25.852168 
L 82.013384 26.376177 
L 83.643036 26.900186 
L 85.272687 27.424196 
L 86.902339 27.948205 
L 88.531991 28.472214 
L 90.161643 28.996224 
L 91.791295 29.520233 
L 93.420946 30.044242 
L 95.050598 30.568252 
L 96.68025 31.092261 
L 98.309902 31.61627 
L 99.939554 32.14028 
L 101.569205 32.664289 
L 103.198857 33.188298 
L 104.828509 33.712308 
L 106.458161 34.236317 
L 108.087812 34.760326 
L 109.717464 35.284336 
L 111.347116 35.808345 
L 112.976768 36.332354 
L 114.60642 36.856364 
L 116.236071 37.380373 
L 117.865723 37.904382 
L 119.495375 38.428392 
L 121.125027 38.952401 
L 122.754679 39.47641 
L 124.38433 40.00042 
L 126.013982 40.524429 
L 127.643634 41.048438 
L 129.273286 41.572448 
L 130.902938 42.096457 
L 132.532589 42.620466 
L 134.162241 43.144476 
L 135.791893 43.668485 
L 137.421545 44.192494 
L 139.051196 44.716503 
L 140.680848 45.240513 
L 142.3105 45.764522 
L 143.940152 46.288531 
L 145.569804 46.812541 
L 147.199455 47.33655 
L 148.829107 47.860559 
L 150.458759 48.384569 
L 152.088411 48.908578 
L 153.718063 49.432587 
L 155.347714 49.956597 
L 156.977366 50.480606 
L 158.607018 51.004615 
L 160.23667 51.528625 
L 161.866321 52.052634 
L 163.495973 52.576643 
L 165.125625 53.100653 
L 166.755277 53.624662 
L 168.384929 54.148671 
L 170.01458 54.672681 
L 171.644232 55.19669 
L 173.273884 55.720699 
L 174.903536 56.244709 
L 176.533187 56.768718 
L 178.162839 57.292727 
L 179.792491 57.816737 
L 181.422143 58.340746 
L 183.051795 58.864755 
L 184.681446 59.388765 
L 186.311098 59.912774 
L 187.94075 60.436783 
L 189.570402 60.960793 
L 191.200054 61.484802 
L 192.829705 62.008811 
L 194.459357 62.532821 
L 196.089009 63.05683 
L 197.718661 63.580839 
L 199.348312 64.104848 
L 200.977964 64.628858 
L 202.607616 65.152867 
L 204.237268 65.676876 
L 205.86692 66.200886 
L 207.496571 66.724895 
L 209.126223 67.248904 
L 210.755875 67.772914 
L 212.385527 68.296923 
L 214.015179 68.820932 
" style="fill:none;stroke:#f4a582;stroke-dasharray:2,3.3;stroke-dashoffset:0;stroke-width:2;"/>
   </g>
   <g id="line2d_16">
    <path clip-path="url(#p888bc7f234)" d="M 51.05 101.781119 
L 52.679652 101.781119 
L 54.309304 101.781119 
L 55.938955 101.781119 
L 57.568607 101.781119 
L 59.198259 101.781119 
L 60.827911 101.781119 
L 62.457563 101.781119 
L 64.087214 101.781119 
L 65.716866 101.781119 
L 67.346518 101.781119 
L 68.97617 101.781119 
L 70.605821 101.781119 
L 72.235473 101.781119 
L 73.865125 101.781119 
L 75.494777 101.781119 
L 77.124429 101.781119 
L 78.75408 101.781119 
L 80.383732 101.781119 
L 82.013384 101.781119 
L 83.643036 101.781119 
L 85.272687 101.781119 
L 86.902339 101.781119 
L 88.531991 101.781119 
L 90.161643 101.781119 
L 91.791295 101.781119 
L 93.420946 101.781119 
L 95.050598 101.781119 
L 96.68025 101.781119 
L 98.309902 101.781119 
L 99.939554 101.781119 
L 101.569205 101.781119 
L 103.198857 101.781119 
L 104.828509 101.781119 
L 106.458161 101.781119 
L 108.087812 101.781119 
L 109.717464 101.781119 
L 111.347116 101.781119 
L 112.976768 101.781119 
L 114.60642 101.781119 
L 116.236071 101.781119 
L 117.865723 101.781119 
L 119.495375 101.781119 
L 121.125027 101.781119 
L 122.754679 101.781119 
L 124.38433 101.781119 
L 126.013982 101.781119 
L 127.643634 101.781119 
L 129.273286 101.781119 
L 130.902938 101.781119 
L 132.532589 101.781119 
L 134.162241 101.781119 
L 135.791893 101.781119 
L 137.421545 101.781119 
L 139.051196 101.781119 
L 140.680848 101.781119 
L 142.3105 101.781119 
L 143.940152 101.781119 
L 145.569804 101.781119 
L 147.199455 101.781119 
L 148.829107 101.781119 
L 150.458759 101.781119 
L 152.088411 101.781119 
L 153.718063 101.781119 
L 155.347714 101.781119 
L 156.977366 101.781119 
L 158.607018 101.781119 
L 160.23667 101.781119 
L 161.866321 101.781119 
L 163.495973 101.781119 
L 165.125625 101.781119 
L 166.755277 101.781119 
L 168.384929 101.781119 
L 170.01458 101.781119 
L 171.644232 101.781119 
L 173.273884 101.781119 
L 174.903536 101.781119 
L 176.533187 101.781119 
L 178.162839 101.781119 
L 179.792491 101.781119 
L 181.422143 101.781119 
L 183.051795 101.781119 
L 184.681446 101.781119 
L 186.311098 101.781119 
L 187.94075 101.781119 
L 189.570402 101.781119 
L 191.200054 101.781119 
L 192.829705 101.781119 
L 194.459357 101.781119 
L 196.089009 101.781119 
L 197.718661 101.781119 
L 199.348312 101.781119 
L 200.977964 101.781119 
L 202.607616 101.781119 
L 204.237268 101.781119 
L 205.86692 101.781119 
L 207.496571 101.781119 
L 209.126223 101.781119 
L 210.755875 101.781119 
L 212.385527 101.781119 
L 214.015179 101.781119 
" style="fill:none;stroke:#333333;stroke-dasharray:2,3.3;stroke-dashoffset:0;stroke-width:2;"/>
   </g>
   <g id="line2d_17">
    <path clip-path="url(#p888bc7f234)" d="M 51.05 124.627925 
L 52.679652 124.103916 
L 54.309304 123.579907 
L 55.938955 123.055897 
L 57.568607 122.531888 
L 59.198259 122.007879 
L 60.827911 121.483869 
L 62.457563 120.95986 
L 64.087214 120.435851 
L 65.716866 119.911841 
L 67.346518 119.387832 
L 68.97617 118.863823 
L 70.605821 118.339814 
L 72.235473 117.815804 
L 73.865125 117.291795 
L 75.494777 116.767786 
L 77.124429 116.243776 
L 78.75408 115.719767 
L 80.383732 115.195758 
L 82.013384 114.671748 
L 83.643036 114.147739 
L 85.272687 113.62373 
L 86.902339 113.09972 
L 88.531991 112.575711 
L 90.161643 112.051702 
L 91.791295 111.527692 
L 93.420946 111.003683 
L 95.050598 110.479674 
L 96.68025 109.955664 
L 98.309902 109.431655 
L 99.939554 108.907646 
L 101.569205 108.383636 
L 103.198857 107.859627 
L 104.828509 107.335618 
L 106.458161 106.811608 
L 108.087812 106.287599 
L 109.717464 105.76359 
L 111.347116 105.23958 
L 112.976768 104.715571 
L 114.60642 104.191562 
L 116.236071 103.667552 
L 117.865723 103.143543 
L 119.495375 102.619534 
L 121.125027 102.095524 
L 122.754679 101.571515 
L 124.38433 101.047506 
L 126.013982 100.523497 
L 127.643634 99.999487 
L 129.273286 99.475478 
L 130.902938 98.951469 
L 132.532589 98.427459 
L 134.162241 97.90345 
L 135.791893 97.379441 
L 137.421545 96.855431 
L 139.051196 96.331422 
L 140.680848 95.807413 
L 142.3105 95.283403 
L 143.940152 94.759394 
L 145.569804 94.235385 
L 147.199455 93.711375 
L 148.829107 93.187366 
L 150.458759 92.663357 
L 152.088411 92.139347 
L 153.718063 91.615338 
L 155.347714 91.091329 
L 156.977366 90.567319 
L 158.607018 90.04331 
L 160.23667 89.519301 
L 161.866321 88.995291 
L 163.495973 88.471282 
L 165.125625 87.947273 
L 166.755277 87.423263 
L 168.384929 86.899254 
L 170.01458 86.375245 
L 171.644232 85.851235 
L 173.273884 85.327226 
L 174.903536 84.803217 
L 176.533187 84.279207 
L 178.162839 83.755198 
L 179.792491 83.231189 
L 181.422143 82.707179 
L 183.051795 82.18317 
L 184.681446 81.659161 
L 186.311098 81.135152 
L 187.94075 80.611142 
L 189.570402 80.087133 
L 191.200054 79.563124 
L 192.829705 79.039114 
L 194.459357 78.515105 
L 196.089009 77.991096 
L 197.718661 77.467086 
L 199.348312 76.943077 
L 200.977964 76.419068 
L 202.607616 75.895058 
L 204.237268 75.371049 
L 205.86692 74.84704 
L 207.496571 74.32303 
L 209.126223 73.799021 
L 210.755875 73.275012 
L 212.385527 72.751002 
L 214.015179 72.226993 
" style="fill:none;stroke:#92c5de;stroke-dasharray:2,3.3;stroke-dashoffset:0;stroke-width:2;"/>
   </g>
   <g id="line2d_18">
    <path clip-path="url(#p888bc7f234)" d="M 51.05 116.45338 
L 52.679652 115.929371 
L 54.309304 115.405361 
L 55.938955 114.881352 
L 57.568607 114.357343 
L 59.198259 113.833333 
L 60.827911 113.309324 
L 62.457563 112.785315 
L 64.087214 112.261305 
L 65.716866 111.737296 
L 67.346518 111.213287 
L 68.97617 110.689277 
L 70.605821 110.165268 
L 72.235473 109.641259 
L 73.865125 109.117249 
L 75.494777 108.59324 
L 77.124429 108.069231 
L 78.75408 107.545221 
L 80.383732 107.021212 
L 82.013384 106.497203 
L 83.643036 105.973193 
L 85.272687 105.449184 
L 86.902339 104.925175 
L 88.531991 104.401166 
L 90.161643 103.877156 
L 91.791295 103.353147 
L 93.420946 102.829138 
L 95.050598 102.305128 
L 96.68025 101.781119 
L 98.309902 101.25711 
L 99.939554 100.7331 
L 101.569205 100.209091 
L 103.198857 99.685082 
L 104.828509 99.161072 
L 106.458161 98.637063 
L 108.087812 98.113054 
L 109.717464 97.589044 
L 111.347116 97.065035 
L 112.976768 96.541026 
L 114.60642 96.017016 
L 116.236071 95.493007 
L 117.865723 94.968998 
L 119.495375 94.444988 
L 121.125027 93.920979 
L 122.754679 93.39697 
L 124.38433 92.87296 
L 126.013982 92.348951 
L 127.643634 91.824942 
L 129.273286 91.300932 
L 130.902938 90.776923 
L 132.532589 90.252914 
L 134.162241 89.728904 
L 135.791893 89.204895 
L 137.421545 88.680886 
L 139.051196 88.156876 
L 140.680848 87.632867 
L 142.3105 87.108858 
L 143.940152 86.584848 
L 145.569804 86.060839 
L 147.199455 85.53683 
L 148.829107 85.012821 
L 150.458759 84.488811 
L 152.088411 83.964802 
L 153.718063 83.440793 
L 155.347714 82.916783 
L 156.977366 82.392774 
L 158.607018 81.868765 
L 160.23667 81.344755 
L 161.866321 80.820746 
L 163.495973 80.296737 
L 165.125625 79.772727 
L 166.755277 79.248718 
L 168.384929 78.724709 
L 170.01458 78.200699 
L 171.644232 77.67669 
L 173.273884 77.152681 
L 174.903536 76.628671 
L 176.533187 76.104662 
L 178.162839 75.580653 
L 179.792491 75.056643 
L 181.422143 74.532634 
L 183.051795 74.008625 
L 184.681446 73.484615 
L 186.311098 72.960606 
L 187.94075 72.436597 
L 189.570402 71.912587 
L 191.200054 71.388578 
L 192.829705 70.864569 
L 194.459357 70.340559 
L 196.089009 69.81655 
L 197.718661 69.292541 
L 199.348312 68.768531 
L 200.977964 68.244522 
L 202.607616 67.720513 
L 204.237268 67.196503 
L 205.86692 66.672494 
L 207.496571 66.148485 
L 209.126223 65.624476 
L 210.755875 65.100466 
L 212.385527 64.576457 
L 214.015179 64.052448 
" style="fill:none;stroke:#92c5de;stroke-dasharray:2,3.3;stroke-dashoffset:0;stroke-width:2;"/>
   </g>
   <g id="line2d_19">
    <path clip-path="url(#p888bc7f234)" d="M 51.05 128.82 
L 52.679652 127.771981 
L 54.309304 126.723963 
L 55.938955 125.675944 
L 57.568607 124.627925 
L 59.198259 123.579907 
L 60.827911 122.531888 
L 62.457563 121.483869 
L 64.087214 120.435851 
L 65.716866 119.387832 
L 67.346518 118.339814 
L 68.97617 117.291795 
L 70.605821 116.243776 
L 72.235473 115.195758 
L 73.865125 114.147739 
L 75.494777 113.09972 
L 77.124429 112.051702 
L 78.75408 111.003683 
L 80.383732 109.955664 
L 82.013384 108.907646 
L 83.643036 107.859627 
L 85.272687 106.811608 
L 86.902339 105.76359 
L 88.531991 104.715571 
L 90.161643 103.667552 
L 91.791295 102.619534 
L 93.420946 101.571515 
L 95.050598 100.523497 
L 96.68025 99.475478 
L 98.309902 98.427459 
L 99.939554 97.379441 
L 101.569205 96.331422 
L 103.198857 95.283403 
L 104.828509 94.235385 
L 106.458161 93.187366 
L 108.087812 92.139347 
L 109.717464 91.091329 
L 111.347116 90.04331 
L 112.976768 88.995291 
L 114.60642 87.947273 
L 116.236071 86.899254 
L 117.865723 85.851235 
L 119.495375 84.803217 
L 121.125027 83.755198 
L 122.754679 82.707179 
L 124.38433 81.659161 
L 126.013982 80.611142 
L 127.643634 79.563124 
L 129.273286 78.515105 
L 130.902938 77.467086 
L 132.532589 76.419068 
L 134.162241 75.371049 
L 135.791893 74.32303 
L 137.421545 73.275012 
L 139.051196 72.226993 
L 140.680848 71.178974 
L 142.3105 70.130956 
L 143.940152 69.082937 
L 145.569804 68.034918 
L 147.199455 66.9869 
L 148.829107 65.938881 
L 150.458759 64.890862 
L 152.088411 63.842844 
L 153.718063 62.794825 
L 155.347714 61.746807 
L 156.977366 60.698788 
L 158.607018 59.650769 
L 160.23667 58.602751 
L 161.866321 57.554732 
L 163.495973 56.506713 
L 165.125625 55.458695 
L 166.755277 54.410676 
L 168.384929 53.362657 
L 170.01458 52.314639 
L 171.644232 51.26662 
L 173.273884 50.218601 
L 174.903536 49.170583 
L 176.533187 48.122564 
L 178.162839 47.074545 
L 179.792491 46.026527 
L 181.422143 44.978508 
L 183.051795 43.93049 
L 184.681446 42.882471 
L 186.311098 41.834452 
L 187.94075 40.786434 
L 189.570402 39.738415 
L 191.200054 38.690396 
L 192.829705 37.642378 
L 194.459357 36.594359 
L 196.089009 35.54634 
L 197.718661 34.498322 
L 199.348312 33.450303 
L 200.977964 32.402284 
L 202.607616 31.354266 
L 204.237268 30.306247 
L 205.86692 29.258228 
L 207.496571 28.21021 
L 209.126223 27.162191 
L 210.755875 26.114172 
L 212.385527 25.066154 
L 214.015179 24.018135 
" style="fill:none;stroke:#4393c3;stroke-dasharray:2,3.3;stroke-dashoffset:0;stroke-width:2;"/>
   </g>
   <g id="line2d_20">
    <path clip-path="url(#p888bc7f234)" d="M 51.05 43.144476 
L 52.679652 43.144476 
L 54.309304 43.144476 
L 55.938955 43.144476 
L 57.568607 43.144476 
L 59.198259 43.144476 
L 60.827911 43.144476 
L 62.457563 43.144476 
L 64.087214 43.144476 
L 65.716866 43.144476 
L 67.346518 43.144476 
L 68.97617 43.144476 
L 70.605821 43.144476 
L 72.235473 43.144476 
L 73.865125 43.144476 
L 75.494777 43.144476 
L 77.124429 43.144476 
L 78.75408 43.144476 
L 80.383732 43.144476 
L 82.013384 43.144476 
L 83.643036 43.144476 
L 85.272687 43.144476 
L 86.902339 43.144476 
L 88.531991 43.144476 
L 90.161643 43.144476 
L 91.791295 43.144476 
L 93.420946 43.144476 
L 95.050598 43.144476 
L 96.68025 43.144476 
L 98.309902 43.144476 
L 99.939554 43.144476 
L 101.569205 43.144476 
L 103.198857 43.144476 
L 104.828509 43.144476 
L 106.458161 43.144476 
L 108.087812 43.144476 
L 109.717464 43.144476 
L 111.347116 43.144476 
L 112.976768 43.144476 
L 114.60642 43.144476 
L 116.236071 43.144476 
L 117.865723 43.144476 
L 119.495375 43.144476 
L 121.125027 43.144476 
L 122.754679 43.144476 
L 124.38433 43.144476 
L 126.013982 43.144476 
L 127.643634 43.144476 
L 129.273286 43.144476 
L 130.902938 43.144476 
L 132.532589 43.144476 
L 134.162241 43.144476 
L 135.791893 43.144476 
L 137.421545 43.144476 
L 139.051196 43.144476 
L 140.680848 43.144476 
L 142.3105 43.144476 
L 143.940152 43.144476 
L 145.569804 43.144476 
L 147.199455 43.144476 
L 148.829107 43.144476 
L 150.458759 43.144476 
L 152.088411 43.144476 
L 153.718063 43.144476 
L 155.347714 43.144476 
L 156.977366 43.144476 
L 158.607018 43.144476 
L 160.23667 43.144476 
L 161.866321 43.144476 
L 163.495973 43.144476 
L 165.125625 43.144476 
L 166.755277 43.144476 
L 168.384929 43.144476 
L 170.01458 43.144476 
L 171.644232 43.144476 
L 173.273884 43.144476 
L 174.903536 43.144476 
L 176.533187 43.144476 
L 178.162839 43.144476 
L 179.792491 43.144476 
L 181.422143 43.144476 
L 183.051795 43.144476 
L 184.681446 43.144476 
L 186.311098 43.144476 
L 187.94075 43.144476 
L 189.570402 43.144476 
L 191.200054 43.144476 
L 192.829705 43.144476 
L 194.459357 43.144476 
L 196.089009 43.144476 
L 197.718661 43.144476 
L 199.348312 43.144476 
L 200.977964 43.144476 
L 202.607616 43.144476 
L 204.237268 43.144476 
L 205.86692 43.144476 
L 207.496571 43.144476 
L 209.126223 43.144476 
L 210.755875 43.144476 
L 212.385527 43.144476 
L 214.015179 43.144476 
" style="fill:none;stroke:#333333;stroke-dasharray:2,3.3;stroke-dashoffset:0;stroke-width:2;"/>
   </g>
   <g id="text_14">
    <g id="patch_3">
     <path clip-path="url(#p888bc7f234)" d="M 91.391788 38.819272 
L 168.526901 62.904057 
L 173.67339 46.42166 
L 96.538277 22.336875 
z
" style="fill:none;opacity:0;"/>
    </g>
    <g clip-path="url(#p888bc7f234)">
     <!-- SM14_micro006 -->
     <defs>
      <path d="M 4.5 23 
L 13.421875 23.78125 
Q 14.0625 18.40625 16.375 14.96875 
Q 18.703125 11.53125 23.578125 9.40625 
Q 28.46875 7.28125 34.578125 7.28125 
Q 39.984375 7.28125 44.140625 8.890625 
Q 48.296875 10.5 50.3125 13.296875 
Q 52.34375 16.109375 52.34375 19.4375 
Q 52.34375 22.796875 50.390625 25.3125 
Q 48.4375 27.828125 43.953125 29.546875 
Q 41.0625 30.671875 31.203125 33.03125 
Q 21.34375 35.40625 17.390625 37.5 
Q 12.25 40.1875 9.734375 44.15625 
Q 7.234375 48.140625 7.234375 53.078125 
Q 7.234375 58.5 10.296875 63.203125 
Q 13.375 67.921875 19.28125 70.359375 
Q 25.203125 72.796875 32.421875 72.796875 
Q 40.375 72.796875 46.453125 70.234375 
Q 52.546875 67.671875 55.8125 62.6875 
Q 59.078125 57.71875 59.328125 51.421875 
L 50.25 50.734375 
Q 49.515625 57.515625 45.28125 60.984375 
Q 41.0625 64.453125 32.8125 64.453125 
Q 24.21875 64.453125 20.28125 61.296875 
Q 16.359375 58.15625 16.359375 53.71875 
Q 16.359375 49.859375 19.140625 47.359375 
Q 21.875 44.875 33.421875 42.265625 
Q 44.96875 39.65625 49.265625 37.703125 
Q 55.515625 34.8125 58.484375 30.390625 
Q 61.46875 25.984375 61.46875 20.21875 
Q 61.46875 14.5 58.203125 9.4375 
Q 54.9375 4.390625 48.796875 1.578125 
Q 42.671875 -1.21875 35.015625 -1.21875 
Q 25.296875 -1.21875 18.71875 1.609375 
Q 12.15625 4.4375 8.421875 10.125 
Q 4.6875 15.828125 4.5 23 
z
" id="ArialMT-83"/>
      <path d="M 7.421875 0 
L 7.421875 71.578125 
L 21.6875 71.578125 
L 38.625 20.90625 
Q 40.96875 13.8125 42.046875 10.296875 
Q 43.265625 14.203125 45.84375 21.78125 
L 62.984375 71.578125 
L 75.734375 71.578125 
L 75.734375 0 
L 66.609375 0 
L 66.609375 59.90625 
L 45.796875 0 
L 37.25 0 
L 16.546875 60.9375 
L 16.546875 0 
z
" id="ArialMT-77"/>
      <path d="M -1.515625 -19.875 
L -1.515625 -13.53125 
L 56.734375 -13.53125 
L 56.734375 -19.875 
z
" id="ArialMT-95"/>
      <path d="M 6.59375 0 
L 6.59375 51.859375 
L 14.453125 51.859375 
L 14.453125 44.578125 
Q 16.890625 48.390625 20.9375 50.703125 
Q 25 53.03125 30.171875 53.03125 
Q 35.9375 53.03125 39.625 50.640625 
Q 43.3125 48.25 44.828125 43.953125 
Q 50.984375 53.03125 60.84375 53.03125 
Q 68.5625 53.03125 72.703125 48.75 
Q 76.859375 44.484375 76.859375 35.59375 
L 76.859375 0 
L 68.109375 0 
L 68.109375 32.671875 
Q 68.109375 37.9375 67.25 40.25 
Q 66.40625 42.578125 64.15625 43.984375 
Q 61.921875 45.40625 58.890625 45.40625 
Q 53.421875 45.40625 49.796875 41.765625 
Q 46.1875 38.140625 46.1875 30.125 
L 46.1875 0 
L 37.40625 0 
L 37.40625 33.6875 
Q 37.40625 39.546875 35.25 42.46875 
Q 33.109375 45.40625 28.21875 45.40625 
Q 24.515625 45.40625 21.359375 43.453125 
Q 18.21875 41.5 16.796875 37.734375 
Q 15.375 33.984375 15.375 26.90625 
L 15.375 0 
z
" id="ArialMT-109"/>
      <path d="M 6.640625 61.46875 
L 6.640625 71.578125 
L 15.4375 71.578125 
L 15.4375 61.46875 
z
M 6.640625 0 
L 6.640625 51.859375 
L 15.4375 51.859375 
L 15.4375 0 
z
" id="ArialMT-105"/>
      <path d="M 40.4375 19 
L 49.078125 17.875 
Q 47.65625 8.9375 41.8125 3.875 
Q 35.984375 -1.171875 27.484375 -1.171875 
Q 16.84375 -1.171875 10.375 5.78125 
Q 3.90625 12.75 3.90625 25.734375 
Q 3.90625 34.125 6.6875 40.421875 
Q 9.46875 46.734375 15.15625 49.875 
Q 20.84375 53.03125 27.546875 53.03125 
Q 35.984375 53.03125 41.359375 48.75 
Q 46.734375 44.484375 48.25 36.625 
L 39.703125 35.296875 
Q 38.484375 40.53125 35.375 43.15625 
Q 32.28125 45.796875 27.875 45.796875 
Q 21.234375 45.796875 17.078125 41.03125 
Q 12.9375 36.28125 12.9375 25.984375 
Q 12.9375 15.53125 16.9375 10.796875 
Q 20.953125 6.0625 27.390625 6.0625 
Q 32.5625 6.0625 36.03125 9.234375 
Q 39.5 12.40625 40.4375 19 
z
" id="ArialMT-99"/>
      <path d="M 3.328125 25.921875 
Q 3.328125 40.328125 11.328125 47.265625 
Q 18.015625 53.03125 27.640625 53.03125 
Q 38.328125 53.03125 45.109375 46.015625 
Q 51.90625 39.015625 51.90625 26.65625 
Q 51.90625 16.65625 48.90625 10.90625 
Q 45.90625 5.171875 40.15625 2 
Q 34.421875 -1.171875 27.640625 -1.171875 
Q 16.75 -1.171875 10.03125 5.8125 
Q 3.328125 12.796875 3.328125 25.921875 
z
M 12.359375 25.921875 
Q 12.359375 15.96875 16.703125 11.015625 
Q 21.046875 6.0625 27.640625 6.0625 
Q 34.1875 6.0625 38.53125 11.03125 
Q 42.875 16.015625 42.875 26.21875 
Q 42.875 35.84375 38.5 40.796875 
Q 34.125 45.75 27.640625 45.75 
Q 21.046875 45.75 16.703125 40.8125 
Q 12.359375 35.890625 12.359375 25.921875 
z
" id="ArialMT-111"/>
     </defs>
     <g style="fill:#f4a582;" transform="translate(96.994565 34.296104)rotate(-342.659468)scale(0.1 -0.1)">
      <use xlink:href="#ArialMT-83"/>
      <use x="66.699219" xlink:href="#ArialMT-77"/>
      <use x="150" xlink:href="#ArialMT-49"/>
      <use x="205.615234" xlink:href="#ArialMT-52"/>
      <use x="261.230469" xlink:href="#ArialMT-95"/>
      <use x="316.845703" xlink:href="#ArialMT-109"/>
      <use x="400.146484" xlink:href="#ArialMT-105"/>
      <use x="422.363281" xlink:href="#ArialMT-99"/>
      <use x="472.363281" xlink:href="#ArialMT-114"/>
      <use x="505.664062" xlink:href="#ArialMT-111"/>
      <use x="561.279297" xlink:href="#ArialMT-48"/>
      <use x="616.894531" xlink:href="#ArialMT-48"/>
      <use x="672.509766" xlink:href="#ArialMT-54"/>
     </g>
    </g>
   </g>
   <g id="text_15">
    <g id="patch_4">
     <path clip-path="url(#p888bc7f234)" d="M 92.128683 110.414713 
L 172.936496 110.414713 
L 172.936496 93.147525 
L 92.128683 93.147525 
z
" style="fill:none;opacity:0;"/>
    </g>
    <g clip-path="url(#p888bc7f234)">
     <!-- SM14_micro001 -->
     <g style="fill:#333333;" transform="translate(96.128683 104.427213)scale(0.1 -0.1)">
      <use xlink:href="#ArialMT-83"/>
      <use x="66.699219" xlink:href="#ArialMT-77"/>
      <use x="150" xlink:href="#ArialMT-49"/>
      <use x="205.615234" xlink:href="#ArialMT-52"/>
      <use x="261.230469" xlink:href="#ArialMT-95"/>
      <use x="316.845703" xlink:href="#ArialMT-109"/>
      <use x="400.146484" xlink:href="#ArialMT-105"/>
      <use x="422.363281" xlink:href="#ArialMT-99"/>
      <use x="472.363281" xlink:href="#ArialMT-114"/>
      <use x="505.664062" xlink:href="#ArialMT-111"/>
      <use x="561.279297" xlink:href="#ArialMT-48"/>
      <use x="616.894531" xlink:href="#ArialMT-48"/>
      <use x="672.509766" xlink:href="#ArialMT-49"/>
     </g>
    </g>
   </g>
   <g id="text_16">
    <g id="patch_5">
     <path clip-path="url(#p888bc7f234)" d="M 96.538277 118.71105 
L 173.67339 94.626265 
L 168.526901 78.143868 
L 91.391788 102.228653 
z
" style="fill:none;opacity:0;"/>
    </g>
    <g clip-path="url(#p888bc7f234)">
     <!-- SM14_micro002 -->
     <g style="fill:#92c5de;" transform="translate(98.571902 111.80348)rotate(-17.340532)scale(0.1 -0.1)">
      <use xlink:href="#ArialMT-83"/>
      <use x="66.699219" xlink:href="#ArialMT-77"/>
      <use x="150" xlink:href="#ArialMT-49"/>
      <use x="205.615234" xlink:href="#ArialMT-52"/>
      <use x="261.230469" xlink:href="#ArialMT-95"/>
      <use x="316.845703" xlink:href="#ArialMT-109"/>
      <use x="400.146484" xlink:href="#ArialMT-105"/>
      <use x="422.363281" xlink:href="#ArialMT-99"/>
      <use x="472.363281" xlink:href="#ArialMT-114"/>
      <use x="505.664062" xlink:href="#ArialMT-111"/>
      <use x="561.279297" xlink:href="#ArialMT-48"/>
      <use x="616.894531" xlink:href="#ArialMT-48"/>
      <use x="672.509766" xlink:href="#ArialMT-50"/>
     </g>
    </g>
   </g>
   <g id="text_17">
    <g id="patch_6">
     <path clip-path="url(#p888bc7f234)" d="M 96.538277 110.536505 
L 173.67339 86.45172 
L 168.526901 69.969323 
L 91.391788 94.054108 
z
" style="fill:none;opacity:0;"/>
    </g>
    <g clip-path="url(#p888bc7f234)">
     <!-- SM14_micro004 -->
     <g style="fill:#92c5de;" transform="translate(98.571902 103.628935)rotate(-17.340532)scale(0.1 -0.1)">
      <use xlink:href="#ArialMT-83"/>
      <use x="66.699219" xlink:href="#ArialMT-77"/>
      <use x="150" xlink:href="#ArialMT-49"/>
      <use x="205.615234" xlink:href="#ArialMT-52"/>
      <use x="261.230469" xlink:href="#ArialMT-95"/>
      <use x="316.845703" xlink:href="#ArialMT-109"/>
      <use x="400.146484" xlink:href="#ArialMT-105"/>
      <use x="422.363281" xlink:href="#ArialMT-99"/>
      <use x="472.363281" xlink:href="#ArialMT-114"/>
      <use x="505.664062" xlink:href="#ArialMT-111"/>
      <use x="561.279297" xlink:href="#ArialMT-48"/>
      <use x="616.894531" xlink:href="#ArialMT-48"/>
      <use x="672.509766" xlink:href="#ArialMT-52"/>
     </g>
    </g>
   </g>
   <g id="text_18">
    <g id="patch_7">
     <path clip-path="url(#p888bc7f234)" d="M 102.835258 105.143328 
L 171.376066 62.340755 
L 162.22992 47.694808 
L 93.689112 90.49738 
z
" style="fill:none;opacity:0;"/>
    </g>
    <g clip-path="url(#p888bc7f234)">
     <!-- SM14_micro003 -->
     <g style="fill:#4393c3;" transform="translate(103.056559 97.946024)rotate(-31.984079)scale(0.1 -0.1)">
      <use xlink:href="#ArialMT-83"/>
      <use x="66.699219" xlink:href="#ArialMT-77"/>
      <use x="150" xlink:href="#ArialMT-49"/>
      <use x="205.615234" xlink:href="#ArialMT-52"/>
      <use x="261.230469" xlink:href="#ArialMT-95"/>
      <use x="316.845703" xlink:href="#ArialMT-109"/>
      <use x="400.146484" xlink:href="#ArialMT-105"/>
      <use x="422.363281" xlink:href="#ArialMT-99"/>
      <use x="472.363281" xlink:href="#ArialMT-114"/>
      <use x="505.664062" xlink:href="#ArialMT-111"/>
      <use x="561.279297" xlink:href="#ArialMT-48"/>
      <use x="616.894531" xlink:href="#ArialMT-48"/>
      <use x="672.509766" xlink:href="#ArialMT-51"/>
     </g>
    </g>
   </g>
   <g id="text_19">
    <g id="patch_8">
     <path clip-path="url(#p888bc7f234)" d="M 92.128683 51.778069 
L 172.936496 51.778069 
L 172.936496 34.510882 
L 92.128683 34.510882 
z
" style="fill:none;opacity:0;"/>
    </g>
    <g clip-path="url(#p888bc7f234)">
     <!-- SM14_micro005 -->
     <defs>
      <path d="M 4.15625 18.75 
L 13.375 19.53125 
Q 14.40625 12.796875 18.140625 9.390625 
Q 21.875 6 27.15625 6 
Q 33.5 6 37.890625 10.78125 
Q 42.28125 15.578125 42.28125 23.484375 
Q 42.28125 31 38.0625 35.34375 
Q 33.84375 39.703125 27 39.703125 
Q 22.75 39.703125 19.328125 37.765625 
Q 15.921875 35.84375 13.96875 32.765625 
L 5.71875 33.84375 
L 12.640625 70.609375 
L 48.25 70.609375 
L 48.25 62.203125 
L 19.671875 62.203125 
L 15.828125 42.96875 
Q 22.265625 47.46875 29.34375 47.46875 
Q 38.71875 47.46875 45.15625 40.96875 
Q 51.609375 34.46875 51.609375 24.265625 
Q 51.609375 14.546875 45.953125 7.46875 
Q 39.0625 -1.21875 27.15625 -1.21875 
Q 17.390625 -1.21875 11.203125 4.25 
Q 5.03125 9.71875 4.15625 18.75 
z
" id="ArialMT-53"/>
     </defs>
     <g style="fill:#333333;" transform="translate(96.128683 45.790569)scale(0.1 -0.1)">
      <use xlink:href="#ArialMT-83"/>
      <use x="66.699219" xlink:href="#ArialMT-77"/>
      <use x="150" xlink:href="#ArialMT-49"/>
      <use x="205.615234" xlink:href="#ArialMT-52"/>
      <use x="261.230469" xlink:href="#ArialMT-95"/>
      <use x="316.845703" xlink:href="#ArialMT-109"/>
      <use x="400.146484" xlink:href="#ArialMT-105"/>
      <use x="422.363281" xlink:href="#ArialMT-99"/>
      <use x="472.363281" xlink:href="#ArialMT-114"/>
      <use x="505.664062" xlink:href="#ArialMT-111"/>
      <use x="561.279297" xlink:href="#ArialMT-48"/>
      <use x="616.894531" xlink:href="#ArialMT-48"/>
      <use x="672.509766" xlink:href="#ArialMT-53"/>
     </g>
    </g>
   </g>
   <g id="patch_9">
    <path d="M 51.05 134.44 
L 51.05 10.8 
" style="fill:none;stroke:#262626;stroke-linecap:square;stroke-linejoin:miter;stroke-width:0.8;"/>
   </g>
   <g id="patch_10">
    <path d="M 51.05 134.44 
L 214.015179 134.44 
" style="fill:none;stroke:#262626;stroke-linecap:square;stroke-linejoin:miter;stroke-width:0.8;"/>
   </g>
  </g>
 </g>
 <defs>
  <clipPath id="p888bc7f234">
   <rect height="123.64" width="162.965179" x="51.05" y="10.8"/>
  </clipPath>
 </defs>
</svg>
